%TF.GenerationSoftware,KiCad,Pcbnew,7.0.2-0*%
%TF.CreationDate,2024-03-04T00:44:33-08:00*%
%TF.ProjectId,EE156_4_Layer,45453135-365f-4345-9f4c-617965722e6b,rev?*%
%TF.SameCoordinates,Original*%
%TF.FileFunction,Soldermask,Top*%
%TF.FilePolarity,Negative*%
%FSLAX46Y46*%
G04 Gerber Fmt 4.6, Leading zero omitted, Abs format (unit mm)*
G04 Created by KiCad (PCBNEW 7.0.2-0) date 2024-03-04 00:44:33*
%MOMM*%
%LPD*%
G01*
G04 APERTURE LIST*
G04 Aperture macros list*
%AMRoundRect*
0 Rectangle with rounded corners*
0 $1 Rounding radius*
0 $2 $3 $4 $5 $6 $7 $8 $9 X,Y pos of 4 corners*
0 Add a 4 corners polygon primitive as box body*
4,1,4,$2,$3,$4,$5,$6,$7,$8,$9,$2,$3,0*
0 Add four circle primitives for the rounded corners*
1,1,$1+$1,$2,$3*
1,1,$1+$1,$4,$5*
1,1,$1+$1,$6,$7*
1,1,$1+$1,$8,$9*
0 Add four rect primitives between the rounded corners*
20,1,$1+$1,$2,$3,$4,$5,0*
20,1,$1+$1,$4,$5,$6,$7,0*
20,1,$1+$1,$6,$7,$8,$9,0*
20,1,$1+$1,$8,$9,$2,$3,0*%
G04 Aperture macros list end*
%ADD10R,0.660400X2.768600*%
%ADD11R,1.346200X0.279400*%
%ADD12R,0.279400X1.346200*%
%ADD13RoundRect,0.250000X0.450000X-0.350000X0.450000X0.350000X-0.450000X0.350000X-0.450000X-0.350000X0*%
%ADD14RoundRect,0.237500X0.237500X-0.300000X0.237500X0.300000X-0.237500X0.300000X-0.237500X-0.300000X0*%
%ADD15R,0.800000X1.700000*%
%ADD16R,1.700000X1.700000*%
%ADD17O,1.700000X1.700000*%
%ADD18R,1.000000X1.800000*%
%ADD19RoundRect,0.250000X0.300000X0.300000X-0.300000X0.300000X-0.300000X-0.300000X0.300000X-0.300000X0*%
%ADD20RoundRect,0.125000X-0.137500X0.125000X-0.137500X-0.125000X0.137500X-0.125000X0.137500X0.125000X0*%
%ADD21R,0.812800X0.660400*%
%ADD22RoundRect,0.150000X-0.512500X-0.150000X0.512500X-0.150000X0.512500X0.150000X-0.512500X0.150000X0*%
%ADD23RoundRect,0.150000X0.512500X0.150000X-0.512500X0.150000X-0.512500X-0.150000X0.512500X-0.150000X0*%
%ADD24R,2.000000X2.000000*%
%ADD25RoundRect,0.250000X-0.450000X0.350000X-0.450000X-0.350000X0.450000X-0.350000X0.450000X0.350000X0*%
%ADD26RoundRect,0.250000X0.350000X0.450000X-0.350000X0.450000X-0.350000X-0.450000X0.350000X-0.450000X0*%
%ADD27RoundRect,0.250000X-0.350000X-0.450000X0.350000X-0.450000X0.350000X0.450000X-0.350000X0.450000X0*%
%ADD28RoundRect,0.150000X0.150000X-0.512500X0.150000X0.512500X-0.150000X0.512500X-0.150000X-0.512500X0*%
%ADD29RoundRect,0.250000X-0.350000X0.275000X-0.350000X-0.275000X0.350000X-0.275000X0.350000X0.275000X0*%
%ADD30R,1.900000X1.400000*%
%ADD31R,1.400000X1.800000*%
%ADD32R,1.500000X0.800000*%
%ADD33C,2.300000*%
%ADD34R,2.300000X2.300000*%
%ADD35R,1.900000X1.800000*%
%ADD36R,1.900000X1.900000*%
%ADD37R,1.600000X2.100000*%
%ADD38R,1.350000X0.400000*%
%ADD39C,2.100000*%
%ADD40RoundRect,0.250000X0.450000X-0.325000X0.450000X0.325000X-0.450000X0.325000X-0.450000X-0.325000X0*%
%ADD41R,0.700000X0.700000*%
%ADD42RoundRect,0.237500X-0.237500X0.300000X-0.237500X-0.300000X0.237500X-0.300000X0.237500X0.300000X0*%
%ADD43RoundRect,0.237500X-0.300000X-0.237500X0.300000X-0.237500X0.300000X0.237500X-0.300000X0.237500X0*%
%ADD44RoundRect,0.237500X0.300000X0.237500X-0.300000X0.237500X-0.300000X-0.237500X0.300000X-0.237500X0*%
G04 APERTURE END LIST*
D10*
%TO.C,J4*%
X194500000Y-122460004D03*
X194500000Y-126500000D03*
X193230000Y-122460004D03*
X193230000Y-126500000D03*
X191960000Y-122460004D03*
X191960000Y-126500000D03*
X190690000Y-122460004D03*
X190690000Y-126500000D03*
X189420000Y-122460004D03*
X189420000Y-126500000D03*
%TD*%
D11*
%TO.C,U1*%
X203146200Y-112000000D03*
X203146200Y-111500001D03*
X203146200Y-111000000D03*
X203146200Y-110500001D03*
X203146200Y-109999999D03*
X203146200Y-109500000D03*
X203146200Y-109000001D03*
X203146200Y-108500000D03*
X203146200Y-108000000D03*
X203146200Y-107499999D03*
X203146200Y-107000000D03*
X203146200Y-106500001D03*
X203146200Y-105999999D03*
X203146200Y-105500000D03*
X203146200Y-104999999D03*
X203146200Y-104500000D03*
D12*
X205073100Y-102573100D03*
X205573099Y-102573100D03*
X206073100Y-102573100D03*
X206573099Y-102573100D03*
X207073101Y-102573100D03*
X207573100Y-102573100D03*
X208073099Y-102573100D03*
X208573100Y-102573100D03*
X209073100Y-102573100D03*
X209573101Y-102573100D03*
X210073100Y-102573100D03*
X210573099Y-102573100D03*
X211073101Y-102573100D03*
X211573100Y-102573100D03*
X212073101Y-102573100D03*
X212573100Y-102573100D03*
D11*
X214500000Y-104500000D03*
X214500000Y-104999999D03*
X214500000Y-105500000D03*
X214500000Y-105999999D03*
X214500000Y-106500001D03*
X214500000Y-107000000D03*
X214500000Y-107499999D03*
X214500000Y-108000000D03*
X214500000Y-108500000D03*
X214500000Y-109000001D03*
X214500000Y-109500000D03*
X214500000Y-109999999D03*
X214500000Y-110500001D03*
X214500000Y-111000000D03*
X214500000Y-111500001D03*
X214500000Y-112000000D03*
D12*
X212573100Y-113926900D03*
X212073101Y-113926900D03*
X211573100Y-113926900D03*
X211073101Y-113926900D03*
X210573099Y-113926900D03*
X210073100Y-113926900D03*
X209573101Y-113926900D03*
X209073100Y-113926900D03*
X208573100Y-113926900D03*
X208073099Y-113926900D03*
X207573100Y-113926900D03*
X207073101Y-113926900D03*
X206573099Y-113926900D03*
X206073100Y-113926900D03*
X205573099Y-113926900D03*
X205073100Y-113926900D03*
%TD*%
D13*
%TO.C,R3*%
X197250000Y-95000000D03*
X197250000Y-93000000D03*
%TD*%
D14*
%TO.C,C6*%
X199500000Y-94862500D03*
X199500000Y-93137500D03*
%TD*%
D15*
%TO.C,S1*%
X198200000Y-98000000D03*
X194800000Y-98000000D03*
%TD*%
D16*
%TO.C,J16*%
X219750000Y-116790000D03*
D17*
X219750000Y-114250000D03*
X219750000Y-111710000D03*
X219750000Y-109170000D03*
X219750000Y-106630000D03*
X219750000Y-104090000D03*
X219750000Y-101550000D03*
X219750000Y-99010000D03*
%TD*%
D18*
%TO.C,X1*%
X204000000Y-117250000D03*
X206500000Y-117250000D03*
%TD*%
D19*
%TO.C,D2*%
X232000000Y-113500000D03*
X229200000Y-113500000D03*
%TD*%
D20*
%TO.C,U6*%
X182312500Y-99300000D03*
X182312500Y-100100000D03*
X182312500Y-100900000D03*
X182312500Y-101700000D03*
X184687500Y-101700000D03*
X184687500Y-100900000D03*
X184687500Y-100100000D03*
X184687500Y-99300000D03*
%TD*%
D21*
%TO.C,U4*%
X182750000Y-112050002D03*
X182750000Y-113250000D03*
X181556200Y-113250000D03*
X181556200Y-112050002D03*
%TD*%
D22*
%TO.C,U3*%
X238862500Y-110100000D03*
X238862500Y-112000000D03*
X236587500Y-112000000D03*
X236587500Y-111050000D03*
X236587500Y-110100000D03*
%TD*%
D23*
%TO.C,U2*%
X235612500Y-95700000D03*
X235612500Y-93800000D03*
X237887500Y-93800000D03*
X237887500Y-94750000D03*
X237887500Y-95700000D03*
%TD*%
D24*
%TO.C,TP1*%
X234862500Y-104250000D03*
%TD*%
D13*
%TO.C,R22*%
X185000000Y-113750000D03*
X185000000Y-115750000D03*
%TD*%
D25*
%TO.C,R21*%
X185000000Y-111750000D03*
X185000000Y-109750000D03*
%TD*%
D13*
%TO.C,R18*%
X170900000Y-116500000D03*
X170900000Y-118500000D03*
%TD*%
%TO.C,R17*%
X167950000Y-116500000D03*
X167950000Y-118500000D03*
%TD*%
%TO.C,R16*%
X165000000Y-116500000D03*
X165000000Y-118500000D03*
%TD*%
%TO.C,R15*%
X159550000Y-116500000D03*
X159550000Y-118500000D03*
%TD*%
D26*
%TO.C,R14*%
X186750000Y-99250000D03*
X188750000Y-99250000D03*
%TD*%
%TO.C,R13*%
X186750000Y-101500000D03*
X188750000Y-101500000D03*
%TD*%
%TO.C,R12*%
X186750000Y-103750000D03*
X188750000Y-103750000D03*
%TD*%
D27*
%TO.C,R11*%
X184250000Y-104750000D03*
X182250000Y-104750000D03*
%TD*%
D25*
%TO.C,R10*%
X165500000Y-99000000D03*
X165500000Y-97000000D03*
%TD*%
D27*
%TO.C,R9*%
X188750000Y-97000000D03*
X186750000Y-97000000D03*
%TD*%
D26*
%TO.C,R8*%
X235750000Y-98250000D03*
X237750000Y-98250000D03*
%TD*%
D13*
%TO.C,R7*%
X234112500Y-110000000D03*
X234112500Y-112000000D03*
%TD*%
D25*
%TO.C,R6*%
X242750000Y-93975000D03*
X242750000Y-91975000D03*
%TD*%
D26*
%TO.C,R5*%
X229612500Y-111000000D03*
X231612500Y-111000000D03*
%TD*%
%TO.C,R4*%
X177600000Y-120900000D03*
X179600000Y-120900000D03*
%TD*%
D27*
%TO.C,R2*%
X218650000Y-120800000D03*
X216650000Y-120800000D03*
%TD*%
%TO.C,R1*%
X222900000Y-120800000D03*
X220900000Y-120800000D03*
%TD*%
D28*
%TO.C,Q1*%
X230612500Y-106500000D03*
X231562500Y-108775000D03*
X229662500Y-108775000D03*
%TD*%
D29*
%TO.C,L1*%
X199750000Y-108150000D03*
X199750000Y-105850000D03*
%TD*%
D17*
%TO.C,J15*%
X184250000Y-89250000D03*
X181710000Y-89250000D03*
X179170000Y-89250000D03*
D16*
X176630000Y-89250000D03*
%TD*%
D30*
%TO.C,J14*%
X156500000Y-114500000D03*
X157500000Y-100990000D03*
D31*
X170650000Y-102950000D03*
X170650000Y-108650000D03*
D32*
X160350000Y-102140000D03*
X160350000Y-103240000D03*
X160150000Y-104340000D03*
X160350000Y-105440000D03*
X160150000Y-106540000D03*
X160350000Y-107640000D03*
X160750000Y-108740000D03*
X160350000Y-109840000D03*
%TD*%
D33*
%TO.C,J13*%
X251200000Y-96200000D03*
D34*
X251200000Y-101200000D03*
%TD*%
D17*
%TO.C,J12*%
X244330000Y-126250000D03*
X241790000Y-126250000D03*
X239250000Y-126250000D03*
D16*
X236710000Y-126250000D03*
%TD*%
D17*
%TO.C,J11*%
X231580000Y-126250000D03*
X229040000Y-126250000D03*
X226500000Y-126250000D03*
D16*
X223960000Y-126250000D03*
%TD*%
D35*
%TO.C,J10*%
X250500000Y-117500000D03*
X250500000Y-109900000D03*
D36*
X250500000Y-114900000D03*
X250500000Y-112500000D03*
D37*
X247950000Y-116800000D03*
X247950000Y-110600000D03*
D38*
X247825000Y-115000000D03*
X247825000Y-113050000D03*
X247825000Y-112400000D03*
X247825000Y-114350000D03*
X247825000Y-113700000D03*
%TD*%
D17*
%TO.C,J8*%
X182870000Y-126250000D03*
X180330000Y-126250000D03*
X177790000Y-126250000D03*
D16*
X175250000Y-126250000D03*
%TD*%
D17*
%TO.C,J7*%
X201800000Y-89250000D03*
X204340000Y-89250000D03*
X206880000Y-89250000D03*
X209420000Y-89250000D03*
X211960000Y-89250000D03*
D16*
X214500000Y-89250000D03*
%TD*%
D17*
%TO.C,J6*%
X201210000Y-126250000D03*
D16*
X203750000Y-126250000D03*
%TD*%
D17*
%TO.C,J5*%
X216000000Y-126250000D03*
X213460000Y-126250000D03*
X210920000Y-126250000D03*
D16*
X208380000Y-126250000D03*
%TD*%
%TO.C,J3*%
X225250000Y-89250000D03*
D17*
X222710000Y-89250000D03*
X220170000Y-89250000D03*
%TD*%
%TO.C,J2*%
X190195000Y-89250000D03*
X192735000Y-89250000D03*
D16*
X195275000Y-89250000D03*
%TD*%
D17*
%TO.C,J1*%
X165500000Y-126250000D03*
D16*
X168040000Y-126250000D03*
%TD*%
D39*
%TO.C,H4*%
X251250000Y-125750000D03*
%TD*%
%TO.C,H3*%
X251250000Y-89750000D03*
%TD*%
%TO.C,H2*%
X157750000Y-125750000D03*
%TD*%
%TO.C,H1*%
X157750000Y-89750000D03*
%TD*%
D40*
%TO.C,D3*%
X242750000Y-95950000D03*
X242750000Y-98000000D03*
%TD*%
D41*
%TO.C,D1*%
X213000000Y-93200000D03*
X213000000Y-92100000D03*
X214830000Y-92100000D03*
X214830000Y-93200000D03*
%TD*%
D42*
%TO.C,C22*%
X180500000Y-101362500D03*
X180500000Y-99637500D03*
%TD*%
D43*
%TO.C,C21*%
X162000000Y-99000000D03*
X160275000Y-99000000D03*
%TD*%
D42*
%TO.C,C20*%
X179000000Y-113500000D03*
X179000000Y-111775000D03*
%TD*%
D43*
%TO.C,C19*%
X242612500Y-111750000D03*
X240887500Y-111750000D03*
%TD*%
%TO.C,C18*%
X242612500Y-109990000D03*
X240887500Y-109990000D03*
%TD*%
D42*
%TO.C,C17*%
X240250000Y-94362500D03*
X240250000Y-92637500D03*
%TD*%
D43*
%TO.C,C16*%
X232862500Y-121100000D03*
X231137500Y-121100000D03*
%TD*%
%TO.C,C15*%
X232862500Y-119300000D03*
X231137500Y-119300000D03*
%TD*%
D44*
%TO.C,C14*%
X234112500Y-108000000D03*
X235837500Y-108000000D03*
%TD*%
D43*
%TO.C,C13*%
X232825000Y-117600000D03*
X231100000Y-117600000D03*
%TD*%
D42*
%TO.C,C12*%
X206500000Y-123112500D03*
X206500000Y-121387500D03*
%TD*%
D43*
%TO.C,C11*%
X237612500Y-91250000D03*
X235887500Y-91250000D03*
%TD*%
D44*
%TO.C,C10*%
X195637500Y-106000000D03*
X197362500Y-106000000D03*
%TD*%
%TO.C,C9*%
X195637500Y-104000000D03*
X197362500Y-104000000D03*
%TD*%
D43*
%TO.C,C8*%
X214862500Y-98750000D03*
X213137500Y-98750000D03*
%TD*%
%TO.C,C7*%
X214862500Y-100500000D03*
X213137500Y-100500000D03*
%TD*%
%TO.C,C5*%
X214875000Y-97050000D03*
X213150000Y-97050000D03*
%TD*%
%TO.C,C4*%
X214825000Y-95250000D03*
X213100000Y-95250000D03*
%TD*%
D42*
%TO.C,C3*%
X222500000Y-116475000D03*
X222500000Y-114750000D03*
%TD*%
D44*
%TO.C,C2*%
X208500000Y-117250000D03*
X210225000Y-117250000D03*
%TD*%
D43*
%TO.C,C1*%
X201862500Y-117250000D03*
X200137500Y-117250000D03*
%TD*%
M02*
