%TF.GenerationSoftware,KiCad,Pcbnew,7.0.2-0*%
%TF.CreationDate,2024-03-04T00:44:29-08:00*%
%TF.ProjectId,EE156_4_Layer,45453135-365f-4345-9f4c-617965722e6b,rev?*%
%TF.SameCoordinates,Original*%
%TF.FileFunction,Drillmap*%
%TF.FilePolarity,Positive*%
%FSLAX45Y45*%
G04 Gerber Fmt 4.5, Leading zero omitted, Abs format (unit mm)*
G04 Created by KiCad (PCBNEW 7.0.2-0) date 2024-03-04 00:44:29*
%MOMM*%
%LPD*%
G01*
G04 APERTURE LIST*
%ADD10C,0.100000*%
%ADD11C,0.200000*%
%ADD12C,0.040000*%
%ADD13C,0.130000*%
G04 APERTURE END LIST*
D10*
X15500000Y-8700000D02*
X25400000Y-8700000D01*
X25400000Y-12850000D01*
X15500000Y-12850000D01*
X15500000Y-8700000D01*
D11*
D12*
X15590000Y-10430000D02*
X15630000Y-10470000D01*
X15630000Y-10430000D02*
X15590000Y-10470000D01*
X15710000Y-11070000D02*
X15750000Y-11110000D01*
X15750000Y-11070000D02*
X15710000Y-11110000D01*
X15790000Y-10440000D02*
X15830000Y-10480000D01*
X15830000Y-10440000D02*
X15790000Y-10480000D01*
X15810000Y-11270000D02*
X15850000Y-11310000D01*
X15850000Y-11270000D02*
X15810000Y-11310000D01*
X15840000Y-10270000D02*
X15880000Y-10310000D01*
X15880000Y-10270000D02*
X15840000Y-10310000D01*
X16170000Y-11430000D02*
X16210000Y-11470000D01*
X16210000Y-11430000D02*
X16170000Y-11470000D01*
X16207500Y-9680000D02*
X16247500Y-9720000D01*
X16247500Y-9680000D02*
X16207500Y-9720000D01*
X16210000Y-10510000D02*
X16250000Y-10550000D01*
X16250000Y-10510000D02*
X16210000Y-10550000D01*
X16240000Y-11630000D02*
X16280000Y-11670000D01*
X16280000Y-11630000D02*
X16240000Y-11670000D01*
X16340000Y-9880000D02*
X16380000Y-9920000D01*
X16380000Y-9880000D02*
X16340000Y-9920000D01*
X16340000Y-11000000D02*
X16380000Y-11040000D01*
X16380000Y-11000000D02*
X16340000Y-11040000D01*
X16380000Y-11380000D02*
X16420000Y-11420000D01*
X16420000Y-11380000D02*
X16380000Y-11420000D01*
X16570000Y-10130000D02*
X16610000Y-10170000D01*
X16610000Y-10130000D02*
X16570000Y-10170000D01*
X16580000Y-10540000D02*
X16620000Y-10580000D01*
X16620000Y-10540000D02*
X16580000Y-10580000D01*
X16770000Y-11100000D02*
X16810000Y-11140000D01*
X16810000Y-11100000D02*
X16770000Y-11140000D01*
X16770000Y-11460000D02*
X16810000Y-11500000D01*
X16810000Y-11460000D02*
X16770000Y-11500000D01*
X17120000Y-12140000D02*
X17160000Y-12180000D01*
X17160000Y-12140000D02*
X17120000Y-12180000D01*
X17260000Y-11370000D02*
X17300000Y-11410000D01*
X17300000Y-11370000D02*
X17260000Y-11410000D01*
X17390000Y-12040000D02*
X17430000Y-12080000D01*
X17430000Y-12040000D02*
X17390000Y-12080000D01*
X17640000Y-11920000D02*
X17680000Y-11960000D01*
X17680000Y-11920000D02*
X17640000Y-11960000D01*
X17650000Y-11610000D02*
X17690000Y-11650000D01*
X17690000Y-11610000D02*
X17650000Y-11650000D01*
X17760000Y-12400000D02*
X17800000Y-12440000D01*
X17800000Y-12400000D02*
X17760000Y-12440000D01*
X17883803Y-9325050D02*
X17923803Y-9365050D01*
X17923803Y-9325050D02*
X17883803Y-9365050D01*
X17890000Y-9470000D02*
X17930000Y-9510000D01*
X17930000Y-9470000D02*
X17890000Y-9510000D01*
X17970000Y-11920000D02*
X18010000Y-11960000D01*
X18010000Y-11920000D02*
X17970000Y-11960000D01*
X18030000Y-10260000D02*
X18070000Y-10300000D01*
X18070000Y-10260000D02*
X18030000Y-10300000D01*
X18100000Y-10620000D02*
X18140000Y-10660000D01*
X18140000Y-10620000D02*
X18100000Y-10660000D01*
X18110000Y-12230000D02*
X18150000Y-12270000D01*
X18150000Y-12230000D02*
X18110000Y-12270000D01*
X18130000Y-10990000D02*
X18170000Y-11030000D01*
X18170000Y-10990000D02*
X18130000Y-11030000D01*
X18130000Y-11460000D02*
X18170000Y-11500000D01*
X18170000Y-11460000D02*
X18130000Y-11500000D01*
X18330000Y-10120000D02*
X18370000Y-10160000D01*
X18370000Y-10120000D02*
X18330000Y-10160000D01*
X18460000Y-9780000D02*
X18500000Y-9820000D01*
X18500000Y-9780000D02*
X18460000Y-9820000D01*
X18490000Y-11720000D02*
X18530000Y-11760000D01*
X18530000Y-11720000D02*
X18490000Y-11760000D01*
X18600000Y-9520000D02*
X18640000Y-9560000D01*
X18640000Y-9520000D02*
X18600000Y-9560000D01*
X18620000Y-12590000D02*
X18660000Y-12630000D01*
X18660000Y-12590000D02*
X18620000Y-12630000D01*
X18640000Y-10560000D02*
X18680000Y-10600000D01*
X18680000Y-10560000D02*
X18640000Y-10600000D01*
X18650000Y-11430000D02*
X18690000Y-11470000D01*
X18690000Y-11430000D02*
X18650000Y-11470000D01*
X18660000Y-9110000D02*
X18700000Y-9150000D01*
X18700000Y-9110000D02*
X18660000Y-9150000D01*
X18760000Y-11920000D02*
X18800000Y-11960000D01*
X18800000Y-11920000D02*
X18760000Y-11960000D01*
X18770000Y-12570000D02*
X18810000Y-12610000D01*
X18810000Y-12570000D02*
X18770000Y-12610000D01*
X18900000Y-9340000D02*
X18940000Y-9380000D01*
X18940000Y-9340000D02*
X18900000Y-9380000D01*
X18900000Y-9500000D02*
X18940000Y-9540000D01*
X18940000Y-9500000D02*
X18900000Y-9540000D01*
X19010000Y-9430000D02*
X19050000Y-9470000D01*
X19050000Y-9430000D02*
X19010000Y-9470000D01*
X19010000Y-9580000D02*
X19050000Y-9620000D01*
X19050000Y-9580000D02*
X19010000Y-9620000D01*
X19020000Y-10330000D02*
X19060000Y-10370000D01*
X19060000Y-10330000D02*
X19020000Y-10370000D01*
X19060000Y-11970000D02*
X19100000Y-12010000D01*
X19100000Y-11970000D02*
X19060000Y-12010000D01*
X19160000Y-9420000D02*
X19200000Y-9460000D01*
X19200000Y-9420000D02*
X19160000Y-9460000D01*
X19160000Y-9580000D02*
X19200000Y-9620000D01*
X19200000Y-9580000D02*
X19160000Y-9620000D01*
X19160000Y-10230000D02*
X19200000Y-10270000D01*
X19200000Y-10230000D02*
X19160000Y-10270000D01*
X19232500Y-9877500D02*
X19272500Y-9917500D01*
X19272500Y-9877500D02*
X19232500Y-9917500D01*
X19250000Y-10580000D02*
X19290000Y-10620000D01*
X19290000Y-10580000D02*
X19250000Y-10620000D01*
X19280000Y-11810000D02*
X19320000Y-11850000D01*
X19320000Y-11810000D02*
X19280000Y-11850000D01*
X19330000Y-10130000D02*
X19370000Y-10170000D01*
X19370000Y-10130000D02*
X19330000Y-10170000D01*
X19390000Y-10450000D02*
X19430000Y-10490000D01*
X19430000Y-10450000D02*
X19390000Y-10490000D01*
X19400000Y-10230000D02*
X19440000Y-10270000D01*
X19440000Y-10230000D02*
X19400000Y-10270000D01*
X19400000Y-10580000D02*
X19440000Y-10620000D01*
X19440000Y-10580000D02*
X19400000Y-10620000D01*
X19570000Y-12630000D02*
X19610000Y-12670000D01*
X19610000Y-12630000D02*
X19570000Y-12670000D01*
X19620000Y-9780000D02*
X19660000Y-9820000D01*
X19660000Y-9780000D02*
X19620000Y-9820000D01*
X19740000Y-9130000D02*
X19780000Y-9170000D01*
X19780000Y-9130000D02*
X19740000Y-9170000D01*
X19770000Y-10910000D02*
X19810000Y-10950000D01*
X19810000Y-10910000D02*
X19770000Y-10950000D01*
X19890000Y-10390000D02*
X19930000Y-10430000D01*
X19930000Y-10390000D02*
X19890000Y-10430000D01*
X19920000Y-9140000D02*
X19960000Y-9180000D01*
X19960000Y-9140000D02*
X19920000Y-9180000D01*
X19990000Y-10980000D02*
X20030000Y-11020000D01*
X20030000Y-10980000D02*
X19990000Y-11020000D01*
X20000000Y-11550000D02*
X20040000Y-11590000D01*
X20040000Y-11550000D02*
X20000000Y-11590000D01*
X20020000Y-11080000D02*
X20060000Y-11120000D01*
X20060000Y-11080000D02*
X20020000Y-11120000D01*
X20080000Y-10220000D02*
X20120000Y-10260000D01*
X20120000Y-10220000D02*
X20080000Y-10260000D01*
X20110000Y-12360000D02*
X20150000Y-12400000D01*
X20150000Y-12360000D02*
X20110000Y-12400000D01*
X20120000Y-10380000D02*
X20160000Y-10420000D01*
X20160000Y-10380000D02*
X20120000Y-10420000D01*
X20130000Y-11080000D02*
X20170000Y-11120000D01*
X20170000Y-11080000D02*
X20130000Y-11120000D01*
X20250000Y-10160000D02*
X20290000Y-10200000D01*
X20290000Y-10160000D02*
X20250000Y-10200000D01*
X20250000Y-10290000D02*
X20290000Y-10330000D01*
X20290000Y-10290000D02*
X20250000Y-10330000D01*
X20425179Y-10478393D02*
X20465179Y-10518393D01*
X20465179Y-10478393D02*
X20425179Y-10518393D01*
X20450000Y-10650000D02*
X20490000Y-10690000D01*
X20490000Y-10650000D02*
X20450000Y-10690000D01*
X20450000Y-10790000D02*
X20490000Y-10830000D01*
X20490000Y-10790000D02*
X20450000Y-10830000D01*
X20480000Y-12290000D02*
X20520000Y-12330000D01*
X20520000Y-12290000D02*
X20480000Y-12330000D01*
X20540000Y-10510000D02*
X20580000Y-10550000D01*
X20580000Y-10510000D02*
X20540000Y-10550000D01*
X20600000Y-9520000D02*
X20640000Y-9560000D01*
X20640000Y-9520000D02*
X20600000Y-9560000D01*
X20600000Y-10030000D02*
X20640000Y-10070000D01*
X20640000Y-10030000D02*
X20600000Y-10070000D01*
X20602400Y-10619712D02*
X20642400Y-10659712D01*
X20642400Y-10619712D02*
X20602400Y-10659712D01*
X20612372Y-10388006D02*
X20652372Y-10428006D01*
X20652372Y-10388006D02*
X20612372Y-10428006D01*
X20647350Y-11020000D02*
X20687350Y-11060000D01*
X20687350Y-11020000D02*
X20647350Y-11060000D01*
X20670000Y-11180000D02*
X20710000Y-11220000D01*
X20710000Y-11180000D02*
X20670000Y-11220000D01*
X20670000Y-11960000D02*
X20710000Y-12000000D01*
X20710000Y-11960000D02*
X20670000Y-12000000D01*
X20674850Y-10710000D02*
X20714850Y-10750000D01*
X20714850Y-10710000D02*
X20674850Y-10750000D01*
X20710000Y-10870000D02*
X20750000Y-10910000D01*
X20750000Y-10870000D02*
X20710000Y-10910000D01*
X20790000Y-11550000D02*
X20830000Y-11590000D01*
X20830000Y-11550000D02*
X20790000Y-11590000D01*
X20820000Y-12360000D02*
X20860000Y-12400000D01*
X20860000Y-12360000D02*
X20820000Y-12400000D01*
X20840000Y-11210000D02*
X20880000Y-11250000D01*
X20880000Y-11210000D02*
X20840000Y-11250000D01*
X20890000Y-11910000D02*
X20930000Y-11950000D01*
X20930000Y-11910000D02*
X20890000Y-11950000D01*
X20960000Y-11210000D02*
X21000000Y-11250000D01*
X21000000Y-11210000D02*
X20960000Y-11250000D01*
X20990000Y-10400000D02*
X21030000Y-10440000D01*
X21030000Y-10400000D02*
X20990000Y-10440000D01*
X21040000Y-9850000D02*
X21080000Y-9890000D01*
X21080000Y-9850000D02*
X21040000Y-9890000D01*
X21060000Y-9320000D02*
X21100000Y-9360000D01*
X21100000Y-9320000D02*
X21060000Y-9360000D01*
X21090000Y-10030000D02*
X21130000Y-10070000D01*
X21130000Y-10030000D02*
X21090000Y-10070000D01*
X21130000Y-9470000D02*
X21170000Y-9510000D01*
X21170000Y-9470000D02*
X21130000Y-9510000D01*
X21130000Y-9590000D02*
X21170000Y-9630000D01*
X21170000Y-9590000D02*
X21130000Y-9630000D01*
X21130000Y-10560000D02*
X21170000Y-10600000D01*
X21170000Y-10560000D02*
X21130000Y-10600000D01*
X21140000Y-9760000D02*
X21180000Y-9800000D01*
X21180000Y-9760000D02*
X21140000Y-9800000D01*
X21150000Y-9190000D02*
X21190000Y-9230000D01*
X21190000Y-9190000D02*
X21150000Y-9230000D01*
X21230000Y-11570000D02*
X21270000Y-11610000D01*
X21270000Y-11570000D02*
X21230000Y-11610000D01*
X21470000Y-10200000D02*
X21510000Y-10240000D01*
X21510000Y-10200000D02*
X21470000Y-10240000D01*
X21620000Y-10870000D02*
X21660000Y-10910000D01*
X21660000Y-10870000D02*
X21620000Y-10910000D01*
X21620000Y-10980000D02*
X21660000Y-11020000D01*
X21660000Y-10980000D02*
X21620000Y-11020000D01*
X21630000Y-9680000D02*
X21670000Y-9720000D01*
X21670000Y-9680000D02*
X21630000Y-9720000D01*
X21630000Y-9850000D02*
X21670000Y-9890000D01*
X21670000Y-9850000D02*
X21630000Y-9890000D01*
X21670000Y-10560000D02*
X21710000Y-10600000D01*
X21710000Y-10560000D02*
X21670000Y-10600000D01*
X21680000Y-10400000D02*
X21720000Y-10440000D01*
X21720000Y-10400000D02*
X21680000Y-10440000D01*
X21710000Y-10140000D02*
X21750000Y-10180000D01*
X21750000Y-10140000D02*
X21710000Y-10180000D01*
X21840000Y-12460000D02*
X21880000Y-12500000D01*
X21880000Y-12460000D02*
X21840000Y-12500000D01*
X22110000Y-12600000D02*
X22150000Y-12640000D01*
X22150000Y-12600000D02*
X22110000Y-12640000D01*
X22240000Y-9590000D02*
X22280000Y-9630000D01*
X22280000Y-9590000D02*
X22240000Y-9630000D01*
X22390000Y-11410000D02*
X22430000Y-11450000D01*
X22430000Y-11410000D02*
X22390000Y-11450000D01*
X22390000Y-11560000D02*
X22430000Y-11600000D01*
X22430000Y-11560000D02*
X22390000Y-11600000D01*
X22510000Y-9470000D02*
X22550000Y-9510000D01*
X22550000Y-9470000D02*
X22510000Y-9510000D01*
X23040000Y-9460000D02*
X23080000Y-9500000D01*
X23080000Y-9460000D02*
X23040000Y-9500000D01*
X23040000Y-11330000D02*
X23080000Y-11370000D01*
X23080000Y-11330000D02*
X23040000Y-11370000D01*
X23190000Y-9460000D02*
X23230000Y-9500000D01*
X23230000Y-9460000D02*
X23190000Y-9500000D01*
X23280000Y-10640000D02*
X23320000Y-10680000D01*
X23320000Y-10640000D02*
X23280000Y-10680000D01*
X23340000Y-11490000D02*
X23380000Y-11530000D01*
X23380000Y-11490000D02*
X23340000Y-11530000D01*
X23750000Y-11330000D02*
X23790000Y-11370000D01*
X23790000Y-11330000D02*
X23750000Y-11370000D01*
X23830000Y-11910000D02*
X23870000Y-11950000D01*
X23870000Y-11910000D02*
X23830000Y-11950000D01*
X23860000Y-9210000D02*
X23900000Y-9250000D01*
X23900000Y-9210000D02*
X23860000Y-9250000D01*
X23930000Y-9850000D02*
X23970000Y-9890000D01*
X23970000Y-9850000D02*
X23930000Y-9890000D01*
X23960000Y-10840000D02*
X24000000Y-10880000D01*
X24000000Y-10840000D02*
X23960000Y-10880000D01*
X23990000Y-11910000D02*
X24030000Y-11950000D01*
X24030000Y-11910000D02*
X23990000Y-11950000D01*
X24010000Y-9550000D02*
X24050000Y-9590000D01*
X24050000Y-9550000D02*
X24010000Y-9590000D01*
X24080000Y-11420000D02*
X24120000Y-11460000D01*
X24120000Y-11420000D02*
X24080000Y-11460000D01*
X24240000Y-11430000D02*
X24280000Y-11470000D01*
X24280000Y-11430000D02*
X24240000Y-11470000D01*
X24420000Y-11510000D02*
X24460000Y-11550000D01*
X24460000Y-11510000D02*
X24420000Y-11550000D01*
X24440000Y-11160000D02*
X24480000Y-11200000D01*
X24480000Y-11160000D02*
X24440000Y-11200000D01*
X24550000Y-11330000D02*
X24590000Y-11370000D01*
X24590000Y-11330000D02*
X24550000Y-11370000D01*
X24550000Y-11440000D02*
X24590000Y-11480000D01*
X24590000Y-11440000D02*
X24550000Y-11480000D01*
X24550000Y-11620000D02*
X24590000Y-11660000D01*
X24590000Y-11620000D02*
X24550000Y-11660000D01*
X25130000Y-10710000D02*
X25170000Y-10750000D01*
X25170000Y-10710000D02*
X25130000Y-10750000D01*
D10*
X16600000Y-12625000D02*
G75*
G03*
X16600000Y-12625000I-50000J0D01*
G01*
X16854000Y-12625000D02*
G75*
G03*
X16854000Y-12625000I-50000J0D01*
G01*
X17575000Y-12625000D02*
G75*
G03*
X17575000Y-12625000I-50000J0D01*
G01*
X17713000Y-8925000D02*
G75*
G03*
X17713000Y-8925000I-50000J0D01*
G01*
X17829000Y-12625000D02*
G75*
G03*
X17829000Y-12625000I-50000J0D01*
G01*
X17967000Y-8925000D02*
G75*
G03*
X17967000Y-8925000I-50000J0D01*
G01*
X18083000Y-12625000D02*
G75*
G03*
X18083000Y-12625000I-50000J0D01*
G01*
X18221000Y-8925000D02*
G75*
G03*
X18221000Y-8925000I-50000J0D01*
G01*
X18337000Y-12625000D02*
G75*
G03*
X18337000Y-12625000I-50000J0D01*
G01*
X18475000Y-8925000D02*
G75*
G03*
X18475000Y-8925000I-50000J0D01*
G01*
X19069500Y-8925000D02*
G75*
G03*
X19069500Y-8925000I-50000J0D01*
G01*
X19323500Y-8925000D02*
G75*
G03*
X19323500Y-8925000I-50000J0D01*
G01*
X19577500Y-8925000D02*
G75*
G03*
X19577500Y-8925000I-50000J0D01*
G01*
X20171000Y-12625000D02*
G75*
G03*
X20171000Y-12625000I-50000J0D01*
G01*
X20230000Y-8925000D02*
G75*
G03*
X20230000Y-8925000I-50000J0D01*
G01*
X20425000Y-12625000D02*
G75*
G03*
X20425000Y-12625000I-50000J0D01*
G01*
X20484000Y-8925000D02*
G75*
G03*
X20484000Y-8925000I-50000J0D01*
G01*
X20738000Y-8925000D02*
G75*
G03*
X20738000Y-8925000I-50000J0D01*
G01*
X20888000Y-12625000D02*
G75*
G03*
X20888000Y-12625000I-50000J0D01*
G01*
X20992000Y-8925000D02*
G75*
G03*
X20992000Y-8925000I-50000J0D01*
G01*
X21142000Y-12625000D02*
G75*
G03*
X21142000Y-12625000I-50000J0D01*
G01*
X21246000Y-8925000D02*
G75*
G03*
X21246000Y-8925000I-50000J0D01*
G01*
X21396000Y-12625000D02*
G75*
G03*
X21396000Y-12625000I-50000J0D01*
G01*
X21500000Y-8925000D02*
G75*
G03*
X21500000Y-8925000I-50000J0D01*
G01*
X21650000Y-12625000D02*
G75*
G03*
X21650000Y-12625000I-50000J0D01*
G01*
X22025000Y-9901000D02*
G75*
G03*
X22025000Y-9901000I-50000J0D01*
G01*
X22025000Y-10155000D02*
G75*
G03*
X22025000Y-10155000I-50000J0D01*
G01*
X22025000Y-10409000D02*
G75*
G03*
X22025000Y-10409000I-50000J0D01*
G01*
X22025000Y-10663000D02*
G75*
G03*
X22025000Y-10663000I-50000J0D01*
G01*
X22025000Y-10917000D02*
G75*
G03*
X22025000Y-10917000I-50000J0D01*
G01*
X22025000Y-11171000D02*
G75*
G03*
X22025000Y-11171000I-50000J0D01*
G01*
X22025000Y-11425000D02*
G75*
G03*
X22025000Y-11425000I-50000J0D01*
G01*
X22025000Y-11679000D02*
G75*
G03*
X22025000Y-11679000I-50000J0D01*
G01*
X22067000Y-8925000D02*
G75*
G03*
X22067000Y-8925000I-50000J0D01*
G01*
X22321000Y-8925000D02*
G75*
G03*
X22321000Y-8925000I-50000J0D01*
G01*
X22446000Y-12625000D02*
G75*
G03*
X22446000Y-12625000I-50000J0D01*
G01*
X22575000Y-8925000D02*
G75*
G03*
X22575000Y-8925000I-50000J0D01*
G01*
X22700000Y-12625000D02*
G75*
G03*
X22700000Y-12625000I-50000J0D01*
G01*
X22954000Y-12625000D02*
G75*
G03*
X22954000Y-12625000I-50000J0D01*
G01*
X23208000Y-12625000D02*
G75*
G03*
X23208000Y-12625000I-50000J0D01*
G01*
X23721000Y-12625000D02*
G75*
G03*
X23721000Y-12625000I-50000J0D01*
G01*
X23975000Y-12625000D02*
G75*
G03*
X23975000Y-12625000I-50000J0D01*
G01*
X24229000Y-12625000D02*
G75*
G03*
X24229000Y-12625000I-50000J0D01*
G01*
X24483000Y-12625000D02*
G75*
G03*
X24483000Y-12625000I-50000J0D01*
G01*
D13*
X25120000Y-9555000D02*
X25120000Y-9685000D01*
X25055000Y-9620000D02*
X25185000Y-9620000D01*
X25120000Y-10055000D02*
X25120000Y-10185000D01*
X25055000Y-10120000D02*
X25185000Y-10120000D01*
D11*
X15742619Y-13167524D02*
X15742619Y-12967524D01*
X15742619Y-12967524D02*
X15790238Y-12967524D01*
X15790238Y-12967524D02*
X15818809Y-12977048D01*
X15818809Y-12977048D02*
X15837857Y-12996095D01*
X15837857Y-12996095D02*
X15847381Y-13015143D01*
X15847381Y-13015143D02*
X15856905Y-13053238D01*
X15856905Y-13053238D02*
X15856905Y-13081809D01*
X15856905Y-13081809D02*
X15847381Y-13119905D01*
X15847381Y-13119905D02*
X15837857Y-13138952D01*
X15837857Y-13138952D02*
X15818809Y-13158000D01*
X15818809Y-13158000D02*
X15790238Y-13167524D01*
X15790238Y-13167524D02*
X15742619Y-13167524D01*
X15942619Y-13167524D02*
X15942619Y-13034190D01*
X15942619Y-13072286D02*
X15952143Y-13053238D01*
X15952143Y-13053238D02*
X15961667Y-13043714D01*
X15961667Y-13043714D02*
X15980714Y-13034190D01*
X15980714Y-13034190D02*
X15999762Y-13034190D01*
X16066428Y-13167524D02*
X16066428Y-13034190D01*
X16066428Y-12967524D02*
X16056905Y-12977048D01*
X16056905Y-12977048D02*
X16066428Y-12986571D01*
X16066428Y-12986571D02*
X16075952Y-12977048D01*
X16075952Y-12977048D02*
X16066428Y-12967524D01*
X16066428Y-12967524D02*
X16066428Y-12986571D01*
X16190238Y-13167524D02*
X16171190Y-13158000D01*
X16171190Y-13158000D02*
X16161667Y-13138952D01*
X16161667Y-13138952D02*
X16161667Y-12967524D01*
X16295000Y-13167524D02*
X16275952Y-13158000D01*
X16275952Y-13158000D02*
X16266428Y-13138952D01*
X16266428Y-13138952D02*
X16266428Y-12967524D01*
X16523571Y-13167524D02*
X16523571Y-12967524D01*
X16523571Y-12967524D02*
X16590238Y-13110381D01*
X16590238Y-13110381D02*
X16656905Y-12967524D01*
X16656905Y-12967524D02*
X16656905Y-13167524D01*
X16837857Y-13167524D02*
X16837857Y-13062762D01*
X16837857Y-13062762D02*
X16828333Y-13043714D01*
X16828333Y-13043714D02*
X16809286Y-13034190D01*
X16809286Y-13034190D02*
X16771190Y-13034190D01*
X16771190Y-13034190D02*
X16752143Y-13043714D01*
X16837857Y-13158000D02*
X16818810Y-13167524D01*
X16818810Y-13167524D02*
X16771190Y-13167524D01*
X16771190Y-13167524D02*
X16752143Y-13158000D01*
X16752143Y-13158000D02*
X16742619Y-13138952D01*
X16742619Y-13138952D02*
X16742619Y-13119905D01*
X16742619Y-13119905D02*
X16752143Y-13100857D01*
X16752143Y-13100857D02*
X16771190Y-13091333D01*
X16771190Y-13091333D02*
X16818810Y-13091333D01*
X16818810Y-13091333D02*
X16837857Y-13081809D01*
X16933095Y-13034190D02*
X16933095Y-13234190D01*
X16933095Y-13043714D02*
X16952143Y-13034190D01*
X16952143Y-13034190D02*
X16990238Y-13034190D01*
X16990238Y-13034190D02*
X17009286Y-13043714D01*
X17009286Y-13043714D02*
X17018810Y-13053238D01*
X17018810Y-13053238D02*
X17028333Y-13072286D01*
X17028333Y-13072286D02*
X17028333Y-13129428D01*
X17028333Y-13129428D02*
X17018810Y-13148476D01*
X17018810Y-13148476D02*
X17009286Y-13158000D01*
X17009286Y-13158000D02*
X16990238Y-13167524D01*
X16990238Y-13167524D02*
X16952143Y-13167524D01*
X16952143Y-13167524D02*
X16933095Y-13158000D01*
X17114048Y-13148476D02*
X17123571Y-13158000D01*
X17123571Y-13158000D02*
X17114048Y-13167524D01*
X17114048Y-13167524D02*
X17104524Y-13158000D01*
X17104524Y-13158000D02*
X17114048Y-13148476D01*
X17114048Y-13148476D02*
X17114048Y-13167524D01*
X17114048Y-13043714D02*
X17123571Y-13053238D01*
X17123571Y-13053238D02*
X17114048Y-13062762D01*
X17114048Y-13062762D02*
X17104524Y-13053238D01*
X17104524Y-13053238D02*
X17114048Y-13043714D01*
X17114048Y-13043714D02*
X17114048Y-13062762D01*
D12*
X15455000Y-13475000D02*
X15495000Y-13515000D01*
X15495000Y-13475000D02*
X15455000Y-13515000D01*
D11*
X15780714Y-13387524D02*
X15799762Y-13387524D01*
X15799762Y-13387524D02*
X15818809Y-13397048D01*
X15818809Y-13397048D02*
X15828333Y-13406571D01*
X15828333Y-13406571D02*
X15837857Y-13425619D01*
X15837857Y-13425619D02*
X15847381Y-13463714D01*
X15847381Y-13463714D02*
X15847381Y-13511333D01*
X15847381Y-13511333D02*
X15837857Y-13549428D01*
X15837857Y-13549428D02*
X15828333Y-13568476D01*
X15828333Y-13568476D02*
X15818809Y-13578000D01*
X15818809Y-13578000D02*
X15799762Y-13587524D01*
X15799762Y-13587524D02*
X15780714Y-13587524D01*
X15780714Y-13587524D02*
X15761667Y-13578000D01*
X15761667Y-13578000D02*
X15752143Y-13568476D01*
X15752143Y-13568476D02*
X15742619Y-13549428D01*
X15742619Y-13549428D02*
X15733095Y-13511333D01*
X15733095Y-13511333D02*
X15733095Y-13463714D01*
X15733095Y-13463714D02*
X15742619Y-13425619D01*
X15742619Y-13425619D02*
X15752143Y-13406571D01*
X15752143Y-13406571D02*
X15761667Y-13397048D01*
X15761667Y-13397048D02*
X15780714Y-13387524D01*
X15933095Y-13568476D02*
X15942619Y-13578000D01*
X15942619Y-13578000D02*
X15933095Y-13587524D01*
X15933095Y-13587524D02*
X15923571Y-13578000D01*
X15923571Y-13578000D02*
X15933095Y-13568476D01*
X15933095Y-13568476D02*
X15933095Y-13587524D01*
X16114048Y-13454190D02*
X16114048Y-13587524D01*
X16066428Y-13378000D02*
X16018809Y-13520857D01*
X16018809Y-13520857D02*
X16142619Y-13520857D01*
X16256905Y-13387524D02*
X16275952Y-13387524D01*
X16275952Y-13387524D02*
X16295000Y-13397048D01*
X16295000Y-13397048D02*
X16304524Y-13406571D01*
X16304524Y-13406571D02*
X16314048Y-13425619D01*
X16314048Y-13425619D02*
X16323571Y-13463714D01*
X16323571Y-13463714D02*
X16323571Y-13511333D01*
X16323571Y-13511333D02*
X16314048Y-13549428D01*
X16314048Y-13549428D02*
X16304524Y-13568476D01*
X16304524Y-13568476D02*
X16295000Y-13578000D01*
X16295000Y-13578000D02*
X16275952Y-13587524D01*
X16275952Y-13587524D02*
X16256905Y-13587524D01*
X16256905Y-13587524D02*
X16237857Y-13578000D01*
X16237857Y-13578000D02*
X16228333Y-13568476D01*
X16228333Y-13568476D02*
X16218809Y-13549428D01*
X16218809Y-13549428D02*
X16209286Y-13511333D01*
X16209286Y-13511333D02*
X16209286Y-13463714D01*
X16209286Y-13463714D02*
X16218809Y-13425619D01*
X16218809Y-13425619D02*
X16228333Y-13406571D01*
X16228333Y-13406571D02*
X16237857Y-13397048D01*
X16237857Y-13397048D02*
X16256905Y-13387524D01*
X16447381Y-13387524D02*
X16466429Y-13387524D01*
X16466429Y-13387524D02*
X16485476Y-13397048D01*
X16485476Y-13397048D02*
X16495000Y-13406571D01*
X16495000Y-13406571D02*
X16504524Y-13425619D01*
X16504524Y-13425619D02*
X16514048Y-13463714D01*
X16514048Y-13463714D02*
X16514048Y-13511333D01*
X16514048Y-13511333D02*
X16504524Y-13549428D01*
X16504524Y-13549428D02*
X16495000Y-13568476D01*
X16495000Y-13568476D02*
X16485476Y-13578000D01*
X16485476Y-13578000D02*
X16466429Y-13587524D01*
X16466429Y-13587524D02*
X16447381Y-13587524D01*
X16447381Y-13587524D02*
X16428333Y-13578000D01*
X16428333Y-13578000D02*
X16418809Y-13568476D01*
X16418809Y-13568476D02*
X16409286Y-13549428D01*
X16409286Y-13549428D02*
X16399762Y-13511333D01*
X16399762Y-13511333D02*
X16399762Y-13463714D01*
X16399762Y-13463714D02*
X16409286Y-13425619D01*
X16409286Y-13425619D02*
X16418809Y-13406571D01*
X16418809Y-13406571D02*
X16428333Y-13397048D01*
X16428333Y-13397048D02*
X16447381Y-13387524D01*
X16599762Y-13587524D02*
X16599762Y-13454190D01*
X16599762Y-13473238D02*
X16609286Y-13463714D01*
X16609286Y-13463714D02*
X16628333Y-13454190D01*
X16628333Y-13454190D02*
X16656905Y-13454190D01*
X16656905Y-13454190D02*
X16675952Y-13463714D01*
X16675952Y-13463714D02*
X16685476Y-13482762D01*
X16685476Y-13482762D02*
X16685476Y-13587524D01*
X16685476Y-13482762D02*
X16695000Y-13463714D01*
X16695000Y-13463714D02*
X16714048Y-13454190D01*
X16714048Y-13454190D02*
X16742619Y-13454190D01*
X16742619Y-13454190D02*
X16761667Y-13463714D01*
X16761667Y-13463714D02*
X16771190Y-13482762D01*
X16771190Y-13482762D02*
X16771190Y-13587524D01*
X16866429Y-13587524D02*
X16866429Y-13454190D01*
X16866429Y-13473238D02*
X16875952Y-13463714D01*
X16875952Y-13463714D02*
X16895000Y-13454190D01*
X16895000Y-13454190D02*
X16923572Y-13454190D01*
X16923572Y-13454190D02*
X16942619Y-13463714D01*
X16942619Y-13463714D02*
X16952143Y-13482762D01*
X16952143Y-13482762D02*
X16952143Y-13587524D01*
X16952143Y-13482762D02*
X16961667Y-13463714D01*
X16961667Y-13463714D02*
X16980714Y-13454190D01*
X16980714Y-13454190D02*
X17009286Y-13454190D01*
X17009286Y-13454190D02*
X17028333Y-13463714D01*
X17028333Y-13463714D02*
X17037857Y-13482762D01*
X17037857Y-13482762D02*
X17037857Y-13587524D01*
X17428333Y-13378000D02*
X17256905Y-13635143D01*
X17685476Y-13387524D02*
X17704524Y-13387524D01*
X17704524Y-13387524D02*
X17723572Y-13397048D01*
X17723572Y-13397048D02*
X17733095Y-13406571D01*
X17733095Y-13406571D02*
X17742619Y-13425619D01*
X17742619Y-13425619D02*
X17752143Y-13463714D01*
X17752143Y-13463714D02*
X17752143Y-13511333D01*
X17752143Y-13511333D02*
X17742619Y-13549428D01*
X17742619Y-13549428D02*
X17733095Y-13568476D01*
X17733095Y-13568476D02*
X17723572Y-13578000D01*
X17723572Y-13578000D02*
X17704524Y-13587524D01*
X17704524Y-13587524D02*
X17685476Y-13587524D01*
X17685476Y-13587524D02*
X17666429Y-13578000D01*
X17666429Y-13578000D02*
X17656905Y-13568476D01*
X17656905Y-13568476D02*
X17647381Y-13549428D01*
X17647381Y-13549428D02*
X17637857Y-13511333D01*
X17637857Y-13511333D02*
X17637857Y-13463714D01*
X17637857Y-13463714D02*
X17647381Y-13425619D01*
X17647381Y-13425619D02*
X17656905Y-13406571D01*
X17656905Y-13406571D02*
X17666429Y-13397048D01*
X17666429Y-13397048D02*
X17685476Y-13387524D01*
X17837857Y-13568476D02*
X17847381Y-13578000D01*
X17847381Y-13578000D02*
X17837857Y-13587524D01*
X17837857Y-13587524D02*
X17828334Y-13578000D01*
X17828334Y-13578000D02*
X17837857Y-13568476D01*
X17837857Y-13568476D02*
X17837857Y-13587524D01*
X17971191Y-13387524D02*
X17990238Y-13387524D01*
X17990238Y-13387524D02*
X18009286Y-13397048D01*
X18009286Y-13397048D02*
X18018810Y-13406571D01*
X18018810Y-13406571D02*
X18028334Y-13425619D01*
X18028334Y-13425619D02*
X18037857Y-13463714D01*
X18037857Y-13463714D02*
X18037857Y-13511333D01*
X18037857Y-13511333D02*
X18028334Y-13549428D01*
X18028334Y-13549428D02*
X18018810Y-13568476D01*
X18018810Y-13568476D02*
X18009286Y-13578000D01*
X18009286Y-13578000D02*
X17990238Y-13587524D01*
X17990238Y-13587524D02*
X17971191Y-13587524D01*
X17971191Y-13587524D02*
X17952143Y-13578000D01*
X17952143Y-13578000D02*
X17942619Y-13568476D01*
X17942619Y-13568476D02*
X17933095Y-13549428D01*
X17933095Y-13549428D02*
X17923572Y-13511333D01*
X17923572Y-13511333D02*
X17923572Y-13463714D01*
X17923572Y-13463714D02*
X17933095Y-13425619D01*
X17933095Y-13425619D02*
X17942619Y-13406571D01*
X17942619Y-13406571D02*
X17952143Y-13397048D01*
X17952143Y-13397048D02*
X17971191Y-13387524D01*
X18228334Y-13587524D02*
X18114048Y-13587524D01*
X18171191Y-13587524D02*
X18171191Y-13387524D01*
X18171191Y-13387524D02*
X18152143Y-13416095D01*
X18152143Y-13416095D02*
X18133095Y-13435143D01*
X18133095Y-13435143D02*
X18114048Y-13444667D01*
X18409286Y-13387524D02*
X18314048Y-13387524D01*
X18314048Y-13387524D02*
X18304524Y-13482762D01*
X18304524Y-13482762D02*
X18314048Y-13473238D01*
X18314048Y-13473238D02*
X18333095Y-13463714D01*
X18333095Y-13463714D02*
X18380715Y-13463714D01*
X18380715Y-13463714D02*
X18399762Y-13473238D01*
X18399762Y-13473238D02*
X18409286Y-13482762D01*
X18409286Y-13482762D02*
X18418810Y-13501809D01*
X18418810Y-13501809D02*
X18418810Y-13549428D01*
X18418810Y-13549428D02*
X18409286Y-13568476D01*
X18409286Y-13568476D02*
X18399762Y-13578000D01*
X18399762Y-13578000D02*
X18380715Y-13587524D01*
X18380715Y-13587524D02*
X18333095Y-13587524D01*
X18333095Y-13587524D02*
X18314048Y-13578000D01*
X18314048Y-13578000D02*
X18304524Y-13568476D01*
X18485476Y-13387524D02*
X18618810Y-13387524D01*
X18618810Y-13387524D02*
X18533095Y-13587524D01*
X18685476Y-13387524D02*
X18685476Y-13425619D01*
X18761667Y-13387524D02*
X18761667Y-13425619D01*
X19056905Y-13663714D02*
X19047381Y-13654190D01*
X19047381Y-13654190D02*
X19028334Y-13625619D01*
X19028334Y-13625619D02*
X19018810Y-13606571D01*
X19018810Y-13606571D02*
X19009286Y-13578000D01*
X19009286Y-13578000D02*
X18999762Y-13530381D01*
X18999762Y-13530381D02*
X18999762Y-13492286D01*
X18999762Y-13492286D02*
X19009286Y-13444667D01*
X19009286Y-13444667D02*
X19018810Y-13416095D01*
X19018810Y-13416095D02*
X19028334Y-13397048D01*
X19028334Y-13397048D02*
X19047381Y-13368476D01*
X19047381Y-13368476D02*
X19056905Y-13358952D01*
X19237857Y-13587524D02*
X19123572Y-13587524D01*
X19180715Y-13587524D02*
X19180715Y-13387524D01*
X19180715Y-13387524D02*
X19161667Y-13416095D01*
X19161667Y-13416095D02*
X19142619Y-13435143D01*
X19142619Y-13435143D02*
X19123572Y-13444667D01*
X19304524Y-13387524D02*
X19428334Y-13387524D01*
X19428334Y-13387524D02*
X19361667Y-13463714D01*
X19361667Y-13463714D02*
X19390238Y-13463714D01*
X19390238Y-13463714D02*
X19409286Y-13473238D01*
X19409286Y-13473238D02*
X19418810Y-13482762D01*
X19418810Y-13482762D02*
X19428334Y-13501809D01*
X19428334Y-13501809D02*
X19428334Y-13549428D01*
X19428334Y-13549428D02*
X19418810Y-13568476D01*
X19418810Y-13568476D02*
X19409286Y-13578000D01*
X19409286Y-13578000D02*
X19390238Y-13587524D01*
X19390238Y-13587524D02*
X19333096Y-13587524D01*
X19333096Y-13587524D02*
X19314048Y-13578000D01*
X19314048Y-13578000D02*
X19304524Y-13568476D01*
X19599762Y-13454190D02*
X19599762Y-13587524D01*
X19552143Y-13378000D02*
X19504524Y-13520857D01*
X19504524Y-13520857D02*
X19628334Y-13520857D01*
X19856905Y-13587524D02*
X19856905Y-13387524D01*
X19942619Y-13587524D02*
X19942619Y-13482762D01*
X19942619Y-13482762D02*
X19933096Y-13463714D01*
X19933096Y-13463714D02*
X19914048Y-13454190D01*
X19914048Y-13454190D02*
X19885477Y-13454190D01*
X19885477Y-13454190D02*
X19866429Y-13463714D01*
X19866429Y-13463714D02*
X19856905Y-13473238D01*
X20066429Y-13587524D02*
X20047381Y-13578000D01*
X20047381Y-13578000D02*
X20037858Y-13568476D01*
X20037858Y-13568476D02*
X20028334Y-13549428D01*
X20028334Y-13549428D02*
X20028334Y-13492286D01*
X20028334Y-13492286D02*
X20037858Y-13473238D01*
X20037858Y-13473238D02*
X20047381Y-13463714D01*
X20047381Y-13463714D02*
X20066429Y-13454190D01*
X20066429Y-13454190D02*
X20095000Y-13454190D01*
X20095000Y-13454190D02*
X20114048Y-13463714D01*
X20114048Y-13463714D02*
X20123572Y-13473238D01*
X20123572Y-13473238D02*
X20133096Y-13492286D01*
X20133096Y-13492286D02*
X20133096Y-13549428D01*
X20133096Y-13549428D02*
X20123572Y-13568476D01*
X20123572Y-13568476D02*
X20114048Y-13578000D01*
X20114048Y-13578000D02*
X20095000Y-13587524D01*
X20095000Y-13587524D02*
X20066429Y-13587524D01*
X20247381Y-13587524D02*
X20228334Y-13578000D01*
X20228334Y-13578000D02*
X20218810Y-13558952D01*
X20218810Y-13558952D02*
X20218810Y-13387524D01*
X20399762Y-13578000D02*
X20380715Y-13587524D01*
X20380715Y-13587524D02*
X20342619Y-13587524D01*
X20342619Y-13587524D02*
X20323572Y-13578000D01*
X20323572Y-13578000D02*
X20314048Y-13558952D01*
X20314048Y-13558952D02*
X20314048Y-13482762D01*
X20314048Y-13482762D02*
X20323572Y-13463714D01*
X20323572Y-13463714D02*
X20342619Y-13454190D01*
X20342619Y-13454190D02*
X20380715Y-13454190D01*
X20380715Y-13454190D02*
X20399762Y-13463714D01*
X20399762Y-13463714D02*
X20409286Y-13482762D01*
X20409286Y-13482762D02*
X20409286Y-13501809D01*
X20409286Y-13501809D02*
X20314048Y-13520857D01*
X20485477Y-13578000D02*
X20504524Y-13587524D01*
X20504524Y-13587524D02*
X20542619Y-13587524D01*
X20542619Y-13587524D02*
X20561667Y-13578000D01*
X20561667Y-13578000D02*
X20571191Y-13558952D01*
X20571191Y-13558952D02*
X20571191Y-13549428D01*
X20571191Y-13549428D02*
X20561667Y-13530381D01*
X20561667Y-13530381D02*
X20542619Y-13520857D01*
X20542619Y-13520857D02*
X20514048Y-13520857D01*
X20514048Y-13520857D02*
X20495000Y-13511333D01*
X20495000Y-13511333D02*
X20485477Y-13492286D01*
X20485477Y-13492286D02*
X20485477Y-13482762D01*
X20485477Y-13482762D02*
X20495000Y-13463714D01*
X20495000Y-13463714D02*
X20514048Y-13454190D01*
X20514048Y-13454190D02*
X20542619Y-13454190D01*
X20542619Y-13454190D02*
X20561667Y-13463714D01*
X20637858Y-13663714D02*
X20647381Y-13654190D01*
X20647381Y-13654190D02*
X20666429Y-13625619D01*
X20666429Y-13625619D02*
X20675953Y-13606571D01*
X20675953Y-13606571D02*
X20685477Y-13578000D01*
X20685477Y-13578000D02*
X20695000Y-13530381D01*
X20695000Y-13530381D02*
X20695000Y-13492286D01*
X20695000Y-13492286D02*
X20685477Y-13444667D01*
X20685477Y-13444667D02*
X20675953Y-13416095D01*
X20675953Y-13416095D02*
X20666429Y-13397048D01*
X20666429Y-13397048D02*
X20647381Y-13368476D01*
X20647381Y-13368476D02*
X20637858Y-13358952D01*
D10*
X15495000Y-13759000D02*
G75*
G03*
X15495000Y-13759000I-50000J0D01*
G01*
D11*
X15847381Y-13851524D02*
X15733095Y-13851524D01*
X15790238Y-13851524D02*
X15790238Y-13651524D01*
X15790238Y-13651524D02*
X15771190Y-13680095D01*
X15771190Y-13680095D02*
X15752143Y-13699143D01*
X15752143Y-13699143D02*
X15733095Y-13708667D01*
X15933095Y-13832476D02*
X15942619Y-13842000D01*
X15942619Y-13842000D02*
X15933095Y-13851524D01*
X15933095Y-13851524D02*
X15923571Y-13842000D01*
X15923571Y-13842000D02*
X15933095Y-13832476D01*
X15933095Y-13832476D02*
X15933095Y-13851524D01*
X16066428Y-13651524D02*
X16085476Y-13651524D01*
X16085476Y-13651524D02*
X16104524Y-13661048D01*
X16104524Y-13661048D02*
X16114048Y-13670571D01*
X16114048Y-13670571D02*
X16123571Y-13689619D01*
X16123571Y-13689619D02*
X16133095Y-13727714D01*
X16133095Y-13727714D02*
X16133095Y-13775333D01*
X16133095Y-13775333D02*
X16123571Y-13813428D01*
X16123571Y-13813428D02*
X16114048Y-13832476D01*
X16114048Y-13832476D02*
X16104524Y-13842000D01*
X16104524Y-13842000D02*
X16085476Y-13851524D01*
X16085476Y-13851524D02*
X16066428Y-13851524D01*
X16066428Y-13851524D02*
X16047381Y-13842000D01*
X16047381Y-13842000D02*
X16037857Y-13832476D01*
X16037857Y-13832476D02*
X16028333Y-13813428D01*
X16028333Y-13813428D02*
X16018809Y-13775333D01*
X16018809Y-13775333D02*
X16018809Y-13727714D01*
X16018809Y-13727714D02*
X16028333Y-13689619D01*
X16028333Y-13689619D02*
X16037857Y-13670571D01*
X16037857Y-13670571D02*
X16047381Y-13661048D01*
X16047381Y-13661048D02*
X16066428Y-13651524D01*
X16256905Y-13651524D02*
X16275952Y-13651524D01*
X16275952Y-13651524D02*
X16295000Y-13661048D01*
X16295000Y-13661048D02*
X16304524Y-13670571D01*
X16304524Y-13670571D02*
X16314048Y-13689619D01*
X16314048Y-13689619D02*
X16323571Y-13727714D01*
X16323571Y-13727714D02*
X16323571Y-13775333D01*
X16323571Y-13775333D02*
X16314048Y-13813428D01*
X16314048Y-13813428D02*
X16304524Y-13832476D01*
X16304524Y-13832476D02*
X16295000Y-13842000D01*
X16295000Y-13842000D02*
X16275952Y-13851524D01*
X16275952Y-13851524D02*
X16256905Y-13851524D01*
X16256905Y-13851524D02*
X16237857Y-13842000D01*
X16237857Y-13842000D02*
X16228333Y-13832476D01*
X16228333Y-13832476D02*
X16218809Y-13813428D01*
X16218809Y-13813428D02*
X16209286Y-13775333D01*
X16209286Y-13775333D02*
X16209286Y-13727714D01*
X16209286Y-13727714D02*
X16218809Y-13689619D01*
X16218809Y-13689619D02*
X16228333Y-13670571D01*
X16228333Y-13670571D02*
X16237857Y-13661048D01*
X16237857Y-13661048D02*
X16256905Y-13651524D01*
X16447381Y-13651524D02*
X16466429Y-13651524D01*
X16466429Y-13651524D02*
X16485476Y-13661048D01*
X16485476Y-13661048D02*
X16495000Y-13670571D01*
X16495000Y-13670571D02*
X16504524Y-13689619D01*
X16504524Y-13689619D02*
X16514048Y-13727714D01*
X16514048Y-13727714D02*
X16514048Y-13775333D01*
X16514048Y-13775333D02*
X16504524Y-13813428D01*
X16504524Y-13813428D02*
X16495000Y-13832476D01*
X16495000Y-13832476D02*
X16485476Y-13842000D01*
X16485476Y-13842000D02*
X16466429Y-13851524D01*
X16466429Y-13851524D02*
X16447381Y-13851524D01*
X16447381Y-13851524D02*
X16428333Y-13842000D01*
X16428333Y-13842000D02*
X16418809Y-13832476D01*
X16418809Y-13832476D02*
X16409286Y-13813428D01*
X16409286Y-13813428D02*
X16399762Y-13775333D01*
X16399762Y-13775333D02*
X16399762Y-13727714D01*
X16399762Y-13727714D02*
X16409286Y-13689619D01*
X16409286Y-13689619D02*
X16418809Y-13670571D01*
X16418809Y-13670571D02*
X16428333Y-13661048D01*
X16428333Y-13661048D02*
X16447381Y-13651524D01*
X16599762Y-13851524D02*
X16599762Y-13718190D01*
X16599762Y-13737238D02*
X16609286Y-13727714D01*
X16609286Y-13727714D02*
X16628333Y-13718190D01*
X16628333Y-13718190D02*
X16656905Y-13718190D01*
X16656905Y-13718190D02*
X16675952Y-13727714D01*
X16675952Y-13727714D02*
X16685476Y-13746762D01*
X16685476Y-13746762D02*
X16685476Y-13851524D01*
X16685476Y-13746762D02*
X16695000Y-13727714D01*
X16695000Y-13727714D02*
X16714048Y-13718190D01*
X16714048Y-13718190D02*
X16742619Y-13718190D01*
X16742619Y-13718190D02*
X16761667Y-13727714D01*
X16761667Y-13727714D02*
X16771190Y-13746762D01*
X16771190Y-13746762D02*
X16771190Y-13851524D01*
X16866429Y-13851524D02*
X16866429Y-13718190D01*
X16866429Y-13737238D02*
X16875952Y-13727714D01*
X16875952Y-13727714D02*
X16895000Y-13718190D01*
X16895000Y-13718190D02*
X16923572Y-13718190D01*
X16923572Y-13718190D02*
X16942619Y-13727714D01*
X16942619Y-13727714D02*
X16952143Y-13746762D01*
X16952143Y-13746762D02*
X16952143Y-13851524D01*
X16952143Y-13746762D02*
X16961667Y-13727714D01*
X16961667Y-13727714D02*
X16980714Y-13718190D01*
X16980714Y-13718190D02*
X17009286Y-13718190D01*
X17009286Y-13718190D02*
X17028333Y-13727714D01*
X17028333Y-13727714D02*
X17037857Y-13746762D01*
X17037857Y-13746762D02*
X17037857Y-13851524D01*
X17428333Y-13642000D02*
X17256905Y-13899143D01*
X17685476Y-13651524D02*
X17704524Y-13651524D01*
X17704524Y-13651524D02*
X17723572Y-13661048D01*
X17723572Y-13661048D02*
X17733095Y-13670571D01*
X17733095Y-13670571D02*
X17742619Y-13689619D01*
X17742619Y-13689619D02*
X17752143Y-13727714D01*
X17752143Y-13727714D02*
X17752143Y-13775333D01*
X17752143Y-13775333D02*
X17742619Y-13813428D01*
X17742619Y-13813428D02*
X17733095Y-13832476D01*
X17733095Y-13832476D02*
X17723572Y-13842000D01*
X17723572Y-13842000D02*
X17704524Y-13851524D01*
X17704524Y-13851524D02*
X17685476Y-13851524D01*
X17685476Y-13851524D02*
X17666429Y-13842000D01*
X17666429Y-13842000D02*
X17656905Y-13832476D01*
X17656905Y-13832476D02*
X17647381Y-13813428D01*
X17647381Y-13813428D02*
X17637857Y-13775333D01*
X17637857Y-13775333D02*
X17637857Y-13727714D01*
X17637857Y-13727714D02*
X17647381Y-13689619D01*
X17647381Y-13689619D02*
X17656905Y-13670571D01*
X17656905Y-13670571D02*
X17666429Y-13661048D01*
X17666429Y-13661048D02*
X17685476Y-13651524D01*
X17837857Y-13832476D02*
X17847381Y-13842000D01*
X17847381Y-13842000D02*
X17837857Y-13851524D01*
X17837857Y-13851524D02*
X17828334Y-13842000D01*
X17828334Y-13842000D02*
X17837857Y-13832476D01*
X17837857Y-13832476D02*
X17837857Y-13851524D01*
X17971191Y-13651524D02*
X17990238Y-13651524D01*
X17990238Y-13651524D02*
X18009286Y-13661048D01*
X18009286Y-13661048D02*
X18018810Y-13670571D01*
X18018810Y-13670571D02*
X18028334Y-13689619D01*
X18028334Y-13689619D02*
X18037857Y-13727714D01*
X18037857Y-13727714D02*
X18037857Y-13775333D01*
X18037857Y-13775333D02*
X18028334Y-13813428D01*
X18028334Y-13813428D02*
X18018810Y-13832476D01*
X18018810Y-13832476D02*
X18009286Y-13842000D01*
X18009286Y-13842000D02*
X17990238Y-13851524D01*
X17990238Y-13851524D02*
X17971191Y-13851524D01*
X17971191Y-13851524D02*
X17952143Y-13842000D01*
X17952143Y-13842000D02*
X17942619Y-13832476D01*
X17942619Y-13832476D02*
X17933095Y-13813428D01*
X17933095Y-13813428D02*
X17923572Y-13775333D01*
X17923572Y-13775333D02*
X17923572Y-13727714D01*
X17923572Y-13727714D02*
X17933095Y-13689619D01*
X17933095Y-13689619D02*
X17942619Y-13670571D01*
X17942619Y-13670571D02*
X17952143Y-13661048D01*
X17952143Y-13661048D02*
X17971191Y-13651524D01*
X18104524Y-13651524D02*
X18228334Y-13651524D01*
X18228334Y-13651524D02*
X18161667Y-13727714D01*
X18161667Y-13727714D02*
X18190238Y-13727714D01*
X18190238Y-13727714D02*
X18209286Y-13737238D01*
X18209286Y-13737238D02*
X18218810Y-13746762D01*
X18218810Y-13746762D02*
X18228334Y-13765809D01*
X18228334Y-13765809D02*
X18228334Y-13813428D01*
X18228334Y-13813428D02*
X18218810Y-13832476D01*
X18218810Y-13832476D02*
X18209286Y-13842000D01*
X18209286Y-13842000D02*
X18190238Y-13851524D01*
X18190238Y-13851524D02*
X18133095Y-13851524D01*
X18133095Y-13851524D02*
X18114048Y-13842000D01*
X18114048Y-13842000D02*
X18104524Y-13832476D01*
X18323572Y-13851524D02*
X18361667Y-13851524D01*
X18361667Y-13851524D02*
X18380715Y-13842000D01*
X18380715Y-13842000D02*
X18390238Y-13832476D01*
X18390238Y-13832476D02*
X18409286Y-13803905D01*
X18409286Y-13803905D02*
X18418810Y-13765809D01*
X18418810Y-13765809D02*
X18418810Y-13689619D01*
X18418810Y-13689619D02*
X18409286Y-13670571D01*
X18409286Y-13670571D02*
X18399762Y-13661048D01*
X18399762Y-13661048D02*
X18380715Y-13651524D01*
X18380715Y-13651524D02*
X18342619Y-13651524D01*
X18342619Y-13651524D02*
X18323572Y-13661048D01*
X18323572Y-13661048D02*
X18314048Y-13670571D01*
X18314048Y-13670571D02*
X18304524Y-13689619D01*
X18304524Y-13689619D02*
X18304524Y-13737238D01*
X18304524Y-13737238D02*
X18314048Y-13756286D01*
X18314048Y-13756286D02*
X18323572Y-13765809D01*
X18323572Y-13765809D02*
X18342619Y-13775333D01*
X18342619Y-13775333D02*
X18380715Y-13775333D01*
X18380715Y-13775333D02*
X18399762Y-13765809D01*
X18399762Y-13765809D02*
X18409286Y-13756286D01*
X18409286Y-13756286D02*
X18418810Y-13737238D01*
X18590238Y-13718190D02*
X18590238Y-13851524D01*
X18542619Y-13642000D02*
X18495000Y-13784857D01*
X18495000Y-13784857D02*
X18618810Y-13784857D01*
X18685476Y-13651524D02*
X18685476Y-13689619D01*
X18761667Y-13651524D02*
X18761667Y-13689619D01*
X19056905Y-13927714D02*
X19047381Y-13918190D01*
X19047381Y-13918190D02*
X19028334Y-13889619D01*
X19028334Y-13889619D02*
X19018810Y-13870571D01*
X19018810Y-13870571D02*
X19009286Y-13842000D01*
X19009286Y-13842000D02*
X18999762Y-13794381D01*
X18999762Y-13794381D02*
X18999762Y-13756286D01*
X18999762Y-13756286D02*
X19009286Y-13708667D01*
X19009286Y-13708667D02*
X19018810Y-13680095D01*
X19018810Y-13680095D02*
X19028334Y-13661048D01*
X19028334Y-13661048D02*
X19047381Y-13632476D01*
X19047381Y-13632476D02*
X19056905Y-13622952D01*
X19218810Y-13718190D02*
X19218810Y-13851524D01*
X19171191Y-13642000D02*
X19123572Y-13784857D01*
X19123572Y-13784857D02*
X19247381Y-13784857D01*
X19409286Y-13718190D02*
X19409286Y-13851524D01*
X19361667Y-13642000D02*
X19314048Y-13784857D01*
X19314048Y-13784857D02*
X19437857Y-13784857D01*
X19666429Y-13851524D02*
X19666429Y-13651524D01*
X19752143Y-13851524D02*
X19752143Y-13746762D01*
X19752143Y-13746762D02*
X19742619Y-13727714D01*
X19742619Y-13727714D02*
X19723572Y-13718190D01*
X19723572Y-13718190D02*
X19695000Y-13718190D01*
X19695000Y-13718190D02*
X19675953Y-13727714D01*
X19675953Y-13727714D02*
X19666429Y-13737238D01*
X19875953Y-13851524D02*
X19856905Y-13842000D01*
X19856905Y-13842000D02*
X19847381Y-13832476D01*
X19847381Y-13832476D02*
X19837858Y-13813428D01*
X19837858Y-13813428D02*
X19837858Y-13756286D01*
X19837858Y-13756286D02*
X19847381Y-13737238D01*
X19847381Y-13737238D02*
X19856905Y-13727714D01*
X19856905Y-13727714D02*
X19875953Y-13718190D01*
X19875953Y-13718190D02*
X19904524Y-13718190D01*
X19904524Y-13718190D02*
X19923572Y-13727714D01*
X19923572Y-13727714D02*
X19933096Y-13737238D01*
X19933096Y-13737238D02*
X19942619Y-13756286D01*
X19942619Y-13756286D02*
X19942619Y-13813428D01*
X19942619Y-13813428D02*
X19933096Y-13832476D01*
X19933096Y-13832476D02*
X19923572Y-13842000D01*
X19923572Y-13842000D02*
X19904524Y-13851524D01*
X19904524Y-13851524D02*
X19875953Y-13851524D01*
X20056905Y-13851524D02*
X20037858Y-13842000D01*
X20037858Y-13842000D02*
X20028334Y-13822952D01*
X20028334Y-13822952D02*
X20028334Y-13651524D01*
X20209286Y-13842000D02*
X20190239Y-13851524D01*
X20190239Y-13851524D02*
X20152143Y-13851524D01*
X20152143Y-13851524D02*
X20133096Y-13842000D01*
X20133096Y-13842000D02*
X20123572Y-13822952D01*
X20123572Y-13822952D02*
X20123572Y-13746762D01*
X20123572Y-13746762D02*
X20133096Y-13727714D01*
X20133096Y-13727714D02*
X20152143Y-13718190D01*
X20152143Y-13718190D02*
X20190239Y-13718190D01*
X20190239Y-13718190D02*
X20209286Y-13727714D01*
X20209286Y-13727714D02*
X20218810Y-13746762D01*
X20218810Y-13746762D02*
X20218810Y-13765809D01*
X20218810Y-13765809D02*
X20123572Y-13784857D01*
X20295000Y-13842000D02*
X20314048Y-13851524D01*
X20314048Y-13851524D02*
X20352143Y-13851524D01*
X20352143Y-13851524D02*
X20371191Y-13842000D01*
X20371191Y-13842000D02*
X20380715Y-13822952D01*
X20380715Y-13822952D02*
X20380715Y-13813428D01*
X20380715Y-13813428D02*
X20371191Y-13794381D01*
X20371191Y-13794381D02*
X20352143Y-13784857D01*
X20352143Y-13784857D02*
X20323572Y-13784857D01*
X20323572Y-13784857D02*
X20304524Y-13775333D01*
X20304524Y-13775333D02*
X20295000Y-13756286D01*
X20295000Y-13756286D02*
X20295000Y-13746762D01*
X20295000Y-13746762D02*
X20304524Y-13727714D01*
X20304524Y-13727714D02*
X20323572Y-13718190D01*
X20323572Y-13718190D02*
X20352143Y-13718190D01*
X20352143Y-13718190D02*
X20371191Y-13727714D01*
X20447381Y-13927714D02*
X20456905Y-13918190D01*
X20456905Y-13918190D02*
X20475953Y-13889619D01*
X20475953Y-13889619D02*
X20485477Y-13870571D01*
X20485477Y-13870571D02*
X20495000Y-13842000D01*
X20495000Y-13842000D02*
X20504524Y-13794381D01*
X20504524Y-13794381D02*
X20504524Y-13756286D01*
X20504524Y-13756286D02*
X20495000Y-13708667D01*
X20495000Y-13708667D02*
X20485477Y-13680095D01*
X20485477Y-13680095D02*
X20475953Y-13661048D01*
X20475953Y-13661048D02*
X20456905Y-13632476D01*
X20456905Y-13632476D02*
X20447381Y-13622952D01*
D13*
X15430000Y-13958000D02*
X15430000Y-14088000D01*
X15365000Y-14023000D02*
X15495000Y-14023000D01*
D11*
X15847381Y-14115524D02*
X15733095Y-14115524D01*
X15790238Y-14115524D02*
X15790238Y-13915524D01*
X15790238Y-13915524D02*
X15771190Y-13944095D01*
X15771190Y-13944095D02*
X15752143Y-13963143D01*
X15752143Y-13963143D02*
X15733095Y-13972667D01*
X15933095Y-14096476D02*
X15942619Y-14106000D01*
X15942619Y-14106000D02*
X15933095Y-14115524D01*
X15933095Y-14115524D02*
X15923571Y-14106000D01*
X15923571Y-14106000D02*
X15933095Y-14096476D01*
X15933095Y-14096476D02*
X15933095Y-14115524D01*
X16009286Y-13915524D02*
X16133095Y-13915524D01*
X16133095Y-13915524D02*
X16066428Y-13991714D01*
X16066428Y-13991714D02*
X16095000Y-13991714D01*
X16095000Y-13991714D02*
X16114048Y-14001238D01*
X16114048Y-14001238D02*
X16123571Y-14010762D01*
X16123571Y-14010762D02*
X16133095Y-14029809D01*
X16133095Y-14029809D02*
X16133095Y-14077428D01*
X16133095Y-14077428D02*
X16123571Y-14096476D01*
X16123571Y-14096476D02*
X16114048Y-14106000D01*
X16114048Y-14106000D02*
X16095000Y-14115524D01*
X16095000Y-14115524D02*
X16037857Y-14115524D01*
X16037857Y-14115524D02*
X16018809Y-14106000D01*
X16018809Y-14106000D02*
X16009286Y-14096476D01*
X16256905Y-13915524D02*
X16275952Y-13915524D01*
X16275952Y-13915524D02*
X16295000Y-13925048D01*
X16295000Y-13925048D02*
X16304524Y-13934571D01*
X16304524Y-13934571D02*
X16314048Y-13953619D01*
X16314048Y-13953619D02*
X16323571Y-13991714D01*
X16323571Y-13991714D02*
X16323571Y-14039333D01*
X16323571Y-14039333D02*
X16314048Y-14077428D01*
X16314048Y-14077428D02*
X16304524Y-14096476D01*
X16304524Y-14096476D02*
X16295000Y-14106000D01*
X16295000Y-14106000D02*
X16275952Y-14115524D01*
X16275952Y-14115524D02*
X16256905Y-14115524D01*
X16256905Y-14115524D02*
X16237857Y-14106000D01*
X16237857Y-14106000D02*
X16228333Y-14096476D01*
X16228333Y-14096476D02*
X16218809Y-14077428D01*
X16218809Y-14077428D02*
X16209286Y-14039333D01*
X16209286Y-14039333D02*
X16209286Y-13991714D01*
X16209286Y-13991714D02*
X16218809Y-13953619D01*
X16218809Y-13953619D02*
X16228333Y-13934571D01*
X16228333Y-13934571D02*
X16237857Y-13925048D01*
X16237857Y-13925048D02*
X16256905Y-13915524D01*
X16447381Y-13915524D02*
X16466429Y-13915524D01*
X16466429Y-13915524D02*
X16485476Y-13925048D01*
X16485476Y-13925048D02*
X16495000Y-13934571D01*
X16495000Y-13934571D02*
X16504524Y-13953619D01*
X16504524Y-13953619D02*
X16514048Y-13991714D01*
X16514048Y-13991714D02*
X16514048Y-14039333D01*
X16514048Y-14039333D02*
X16504524Y-14077428D01*
X16504524Y-14077428D02*
X16495000Y-14096476D01*
X16495000Y-14096476D02*
X16485476Y-14106000D01*
X16485476Y-14106000D02*
X16466429Y-14115524D01*
X16466429Y-14115524D02*
X16447381Y-14115524D01*
X16447381Y-14115524D02*
X16428333Y-14106000D01*
X16428333Y-14106000D02*
X16418809Y-14096476D01*
X16418809Y-14096476D02*
X16409286Y-14077428D01*
X16409286Y-14077428D02*
X16399762Y-14039333D01*
X16399762Y-14039333D02*
X16399762Y-13991714D01*
X16399762Y-13991714D02*
X16409286Y-13953619D01*
X16409286Y-13953619D02*
X16418809Y-13934571D01*
X16418809Y-13934571D02*
X16428333Y-13925048D01*
X16428333Y-13925048D02*
X16447381Y-13915524D01*
X16599762Y-14115524D02*
X16599762Y-13982190D01*
X16599762Y-14001238D02*
X16609286Y-13991714D01*
X16609286Y-13991714D02*
X16628333Y-13982190D01*
X16628333Y-13982190D02*
X16656905Y-13982190D01*
X16656905Y-13982190D02*
X16675952Y-13991714D01*
X16675952Y-13991714D02*
X16685476Y-14010762D01*
X16685476Y-14010762D02*
X16685476Y-14115524D01*
X16685476Y-14010762D02*
X16695000Y-13991714D01*
X16695000Y-13991714D02*
X16714048Y-13982190D01*
X16714048Y-13982190D02*
X16742619Y-13982190D01*
X16742619Y-13982190D02*
X16761667Y-13991714D01*
X16761667Y-13991714D02*
X16771190Y-14010762D01*
X16771190Y-14010762D02*
X16771190Y-14115524D01*
X16866429Y-14115524D02*
X16866429Y-13982190D01*
X16866429Y-14001238D02*
X16875952Y-13991714D01*
X16875952Y-13991714D02*
X16895000Y-13982190D01*
X16895000Y-13982190D02*
X16923572Y-13982190D01*
X16923572Y-13982190D02*
X16942619Y-13991714D01*
X16942619Y-13991714D02*
X16952143Y-14010762D01*
X16952143Y-14010762D02*
X16952143Y-14115524D01*
X16952143Y-14010762D02*
X16961667Y-13991714D01*
X16961667Y-13991714D02*
X16980714Y-13982190D01*
X16980714Y-13982190D02*
X17009286Y-13982190D01*
X17009286Y-13982190D02*
X17028333Y-13991714D01*
X17028333Y-13991714D02*
X17037857Y-14010762D01*
X17037857Y-14010762D02*
X17037857Y-14115524D01*
X17428333Y-13906000D02*
X17256905Y-14163143D01*
X17685476Y-13915524D02*
X17704524Y-13915524D01*
X17704524Y-13915524D02*
X17723572Y-13925048D01*
X17723572Y-13925048D02*
X17733095Y-13934571D01*
X17733095Y-13934571D02*
X17742619Y-13953619D01*
X17742619Y-13953619D02*
X17752143Y-13991714D01*
X17752143Y-13991714D02*
X17752143Y-14039333D01*
X17752143Y-14039333D02*
X17742619Y-14077428D01*
X17742619Y-14077428D02*
X17733095Y-14096476D01*
X17733095Y-14096476D02*
X17723572Y-14106000D01*
X17723572Y-14106000D02*
X17704524Y-14115524D01*
X17704524Y-14115524D02*
X17685476Y-14115524D01*
X17685476Y-14115524D02*
X17666429Y-14106000D01*
X17666429Y-14106000D02*
X17656905Y-14096476D01*
X17656905Y-14096476D02*
X17647381Y-14077428D01*
X17647381Y-14077428D02*
X17637857Y-14039333D01*
X17637857Y-14039333D02*
X17637857Y-13991714D01*
X17637857Y-13991714D02*
X17647381Y-13953619D01*
X17647381Y-13953619D02*
X17656905Y-13934571D01*
X17656905Y-13934571D02*
X17666429Y-13925048D01*
X17666429Y-13925048D02*
X17685476Y-13915524D01*
X17837857Y-14096476D02*
X17847381Y-14106000D01*
X17847381Y-14106000D02*
X17837857Y-14115524D01*
X17837857Y-14115524D02*
X17828334Y-14106000D01*
X17828334Y-14106000D02*
X17837857Y-14096476D01*
X17837857Y-14096476D02*
X17837857Y-14115524D01*
X17971191Y-13915524D02*
X17990238Y-13915524D01*
X17990238Y-13915524D02*
X18009286Y-13925048D01*
X18009286Y-13925048D02*
X18018810Y-13934571D01*
X18018810Y-13934571D02*
X18028334Y-13953619D01*
X18028334Y-13953619D02*
X18037857Y-13991714D01*
X18037857Y-13991714D02*
X18037857Y-14039333D01*
X18037857Y-14039333D02*
X18028334Y-14077428D01*
X18028334Y-14077428D02*
X18018810Y-14096476D01*
X18018810Y-14096476D02*
X18009286Y-14106000D01*
X18009286Y-14106000D02*
X17990238Y-14115524D01*
X17990238Y-14115524D02*
X17971191Y-14115524D01*
X17971191Y-14115524D02*
X17952143Y-14106000D01*
X17952143Y-14106000D02*
X17942619Y-14096476D01*
X17942619Y-14096476D02*
X17933095Y-14077428D01*
X17933095Y-14077428D02*
X17923572Y-14039333D01*
X17923572Y-14039333D02*
X17923572Y-13991714D01*
X17923572Y-13991714D02*
X17933095Y-13953619D01*
X17933095Y-13953619D02*
X17942619Y-13934571D01*
X17942619Y-13934571D02*
X17952143Y-13925048D01*
X17952143Y-13925048D02*
X17971191Y-13915524D01*
X18218810Y-13915524D02*
X18123572Y-13915524D01*
X18123572Y-13915524D02*
X18114048Y-14010762D01*
X18114048Y-14010762D02*
X18123572Y-14001238D01*
X18123572Y-14001238D02*
X18142619Y-13991714D01*
X18142619Y-13991714D02*
X18190238Y-13991714D01*
X18190238Y-13991714D02*
X18209286Y-14001238D01*
X18209286Y-14001238D02*
X18218810Y-14010762D01*
X18218810Y-14010762D02*
X18228334Y-14029809D01*
X18228334Y-14029809D02*
X18228334Y-14077428D01*
X18228334Y-14077428D02*
X18218810Y-14096476D01*
X18218810Y-14096476D02*
X18209286Y-14106000D01*
X18209286Y-14106000D02*
X18190238Y-14115524D01*
X18190238Y-14115524D02*
X18142619Y-14115524D01*
X18142619Y-14115524D02*
X18123572Y-14106000D01*
X18123572Y-14106000D02*
X18114048Y-14096476D01*
X18418810Y-14115524D02*
X18304524Y-14115524D01*
X18361667Y-14115524D02*
X18361667Y-13915524D01*
X18361667Y-13915524D02*
X18342619Y-13944095D01*
X18342619Y-13944095D02*
X18323572Y-13963143D01*
X18323572Y-13963143D02*
X18304524Y-13972667D01*
X18495000Y-13934571D02*
X18504524Y-13925048D01*
X18504524Y-13925048D02*
X18523572Y-13915524D01*
X18523572Y-13915524D02*
X18571191Y-13915524D01*
X18571191Y-13915524D02*
X18590238Y-13925048D01*
X18590238Y-13925048D02*
X18599762Y-13934571D01*
X18599762Y-13934571D02*
X18609286Y-13953619D01*
X18609286Y-13953619D02*
X18609286Y-13972667D01*
X18609286Y-13972667D02*
X18599762Y-14001238D01*
X18599762Y-14001238D02*
X18485476Y-14115524D01*
X18485476Y-14115524D02*
X18609286Y-14115524D01*
X18685476Y-13915524D02*
X18685476Y-13953619D01*
X18761667Y-13915524D02*
X18761667Y-13953619D01*
X19056905Y-14191714D02*
X19047381Y-14182190D01*
X19047381Y-14182190D02*
X19028334Y-14153619D01*
X19028334Y-14153619D02*
X19018810Y-14134571D01*
X19018810Y-14134571D02*
X19009286Y-14106000D01*
X19009286Y-14106000D02*
X18999762Y-14058381D01*
X18999762Y-14058381D02*
X18999762Y-14020286D01*
X18999762Y-14020286D02*
X19009286Y-13972667D01*
X19009286Y-13972667D02*
X19018810Y-13944095D01*
X19018810Y-13944095D02*
X19028334Y-13925048D01*
X19028334Y-13925048D02*
X19047381Y-13896476D01*
X19047381Y-13896476D02*
X19056905Y-13886952D01*
X19123572Y-13934571D02*
X19133096Y-13925048D01*
X19133096Y-13925048D02*
X19152143Y-13915524D01*
X19152143Y-13915524D02*
X19199762Y-13915524D01*
X19199762Y-13915524D02*
X19218810Y-13925048D01*
X19218810Y-13925048D02*
X19228334Y-13934571D01*
X19228334Y-13934571D02*
X19237857Y-13953619D01*
X19237857Y-13953619D02*
X19237857Y-13972667D01*
X19237857Y-13972667D02*
X19228334Y-14001238D01*
X19228334Y-14001238D02*
X19114048Y-14115524D01*
X19114048Y-14115524D02*
X19237857Y-14115524D01*
X19475953Y-14115524D02*
X19475953Y-13915524D01*
X19561667Y-14115524D02*
X19561667Y-14010762D01*
X19561667Y-14010762D02*
X19552143Y-13991714D01*
X19552143Y-13991714D02*
X19533096Y-13982190D01*
X19533096Y-13982190D02*
X19504524Y-13982190D01*
X19504524Y-13982190D02*
X19485477Y-13991714D01*
X19485477Y-13991714D02*
X19475953Y-14001238D01*
X19685477Y-14115524D02*
X19666429Y-14106000D01*
X19666429Y-14106000D02*
X19656905Y-14096476D01*
X19656905Y-14096476D02*
X19647381Y-14077428D01*
X19647381Y-14077428D02*
X19647381Y-14020286D01*
X19647381Y-14020286D02*
X19656905Y-14001238D01*
X19656905Y-14001238D02*
X19666429Y-13991714D01*
X19666429Y-13991714D02*
X19685477Y-13982190D01*
X19685477Y-13982190D02*
X19714048Y-13982190D01*
X19714048Y-13982190D02*
X19733096Y-13991714D01*
X19733096Y-13991714D02*
X19742619Y-14001238D01*
X19742619Y-14001238D02*
X19752143Y-14020286D01*
X19752143Y-14020286D02*
X19752143Y-14077428D01*
X19752143Y-14077428D02*
X19742619Y-14096476D01*
X19742619Y-14096476D02*
X19733096Y-14106000D01*
X19733096Y-14106000D02*
X19714048Y-14115524D01*
X19714048Y-14115524D02*
X19685477Y-14115524D01*
X19866429Y-14115524D02*
X19847381Y-14106000D01*
X19847381Y-14106000D02*
X19837858Y-14086952D01*
X19837858Y-14086952D02*
X19837858Y-13915524D01*
X20018810Y-14106000D02*
X19999762Y-14115524D01*
X19999762Y-14115524D02*
X19961667Y-14115524D01*
X19961667Y-14115524D02*
X19942619Y-14106000D01*
X19942619Y-14106000D02*
X19933096Y-14086952D01*
X19933096Y-14086952D02*
X19933096Y-14010762D01*
X19933096Y-14010762D02*
X19942619Y-13991714D01*
X19942619Y-13991714D02*
X19961667Y-13982190D01*
X19961667Y-13982190D02*
X19999762Y-13982190D01*
X19999762Y-13982190D02*
X20018810Y-13991714D01*
X20018810Y-13991714D02*
X20028334Y-14010762D01*
X20028334Y-14010762D02*
X20028334Y-14029809D01*
X20028334Y-14029809D02*
X19933096Y-14048857D01*
X20104524Y-14106000D02*
X20123572Y-14115524D01*
X20123572Y-14115524D02*
X20161667Y-14115524D01*
X20161667Y-14115524D02*
X20180715Y-14106000D01*
X20180715Y-14106000D02*
X20190239Y-14086952D01*
X20190239Y-14086952D02*
X20190239Y-14077428D01*
X20190239Y-14077428D02*
X20180715Y-14058381D01*
X20180715Y-14058381D02*
X20161667Y-14048857D01*
X20161667Y-14048857D02*
X20133096Y-14048857D01*
X20133096Y-14048857D02*
X20114048Y-14039333D01*
X20114048Y-14039333D02*
X20104524Y-14020286D01*
X20104524Y-14020286D02*
X20104524Y-14010762D01*
X20104524Y-14010762D02*
X20114048Y-13991714D01*
X20114048Y-13991714D02*
X20133096Y-13982190D01*
X20133096Y-13982190D02*
X20161667Y-13982190D01*
X20161667Y-13982190D02*
X20180715Y-13991714D01*
X20256905Y-14191714D02*
X20266429Y-14182190D01*
X20266429Y-14182190D02*
X20285477Y-14153619D01*
X20285477Y-14153619D02*
X20295000Y-14134571D01*
X20295000Y-14134571D02*
X20304524Y-14106000D01*
X20304524Y-14106000D02*
X20314048Y-14058381D01*
X20314048Y-14058381D02*
X20314048Y-14020286D01*
X20314048Y-14020286D02*
X20304524Y-13972667D01*
X20304524Y-13972667D02*
X20295000Y-13944095D01*
X20295000Y-13944095D02*
X20285477Y-13925048D01*
X20285477Y-13925048D02*
X20266429Y-13896476D01*
X20266429Y-13896476D02*
X20256905Y-13886952D01*
M02*
