%TF.GenerationSoftware,KiCad,Pcbnew,7.0.2-0*%
%TF.CreationDate,2024-03-04T00:44:33-08:00*%
%TF.ProjectId,EE156_4_Layer,45453135-365f-4345-9f4c-617965722e6b,rev?*%
%TF.SameCoordinates,Original*%
%TF.FileFunction,Legend,Bot*%
%TF.FilePolarity,Positive*%
%FSLAX46Y46*%
G04 Gerber Fmt 4.6, Leading zero omitted, Abs format (unit mm)*
G04 Created by KiCad (PCBNEW 7.0.2-0) date 2024-03-04 00:44:33*
%MOMM*%
%LPD*%
G01*
G04 APERTURE LIST*
%ADD10C,0.150000*%
%ADD11C,0.508000*%
%ADD12C,0.120000*%
G04 APERTURE END LIST*
D10*
%TO.C,U7*%
X162361904Y-106562619D02*
X162361904Y-107372142D01*
X162361904Y-107372142D02*
X162314285Y-107467380D01*
X162314285Y-107467380D02*
X162266666Y-107515000D01*
X162266666Y-107515000D02*
X162171428Y-107562619D01*
X162171428Y-107562619D02*
X161980952Y-107562619D01*
X161980952Y-107562619D02*
X161885714Y-107515000D01*
X161885714Y-107515000D02*
X161838095Y-107467380D01*
X161838095Y-107467380D02*
X161790476Y-107372142D01*
X161790476Y-107372142D02*
X161790476Y-106562619D01*
X161409523Y-106562619D02*
X160742857Y-106562619D01*
X160742857Y-106562619D02*
X161171428Y-107562619D01*
%TO.C,U5*%
X177261904Y-97362619D02*
X177261904Y-98172142D01*
X177261904Y-98172142D02*
X177214285Y-98267380D01*
X177214285Y-98267380D02*
X177166666Y-98315000D01*
X177166666Y-98315000D02*
X177071428Y-98362619D01*
X177071428Y-98362619D02*
X176880952Y-98362619D01*
X176880952Y-98362619D02*
X176785714Y-98315000D01*
X176785714Y-98315000D02*
X176738095Y-98267380D01*
X176738095Y-98267380D02*
X176690476Y-98172142D01*
X176690476Y-98172142D02*
X176690476Y-97362619D01*
X175738095Y-97362619D02*
X176214285Y-97362619D01*
X176214285Y-97362619D02*
X176261904Y-97838809D01*
X176261904Y-97838809D02*
X176214285Y-97791190D01*
X176214285Y-97791190D02*
X176119047Y-97743571D01*
X176119047Y-97743571D02*
X175880952Y-97743571D01*
X175880952Y-97743571D02*
X175785714Y-97791190D01*
X175785714Y-97791190D02*
X175738095Y-97838809D01*
X175738095Y-97838809D02*
X175690476Y-97934047D01*
X175690476Y-97934047D02*
X175690476Y-98172142D01*
X175690476Y-98172142D02*
X175738095Y-98267380D01*
X175738095Y-98267380D02*
X175785714Y-98315000D01*
X175785714Y-98315000D02*
X175880952Y-98362619D01*
X175880952Y-98362619D02*
X176119047Y-98362619D01*
X176119047Y-98362619D02*
X176214285Y-98315000D01*
X176214285Y-98315000D02*
X176261904Y-98267380D01*
%TO.C,R24*%
X165642857Y-102462619D02*
X165976190Y-101986428D01*
X166214285Y-102462619D02*
X166214285Y-101462619D01*
X166214285Y-101462619D02*
X165833333Y-101462619D01*
X165833333Y-101462619D02*
X165738095Y-101510238D01*
X165738095Y-101510238D02*
X165690476Y-101557857D01*
X165690476Y-101557857D02*
X165642857Y-101653095D01*
X165642857Y-101653095D02*
X165642857Y-101795952D01*
X165642857Y-101795952D02*
X165690476Y-101891190D01*
X165690476Y-101891190D02*
X165738095Y-101938809D01*
X165738095Y-101938809D02*
X165833333Y-101986428D01*
X165833333Y-101986428D02*
X166214285Y-101986428D01*
X165261904Y-101557857D02*
X165214285Y-101510238D01*
X165214285Y-101510238D02*
X165119047Y-101462619D01*
X165119047Y-101462619D02*
X164880952Y-101462619D01*
X164880952Y-101462619D02*
X164785714Y-101510238D01*
X164785714Y-101510238D02*
X164738095Y-101557857D01*
X164738095Y-101557857D02*
X164690476Y-101653095D01*
X164690476Y-101653095D02*
X164690476Y-101748333D01*
X164690476Y-101748333D02*
X164738095Y-101891190D01*
X164738095Y-101891190D02*
X165309523Y-102462619D01*
X165309523Y-102462619D02*
X164690476Y-102462619D01*
X163833333Y-101795952D02*
X163833333Y-102462619D01*
X164071428Y-101415000D02*
X164309523Y-102129285D01*
X164309523Y-102129285D02*
X163690476Y-102129285D01*
%TO.C,R23*%
X165842857Y-114062619D02*
X166176190Y-113586428D01*
X166414285Y-114062619D02*
X166414285Y-113062619D01*
X166414285Y-113062619D02*
X166033333Y-113062619D01*
X166033333Y-113062619D02*
X165938095Y-113110238D01*
X165938095Y-113110238D02*
X165890476Y-113157857D01*
X165890476Y-113157857D02*
X165842857Y-113253095D01*
X165842857Y-113253095D02*
X165842857Y-113395952D01*
X165842857Y-113395952D02*
X165890476Y-113491190D01*
X165890476Y-113491190D02*
X165938095Y-113538809D01*
X165938095Y-113538809D02*
X166033333Y-113586428D01*
X166033333Y-113586428D02*
X166414285Y-113586428D01*
X165461904Y-113157857D02*
X165414285Y-113110238D01*
X165414285Y-113110238D02*
X165319047Y-113062619D01*
X165319047Y-113062619D02*
X165080952Y-113062619D01*
X165080952Y-113062619D02*
X164985714Y-113110238D01*
X164985714Y-113110238D02*
X164938095Y-113157857D01*
X164938095Y-113157857D02*
X164890476Y-113253095D01*
X164890476Y-113253095D02*
X164890476Y-113348333D01*
X164890476Y-113348333D02*
X164938095Y-113491190D01*
X164938095Y-113491190D02*
X165509523Y-114062619D01*
X165509523Y-114062619D02*
X164890476Y-114062619D01*
X164557142Y-113062619D02*
X163938095Y-113062619D01*
X163938095Y-113062619D02*
X164271428Y-113443571D01*
X164271428Y-113443571D02*
X164128571Y-113443571D01*
X164128571Y-113443571D02*
X164033333Y-113491190D01*
X164033333Y-113491190D02*
X163985714Y-113538809D01*
X163985714Y-113538809D02*
X163938095Y-113634047D01*
X163938095Y-113634047D02*
X163938095Y-113872142D01*
X163938095Y-113872142D02*
X163985714Y-113967380D01*
X163985714Y-113967380D02*
X164033333Y-114015000D01*
X164033333Y-114015000D02*
X164128571Y-114062619D01*
X164128571Y-114062619D02*
X164414285Y-114062619D01*
X164414285Y-114062619D02*
X164509523Y-114015000D01*
X164509523Y-114015000D02*
X164557142Y-113967380D01*
%TO.C,R20*%
X184142857Y-94962619D02*
X184476190Y-94486428D01*
X184714285Y-94962619D02*
X184714285Y-93962619D01*
X184714285Y-93962619D02*
X184333333Y-93962619D01*
X184333333Y-93962619D02*
X184238095Y-94010238D01*
X184238095Y-94010238D02*
X184190476Y-94057857D01*
X184190476Y-94057857D02*
X184142857Y-94153095D01*
X184142857Y-94153095D02*
X184142857Y-94295952D01*
X184142857Y-94295952D02*
X184190476Y-94391190D01*
X184190476Y-94391190D02*
X184238095Y-94438809D01*
X184238095Y-94438809D02*
X184333333Y-94486428D01*
X184333333Y-94486428D02*
X184714285Y-94486428D01*
X183761904Y-94057857D02*
X183714285Y-94010238D01*
X183714285Y-94010238D02*
X183619047Y-93962619D01*
X183619047Y-93962619D02*
X183380952Y-93962619D01*
X183380952Y-93962619D02*
X183285714Y-94010238D01*
X183285714Y-94010238D02*
X183238095Y-94057857D01*
X183238095Y-94057857D02*
X183190476Y-94153095D01*
X183190476Y-94153095D02*
X183190476Y-94248333D01*
X183190476Y-94248333D02*
X183238095Y-94391190D01*
X183238095Y-94391190D02*
X183809523Y-94962619D01*
X183809523Y-94962619D02*
X183190476Y-94962619D01*
X182571428Y-93962619D02*
X182476190Y-93962619D01*
X182476190Y-93962619D02*
X182380952Y-94010238D01*
X182380952Y-94010238D02*
X182333333Y-94057857D01*
X182333333Y-94057857D02*
X182285714Y-94153095D01*
X182285714Y-94153095D02*
X182238095Y-94343571D01*
X182238095Y-94343571D02*
X182238095Y-94581666D01*
X182238095Y-94581666D02*
X182285714Y-94772142D01*
X182285714Y-94772142D02*
X182333333Y-94867380D01*
X182333333Y-94867380D02*
X182380952Y-94915000D01*
X182380952Y-94915000D02*
X182476190Y-94962619D01*
X182476190Y-94962619D02*
X182571428Y-94962619D01*
X182571428Y-94962619D02*
X182666666Y-94915000D01*
X182666666Y-94915000D02*
X182714285Y-94867380D01*
X182714285Y-94867380D02*
X182761904Y-94772142D01*
X182761904Y-94772142D02*
X182809523Y-94581666D01*
X182809523Y-94581666D02*
X182809523Y-94343571D01*
X182809523Y-94343571D02*
X182761904Y-94153095D01*
X182761904Y-94153095D02*
X182714285Y-94057857D01*
X182714285Y-94057857D02*
X182666666Y-94010238D01*
X182666666Y-94010238D02*
X182571428Y-93962619D01*
%TO.C,R19*%
X184142857Y-98462619D02*
X184476190Y-97986428D01*
X184714285Y-98462619D02*
X184714285Y-97462619D01*
X184714285Y-97462619D02*
X184333333Y-97462619D01*
X184333333Y-97462619D02*
X184238095Y-97510238D01*
X184238095Y-97510238D02*
X184190476Y-97557857D01*
X184190476Y-97557857D02*
X184142857Y-97653095D01*
X184142857Y-97653095D02*
X184142857Y-97795952D01*
X184142857Y-97795952D02*
X184190476Y-97891190D01*
X184190476Y-97891190D02*
X184238095Y-97938809D01*
X184238095Y-97938809D02*
X184333333Y-97986428D01*
X184333333Y-97986428D02*
X184714285Y-97986428D01*
X183190476Y-98462619D02*
X183761904Y-98462619D01*
X183476190Y-98462619D02*
X183476190Y-97462619D01*
X183476190Y-97462619D02*
X183571428Y-97605476D01*
X183571428Y-97605476D02*
X183666666Y-97700714D01*
X183666666Y-97700714D02*
X183761904Y-97748333D01*
X182714285Y-98462619D02*
X182523809Y-98462619D01*
X182523809Y-98462619D02*
X182428571Y-98415000D01*
X182428571Y-98415000D02*
X182380952Y-98367380D01*
X182380952Y-98367380D02*
X182285714Y-98224523D01*
X182285714Y-98224523D02*
X182238095Y-98034047D01*
X182238095Y-98034047D02*
X182238095Y-97653095D01*
X182238095Y-97653095D02*
X182285714Y-97557857D01*
X182285714Y-97557857D02*
X182333333Y-97510238D01*
X182333333Y-97510238D02*
X182428571Y-97462619D01*
X182428571Y-97462619D02*
X182619047Y-97462619D01*
X182619047Y-97462619D02*
X182714285Y-97510238D01*
X182714285Y-97510238D02*
X182761904Y-97557857D01*
X182761904Y-97557857D02*
X182809523Y-97653095D01*
X182809523Y-97653095D02*
X182809523Y-97891190D01*
X182809523Y-97891190D02*
X182761904Y-97986428D01*
X182761904Y-97986428D02*
X182714285Y-98034047D01*
X182714285Y-98034047D02*
X182619047Y-98081666D01*
X182619047Y-98081666D02*
X182428571Y-98081666D01*
X182428571Y-98081666D02*
X182333333Y-98034047D01*
X182333333Y-98034047D02*
X182285714Y-97986428D01*
X182285714Y-97986428D02*
X182238095Y-97891190D01*
%TO.C,JP7*%
X171183333Y-108662619D02*
X171183333Y-109376904D01*
X171183333Y-109376904D02*
X171230952Y-109519761D01*
X171230952Y-109519761D02*
X171326190Y-109615000D01*
X171326190Y-109615000D02*
X171469047Y-109662619D01*
X171469047Y-109662619D02*
X171564285Y-109662619D01*
X170707142Y-109662619D02*
X170707142Y-108662619D01*
X170707142Y-108662619D02*
X170326190Y-108662619D01*
X170326190Y-108662619D02*
X170230952Y-108710238D01*
X170230952Y-108710238D02*
X170183333Y-108757857D01*
X170183333Y-108757857D02*
X170135714Y-108853095D01*
X170135714Y-108853095D02*
X170135714Y-108995952D01*
X170135714Y-108995952D02*
X170183333Y-109091190D01*
X170183333Y-109091190D02*
X170230952Y-109138809D01*
X170230952Y-109138809D02*
X170326190Y-109186428D01*
X170326190Y-109186428D02*
X170707142Y-109186428D01*
X169802380Y-108662619D02*
X169135714Y-108662619D01*
X169135714Y-108662619D02*
X169564285Y-109662619D01*
%TO.C,JP6*%
X171183333Y-103762619D02*
X171183333Y-104476904D01*
X171183333Y-104476904D02*
X171230952Y-104619761D01*
X171230952Y-104619761D02*
X171326190Y-104715000D01*
X171326190Y-104715000D02*
X171469047Y-104762619D01*
X171469047Y-104762619D02*
X171564285Y-104762619D01*
X170707142Y-104762619D02*
X170707142Y-103762619D01*
X170707142Y-103762619D02*
X170326190Y-103762619D01*
X170326190Y-103762619D02*
X170230952Y-103810238D01*
X170230952Y-103810238D02*
X170183333Y-103857857D01*
X170183333Y-103857857D02*
X170135714Y-103953095D01*
X170135714Y-103953095D02*
X170135714Y-104095952D01*
X170135714Y-104095952D02*
X170183333Y-104191190D01*
X170183333Y-104191190D02*
X170230952Y-104238809D01*
X170230952Y-104238809D02*
X170326190Y-104286428D01*
X170326190Y-104286428D02*
X170707142Y-104286428D01*
X169278571Y-103762619D02*
X169469047Y-103762619D01*
X169469047Y-103762619D02*
X169564285Y-103810238D01*
X169564285Y-103810238D02*
X169611904Y-103857857D01*
X169611904Y-103857857D02*
X169707142Y-104000714D01*
X169707142Y-104000714D02*
X169754761Y-104191190D01*
X169754761Y-104191190D02*
X169754761Y-104572142D01*
X169754761Y-104572142D02*
X169707142Y-104667380D01*
X169707142Y-104667380D02*
X169659523Y-104715000D01*
X169659523Y-104715000D02*
X169564285Y-104762619D01*
X169564285Y-104762619D02*
X169373809Y-104762619D01*
X169373809Y-104762619D02*
X169278571Y-104715000D01*
X169278571Y-104715000D02*
X169230952Y-104667380D01*
X169230952Y-104667380D02*
X169183333Y-104572142D01*
X169183333Y-104572142D02*
X169183333Y-104334047D01*
X169183333Y-104334047D02*
X169230952Y-104238809D01*
X169230952Y-104238809D02*
X169278571Y-104191190D01*
X169278571Y-104191190D02*
X169373809Y-104143571D01*
X169373809Y-104143571D02*
X169564285Y-104143571D01*
X169564285Y-104143571D02*
X169659523Y-104191190D01*
X169659523Y-104191190D02*
X169707142Y-104238809D01*
X169707142Y-104238809D02*
X169754761Y-104334047D01*
%TO.C,JP5*%
X158233333Y-109962619D02*
X158233333Y-110676904D01*
X158233333Y-110676904D02*
X158280952Y-110819761D01*
X158280952Y-110819761D02*
X158376190Y-110915000D01*
X158376190Y-110915000D02*
X158519047Y-110962619D01*
X158519047Y-110962619D02*
X158614285Y-110962619D01*
X157757142Y-110962619D02*
X157757142Y-109962619D01*
X157757142Y-109962619D02*
X157376190Y-109962619D01*
X157376190Y-109962619D02*
X157280952Y-110010238D01*
X157280952Y-110010238D02*
X157233333Y-110057857D01*
X157233333Y-110057857D02*
X157185714Y-110153095D01*
X157185714Y-110153095D02*
X157185714Y-110295952D01*
X157185714Y-110295952D02*
X157233333Y-110391190D01*
X157233333Y-110391190D02*
X157280952Y-110438809D01*
X157280952Y-110438809D02*
X157376190Y-110486428D01*
X157376190Y-110486428D02*
X157757142Y-110486428D01*
X156280952Y-109962619D02*
X156757142Y-109962619D01*
X156757142Y-109962619D02*
X156804761Y-110438809D01*
X156804761Y-110438809D02*
X156757142Y-110391190D01*
X156757142Y-110391190D02*
X156661904Y-110343571D01*
X156661904Y-110343571D02*
X156423809Y-110343571D01*
X156423809Y-110343571D02*
X156328571Y-110391190D01*
X156328571Y-110391190D02*
X156280952Y-110438809D01*
X156280952Y-110438809D02*
X156233333Y-110534047D01*
X156233333Y-110534047D02*
X156233333Y-110772142D01*
X156233333Y-110772142D02*
X156280952Y-110867380D01*
X156280952Y-110867380D02*
X156328571Y-110915000D01*
X156328571Y-110915000D02*
X156423809Y-110962619D01*
X156423809Y-110962619D02*
X156661904Y-110962619D01*
X156661904Y-110962619D02*
X156757142Y-110915000D01*
X156757142Y-110915000D02*
X156804761Y-110867380D01*
%TO.C,JP4*%
X176583333Y-104212619D02*
X176583333Y-104926904D01*
X176583333Y-104926904D02*
X176630952Y-105069761D01*
X176630952Y-105069761D02*
X176726190Y-105165000D01*
X176726190Y-105165000D02*
X176869047Y-105212619D01*
X176869047Y-105212619D02*
X176964285Y-105212619D01*
X176107142Y-105212619D02*
X176107142Y-104212619D01*
X176107142Y-104212619D02*
X175726190Y-104212619D01*
X175726190Y-104212619D02*
X175630952Y-104260238D01*
X175630952Y-104260238D02*
X175583333Y-104307857D01*
X175583333Y-104307857D02*
X175535714Y-104403095D01*
X175535714Y-104403095D02*
X175535714Y-104545952D01*
X175535714Y-104545952D02*
X175583333Y-104641190D01*
X175583333Y-104641190D02*
X175630952Y-104688809D01*
X175630952Y-104688809D02*
X175726190Y-104736428D01*
X175726190Y-104736428D02*
X176107142Y-104736428D01*
X174678571Y-104545952D02*
X174678571Y-105212619D01*
X174916666Y-104165000D02*
X175154761Y-104879285D01*
X175154761Y-104879285D02*
X174535714Y-104879285D01*
%TO.C,JP3*%
X179983333Y-94212619D02*
X179983333Y-94926904D01*
X179983333Y-94926904D02*
X180030952Y-95069761D01*
X180030952Y-95069761D02*
X180126190Y-95165000D01*
X180126190Y-95165000D02*
X180269047Y-95212619D01*
X180269047Y-95212619D02*
X180364285Y-95212619D01*
X179507142Y-95212619D02*
X179507142Y-94212619D01*
X179507142Y-94212619D02*
X179126190Y-94212619D01*
X179126190Y-94212619D02*
X179030952Y-94260238D01*
X179030952Y-94260238D02*
X178983333Y-94307857D01*
X178983333Y-94307857D02*
X178935714Y-94403095D01*
X178935714Y-94403095D02*
X178935714Y-94545952D01*
X178935714Y-94545952D02*
X178983333Y-94641190D01*
X178983333Y-94641190D02*
X179030952Y-94688809D01*
X179030952Y-94688809D02*
X179126190Y-94736428D01*
X179126190Y-94736428D02*
X179507142Y-94736428D01*
X178602380Y-94212619D02*
X177983333Y-94212619D01*
X177983333Y-94212619D02*
X178316666Y-94593571D01*
X178316666Y-94593571D02*
X178173809Y-94593571D01*
X178173809Y-94593571D02*
X178078571Y-94641190D01*
X178078571Y-94641190D02*
X178030952Y-94688809D01*
X178030952Y-94688809D02*
X177983333Y-94784047D01*
X177983333Y-94784047D02*
X177983333Y-95022142D01*
X177983333Y-95022142D02*
X178030952Y-95117380D01*
X178030952Y-95117380D02*
X178078571Y-95165000D01*
X178078571Y-95165000D02*
X178173809Y-95212619D01*
X178173809Y-95212619D02*
X178459523Y-95212619D01*
X178459523Y-95212619D02*
X178554761Y-95165000D01*
X178554761Y-95165000D02*
X178602380Y-95117380D01*
%TO.C,JP2*%
X249933333Y-104562619D02*
X249933333Y-105276904D01*
X249933333Y-105276904D02*
X249980952Y-105419761D01*
X249980952Y-105419761D02*
X250076190Y-105515000D01*
X250076190Y-105515000D02*
X250219047Y-105562619D01*
X250219047Y-105562619D02*
X250314285Y-105562619D01*
X249457142Y-105562619D02*
X249457142Y-104562619D01*
X249457142Y-104562619D02*
X249076190Y-104562619D01*
X249076190Y-104562619D02*
X248980952Y-104610238D01*
X248980952Y-104610238D02*
X248933333Y-104657857D01*
X248933333Y-104657857D02*
X248885714Y-104753095D01*
X248885714Y-104753095D02*
X248885714Y-104895952D01*
X248885714Y-104895952D02*
X248933333Y-104991190D01*
X248933333Y-104991190D02*
X248980952Y-105038809D01*
X248980952Y-105038809D02*
X249076190Y-105086428D01*
X249076190Y-105086428D02*
X249457142Y-105086428D01*
X248504761Y-104657857D02*
X248457142Y-104610238D01*
X248457142Y-104610238D02*
X248361904Y-104562619D01*
X248361904Y-104562619D02*
X248123809Y-104562619D01*
X248123809Y-104562619D02*
X248028571Y-104610238D01*
X248028571Y-104610238D02*
X247980952Y-104657857D01*
X247980952Y-104657857D02*
X247933333Y-104753095D01*
X247933333Y-104753095D02*
X247933333Y-104848333D01*
X247933333Y-104848333D02*
X247980952Y-104991190D01*
X247980952Y-104991190D02*
X248552380Y-105562619D01*
X248552380Y-105562619D02*
X247933333Y-105562619D01*
%TO.C,JP1*%
X211583333Y-118712619D02*
X211583333Y-119426904D01*
X211583333Y-119426904D02*
X211630952Y-119569761D01*
X211630952Y-119569761D02*
X211726190Y-119665000D01*
X211726190Y-119665000D02*
X211869047Y-119712619D01*
X211869047Y-119712619D02*
X211964285Y-119712619D01*
X211107142Y-119712619D02*
X211107142Y-118712619D01*
X211107142Y-118712619D02*
X210726190Y-118712619D01*
X210726190Y-118712619D02*
X210630952Y-118760238D01*
X210630952Y-118760238D02*
X210583333Y-118807857D01*
X210583333Y-118807857D02*
X210535714Y-118903095D01*
X210535714Y-118903095D02*
X210535714Y-119045952D01*
X210535714Y-119045952D02*
X210583333Y-119141190D01*
X210583333Y-119141190D02*
X210630952Y-119188809D01*
X210630952Y-119188809D02*
X210726190Y-119236428D01*
X210726190Y-119236428D02*
X211107142Y-119236428D01*
X209583333Y-119712619D02*
X210154761Y-119712619D01*
X209869047Y-119712619D02*
X209869047Y-118712619D01*
X209869047Y-118712619D02*
X209964285Y-118855476D01*
X209964285Y-118855476D02*
X210059523Y-118950714D01*
X210059523Y-118950714D02*
X210154761Y-118998333D01*
D11*
%TO.C,J4*%
X184086000Y-122460002D02*
G75*
G03*
X184086000Y-122460002I-381000J0D01*
G01*
D12*
%TO.C,U7*%
X164250000Y-106190000D02*
X166050000Y-106190000D01*
X166050000Y-109410000D02*
X163600000Y-109410000D01*
%TO.C,U5*%
X178800000Y-102410000D02*
X177000000Y-102410000D01*
X177000000Y-99190000D02*
X179450000Y-99190000D01*
%TO.C,R24*%
X164772936Y-103265000D02*
X165227064Y-103265000D01*
X164772936Y-104735000D02*
X165227064Y-104735000D01*
%TO.C,R23*%
X165227064Y-112485000D02*
X164772936Y-112485000D01*
X165227064Y-111015000D02*
X164772936Y-111015000D01*
%TO.C,R20*%
X183272936Y-95515000D02*
X183727064Y-95515000D01*
X183272936Y-96985000D02*
X183727064Y-96985000D01*
%TO.C,R19*%
X183272936Y-99015000D02*
X183727064Y-99015000D01*
X183272936Y-100485000D02*
X183727064Y-100485000D01*
%TO.C,JP7*%
X168950000Y-112250000D02*
X171750000Y-112250000D01*
X171750000Y-112250000D02*
X171750000Y-110250000D01*
X171750000Y-110250000D02*
X168950000Y-110250000D01*
X168950000Y-110250000D02*
X168950000Y-112250000D01*
%TO.C,JP6*%
X168950000Y-105500000D02*
X168950000Y-107500000D01*
X171750000Y-105500000D02*
X168950000Y-105500000D01*
X171750000Y-107500000D02*
X171750000Y-105500000D01*
X168950000Y-107500000D02*
X171750000Y-107500000D01*
%TO.C,JP5*%
X158250000Y-108800000D02*
X158250000Y-106000000D01*
X158250000Y-106000000D02*
X156250000Y-106000000D01*
X156250000Y-106000000D02*
X156250000Y-108800000D01*
X156250000Y-108800000D02*
X158250000Y-108800000D01*
%TO.C,JP4*%
X177600000Y-103750000D02*
X177600000Y-105750000D01*
X180400000Y-103750000D02*
X177600000Y-103750000D01*
X180400000Y-105750000D02*
X180400000Y-103750000D01*
X177600000Y-105750000D02*
X180400000Y-105750000D01*
%TO.C,JP3*%
X177750000Y-96000000D02*
X177750000Y-98000000D01*
X180550000Y-96000000D02*
X177750000Y-96000000D01*
X180550000Y-98000000D02*
X180550000Y-96000000D01*
X177750000Y-98000000D02*
X180550000Y-98000000D01*
%TO.C,JP2*%
X247600000Y-106250000D02*
X247600000Y-108250000D01*
X250400000Y-106250000D02*
X247600000Y-106250000D01*
X250400000Y-108250000D02*
X250400000Y-106250000D01*
X247600000Y-108250000D02*
X250400000Y-108250000D01*
%TO.C,JP1*%
X209350000Y-120500000D02*
X209350000Y-122500000D01*
X212150000Y-120500000D02*
X209350000Y-120500000D01*
X212150000Y-122500000D02*
X212150000Y-120500000D01*
X209350000Y-122500000D02*
X212150000Y-122500000D01*
%TD*%
M02*
