M48
; DRILL file {KiCad 7.0.2-0} date 2024 March 04, Monday 00:44:28
; FORMAT={-:-/ absolute / inch / decimal}
; #@! TF.CreationDate,2024-03-04T00:44:28-08:00
; #@! TF.GenerationSoftware,Kicad,Pcbnew,7.0.2-0
; #@! TF.FileFunction,Plated,1,4,PTH
FMAT,2
INCH
; #@! TA.AperFunction,Plated,PTH,ViaDrill
T1C0.0157
; #@! TA.AperFunction,Plated,PTH,ComponentDrill
T2C0.0394
; #@! TA.AperFunction,Plated,PTH,ComponentDrill
T3C0.0512
%
G90
G05
T1
X6.1457Y-4.1142
X6.1929Y-4.3661
X6.2244Y-4.1181
X6.2323Y-4.4449
X6.2441Y-4.0512
X6.374Y-4.5079
X6.3888Y-3.8189
X6.3898Y-4.1457
X6.4016Y-4.5866
X6.4409Y-3.8976
X6.4409Y-4.3386
X6.4567Y-4.4882
X6.5315Y-3.9961
X6.5354Y-4.1575
X6.6102Y-4.378
X6.6102Y-4.5197
X6.748Y-4.7874
X6.8031Y-4.4843
X6.8543Y-4.748
X6.9528Y-4.7008
X6.9567Y-4.5787
X7.0Y-4.8898
X7.0487Y-3.6792
X7.0512Y-3.7362
X7.0827Y-4.7008
X7.1063Y-4.0472
X7.1339Y-4.189
X7.1378Y-4.8228
X7.1457Y-4.3346
X7.1457Y-4.5197
X7.2244Y-3.9921
X7.2756Y-3.8583
X7.2874Y-4.622
X7.3307Y-3.7559
X7.3386Y-4.9646
X7.3465Y-4.1654
X7.3504Y-4.5079
X7.3543Y-3.5945
X7.3937Y-4.7008
X7.3976Y-4.9567
X7.4488Y-3.685
X7.4488Y-3.748
X7.4921Y-3.7205
X7.4921Y-3.7795
X7.4961Y-4.0748
X7.5118Y-4.7205
X7.5512Y-3.7165
X7.5512Y-3.7795
X7.5512Y-4.0354
X7.5797Y-3.8967
X7.5866Y-4.1732
X7.5984Y-4.6575
X7.6181Y-3.9961
X7.6417Y-4.122
X7.6457Y-4.0354
X7.6457Y-4.1732
X7.7126Y-4.9803
X7.7323Y-3.8583
X7.7795Y-3.6024
X7.7913Y-4.3031
X7.8386Y-4.0984
X7.8504Y-3.6063
X7.878Y-4.3307
X7.8819Y-4.5551
X7.8898Y-4.3701
X7.9134Y-4.0315
X7.9252Y-4.874
X7.9291Y-4.0945
X7.9331Y-4.3701
X7.9803Y-4.0079
X7.9803Y-4.0591
X8.0493Y-4.1332
X8.0591Y-4.2008
X8.0591Y-4.2559
X8.0709Y-4.8465
X8.0945Y-4.1457
X8.1181Y-3.7559
X8.1181Y-3.9567
X8.1191Y-4.1889
X8.123Y-4.0976
X8.1368Y-4.3465
X8.1457Y-4.4094
X8.1457Y-4.7165
X8.1476Y-4.2244
X8.1614Y-4.2874
X8.1929Y-4.5551
X8.2047Y-4.874
X8.2126Y-4.4213
X8.2323Y-4.6969
X8.2598Y-4.4213
X8.2717Y-4.1024
X8.2913Y-3.8858
X8.2992Y-3.6772
X8.311Y-3.9567
X8.3268Y-3.7362
X8.3268Y-3.7835
X8.3268Y-4.1654
X8.3307Y-3.8504
X8.3346Y-3.626
X8.3661Y-4.563
X8.4606Y-4.0236
X8.5197Y-4.2874
X8.5197Y-4.3307
X8.5236Y-3.8189
X8.5236Y-3.8858
X8.5394Y-4.1654
X8.5433Y-4.1024
X8.5551Y-4.0
X8.6063Y-4.9134
X8.7126Y-4.9685
X8.7638Y-3.7835
X8.8228Y-4.5
X8.8228Y-4.5591
X8.8701Y-3.7362
X9.0787Y-3.7323
X9.0787Y-4.4685
X9.1378Y-3.7323
X9.1732Y-4.1969
X9.1969Y-4.5315
X9.3583Y-4.4685
X9.3898Y-4.6969
X9.4016Y-3.6339
X9.4291Y-3.8858
X9.4409Y-4.2756
X9.4528Y-4.6969
X9.4606Y-3.7677
X9.4882Y-4.5039
X9.5512Y-4.5079
X9.622Y-4.5394
X9.6299Y-4.4016
X9.6732Y-4.4685
X9.6732Y-4.5118
X9.6732Y-4.5827
X9.9016Y-4.2244
T2
X6.5157Y-4.9705
X6.6157Y-4.9705
X6.8996Y-4.9705
X6.9539Y-3.5138
X6.9996Y-4.9705
X7.0539Y-3.5138
X7.0996Y-4.9705
X7.1539Y-3.5138
X7.1996Y-4.9705
X7.2539Y-3.5138
X7.488Y-3.5138
X7.588Y-3.5138
X7.688Y-3.5138
X7.9217Y-4.9705
X7.9449Y-3.5138
X8.0217Y-4.9705
X8.0449Y-3.5138
X8.1449Y-3.5138
X8.2039Y-4.9705
X8.2449Y-3.5138
X8.3039Y-4.9705
X8.3449Y-3.5138
X8.4039Y-4.9705
X8.4449Y-3.5138
X8.5039Y-4.9705
X8.6516Y-3.898
X8.6516Y-3.998
X8.6516Y-4.098
X8.6516Y-4.198
X8.6516Y-4.298
X8.6516Y-4.398
X8.6516Y-4.498
X8.6516Y-4.598
X8.6681Y-3.5138
X8.7681Y-3.5138
X8.8173Y-4.9705
X8.8681Y-3.5138
X8.9173Y-4.9705
X9.0173Y-4.9705
X9.1173Y-4.9705
X9.3193Y-4.9705
X9.4193Y-4.9705
X9.5193Y-4.9705
X9.6193Y-4.9705
T3
X9.8898Y-3.7874
X9.8898Y-3.9843
T0
M30
