%TF.GenerationSoftware,KiCad,Pcbnew,7.0.2-0*%
%TF.CreationDate,2024-03-04T00:44:33-08:00*%
%TF.ProjectId,EE156_4_Layer,45453135-365f-4345-9f4c-617965722e6b,rev?*%
%TF.SameCoordinates,Original*%
%TF.FileFunction,Copper,L1,Top*%
%TF.FilePolarity,Positive*%
%FSLAX46Y46*%
G04 Gerber Fmt 4.6, Leading zero omitted, Abs format (unit mm)*
G04 Created by KiCad (PCBNEW 7.0.2-0) date 2024-03-04 00:44:33*
%MOMM*%
%LPD*%
G01*
G04 APERTURE LIST*
G04 Aperture macros list*
%AMRoundRect*
0 Rectangle with rounded corners*
0 $1 Rounding radius*
0 $2 $3 $4 $5 $6 $7 $8 $9 X,Y pos of 4 corners*
0 Add a 4 corners polygon primitive as box body*
4,1,4,$2,$3,$4,$5,$6,$7,$8,$9,$2,$3,0*
0 Add four circle primitives for the rounded corners*
1,1,$1+$1,$2,$3*
1,1,$1+$1,$4,$5*
1,1,$1+$1,$6,$7*
1,1,$1+$1,$8,$9*
0 Add four rect primitives between the rounded corners*
20,1,$1+$1,$2,$3,$4,$5,0*
20,1,$1+$1,$4,$5,$6,$7,0*
20,1,$1+$1,$6,$7,$8,$9,0*
20,1,$1+$1,$8,$9,$2,$3,0*%
G04 Aperture macros list end*
%TA.AperFunction,SMDPad,CuDef*%
%ADD10R,0.660400X2.768600*%
%TD*%
%TA.AperFunction,SMDPad,CuDef*%
%ADD11R,1.346200X0.279400*%
%TD*%
%TA.AperFunction,SMDPad,CuDef*%
%ADD12R,0.279400X1.346200*%
%TD*%
%TA.AperFunction,SMDPad,CuDef*%
%ADD13RoundRect,0.250000X0.450000X-0.350000X0.450000X0.350000X-0.450000X0.350000X-0.450000X-0.350000X0*%
%TD*%
%TA.AperFunction,SMDPad,CuDef*%
%ADD14RoundRect,0.237500X0.237500X-0.300000X0.237500X0.300000X-0.237500X0.300000X-0.237500X-0.300000X0*%
%TD*%
%TA.AperFunction,SMDPad,CuDef*%
%ADD15R,0.800000X1.700000*%
%TD*%
%TA.AperFunction,ComponentPad*%
%ADD16R,1.700000X1.700000*%
%TD*%
%TA.AperFunction,ComponentPad*%
%ADD17O,1.700000X1.700000*%
%TD*%
%TA.AperFunction,SMDPad,CuDef*%
%ADD18R,1.000000X1.800000*%
%TD*%
%TA.AperFunction,SMDPad,CuDef*%
%ADD19RoundRect,0.250000X0.300000X0.300000X-0.300000X0.300000X-0.300000X-0.300000X0.300000X-0.300000X0*%
%TD*%
%TA.AperFunction,SMDPad,CuDef*%
%ADD20RoundRect,0.125000X-0.137500X0.125000X-0.137500X-0.125000X0.137500X-0.125000X0.137500X0.125000X0*%
%TD*%
%TA.AperFunction,SMDPad,CuDef*%
%ADD21R,0.812800X0.660400*%
%TD*%
%TA.AperFunction,SMDPad,CuDef*%
%ADD22RoundRect,0.150000X-0.512500X-0.150000X0.512500X-0.150000X0.512500X0.150000X-0.512500X0.150000X0*%
%TD*%
%TA.AperFunction,SMDPad,CuDef*%
%ADD23RoundRect,0.150000X0.512500X0.150000X-0.512500X0.150000X-0.512500X-0.150000X0.512500X-0.150000X0*%
%TD*%
%TA.AperFunction,SMDPad,CuDef*%
%ADD24R,2.000000X2.000000*%
%TD*%
%TA.AperFunction,SMDPad,CuDef*%
%ADD25RoundRect,0.250000X-0.450000X0.350000X-0.450000X-0.350000X0.450000X-0.350000X0.450000X0.350000X0*%
%TD*%
%TA.AperFunction,SMDPad,CuDef*%
%ADD26RoundRect,0.250000X0.350000X0.450000X-0.350000X0.450000X-0.350000X-0.450000X0.350000X-0.450000X0*%
%TD*%
%TA.AperFunction,SMDPad,CuDef*%
%ADD27RoundRect,0.250000X-0.350000X-0.450000X0.350000X-0.450000X0.350000X0.450000X-0.350000X0.450000X0*%
%TD*%
%TA.AperFunction,SMDPad,CuDef*%
%ADD28RoundRect,0.150000X0.150000X-0.512500X0.150000X0.512500X-0.150000X0.512500X-0.150000X-0.512500X0*%
%TD*%
%TA.AperFunction,SMDPad,CuDef*%
%ADD29RoundRect,0.250000X-0.350000X0.275000X-0.350000X-0.275000X0.350000X-0.275000X0.350000X0.275000X0*%
%TD*%
%TA.AperFunction,SMDPad,CuDef*%
%ADD30R,1.900000X1.400000*%
%TD*%
%TA.AperFunction,SMDPad,CuDef*%
%ADD31R,1.400000X1.800000*%
%TD*%
%TA.AperFunction,SMDPad,CuDef*%
%ADD32R,1.500000X0.800000*%
%TD*%
%TA.AperFunction,ComponentPad*%
%ADD33C,2.300000*%
%TD*%
%TA.AperFunction,ComponentPad*%
%ADD34R,2.300000X2.300000*%
%TD*%
%TA.AperFunction,SMDPad,CuDef*%
%ADD35R,1.900000X1.800000*%
%TD*%
%TA.AperFunction,SMDPad,CuDef*%
%ADD36R,1.900000X1.900000*%
%TD*%
%TA.AperFunction,SMDPad,CuDef*%
%ADD37R,1.600000X2.100000*%
%TD*%
%TA.AperFunction,SMDPad,CuDef*%
%ADD38R,1.350000X0.400000*%
%TD*%
%TA.AperFunction,SMDPad,CuDef*%
%ADD39RoundRect,0.250000X0.450000X-0.325000X0.450000X0.325000X-0.450000X0.325000X-0.450000X-0.325000X0*%
%TD*%
%TA.AperFunction,SMDPad,CuDef*%
%ADD40R,0.700000X0.700000*%
%TD*%
%TA.AperFunction,SMDPad,CuDef*%
%ADD41RoundRect,0.237500X-0.237500X0.300000X-0.237500X-0.300000X0.237500X-0.300000X0.237500X0.300000X0*%
%TD*%
%TA.AperFunction,SMDPad,CuDef*%
%ADD42RoundRect,0.237500X-0.300000X-0.237500X0.300000X-0.237500X0.300000X0.237500X-0.300000X0.237500X0*%
%TD*%
%TA.AperFunction,SMDPad,CuDef*%
%ADD43RoundRect,0.237500X0.300000X0.237500X-0.300000X0.237500X-0.300000X-0.237500X0.300000X-0.237500X0*%
%TD*%
%TA.AperFunction,ViaPad*%
%ADD44C,0.800000*%
%TD*%
%TA.AperFunction,Conductor*%
%ADD45C,0.250000*%
%TD*%
%TA.AperFunction,Conductor*%
%ADD46C,0.200000*%
%TD*%
G04 APERTURE END LIST*
D10*
%TO.P,J4,10,10*%
%TO.N,unconnected-(J4-Pad10)*%
X194500000Y-122460004D03*
%TO.P,J4,9,9*%
%TO.N,GND*%
X194500000Y-126500000D03*
%TO.P,J4,8,8*%
%TO.N,unconnected-(J4-Pad8)*%
X193230000Y-122460004D03*
%TO.P,J4,7,7*%
%TO.N,unconnected-(J4-Pad7)*%
X193230000Y-126500000D03*
%TO.P,J4,6,6*%
%TO.N,unconnected-(J4-Pad6)*%
X191960000Y-122460004D03*
%TO.P,J4,5,5*%
%TO.N,GND*%
X191960000Y-126500000D03*
%TO.P,J4,4,4*%
%TO.N,SWCLK*%
X190690000Y-122460004D03*
%TO.P,J4,3,3*%
%TO.N,GND*%
X190690000Y-126500000D03*
%TO.P,J4,2,2*%
%TO.N,SWDIO*%
X189420000Y-122460004D03*
%TO.P,J4,1,1*%
%TO.N,3.3V*%
X189420000Y-126500000D03*
%TD*%
D11*
%TO.P,U1,64,PB03*%
%TO.N,D8_Pix*%
X203146200Y-112000000D03*
%TO.P,U1,63,PB02*%
%TO.N,unconnected-(U1-PB02-Pad63)*%
X203146200Y-111500001D03*
%TO.P,U1,62,PB01*%
%TO.N,V_DIV*%
X203146200Y-111000000D03*
%TO.P,U1,61,PB00*%
%TO.N,unconnected-(U1-PB00-Pad61)*%
X203146200Y-110500001D03*
%TO.P,U1,60,PB31*%
%TO.N,unconnected-(U1-PB31-Pad60)*%
X203146200Y-109999999D03*
%TO.P,U1,59,PB30*%
%TO.N,unconnected-(U1-PB30-Pad59)*%
X203146200Y-109500000D03*
%TO.P,U1,58,PA31*%
%TO.N,SWDIO*%
X203146200Y-109000001D03*
%TO.P,U1,57,PA30*%
%TO.N,SWCLK*%
X203146200Y-108500000D03*
%TO.P,U1,56,VDDIO*%
%TO.N,3.3V*%
X203146200Y-108000000D03*
%TO.P,U1,55,VSW*%
%TO.N,Net-(U1-VSW)*%
X203146200Y-107499999D03*
%TO.P,U1,54,GND*%
%TO.N,GND*%
X203146200Y-107000000D03*
%TO.P,U1,53,VDDCORE*%
%TO.N,Net-(U1-VDDCORE)*%
X203146200Y-106500001D03*
%TO.P,U1,52,RESETN*%
%TO.N,~{RESET}*%
X203146200Y-105999999D03*
%TO.P,U1,51,PA27*%
%TO.N,unconnected-(U1-PA27-Pad51)*%
X203146200Y-105500000D03*
%TO.P,U1,50,PB23*%
%TO.N,MOSI*%
X203146200Y-104999999D03*
%TO.P,U1,49,PB22*%
%TO.N,MISO*%
X203146200Y-104500000D03*
D12*
%TO.P,U1,48,VDDIO*%
%TO.N,3.3V*%
X205073100Y-102573100D03*
%TO.P,U1,47,GND*%
%TO.N,GND*%
X205573099Y-102573100D03*
%TO.P,U1,46,PA25*%
%TO.N,D+*%
X206073100Y-102573100D03*
%TO.P,U1,45,PA24*%
%TO.N,D-*%
X206573099Y-102573100D03*
%TO.P,U1,44,PA23*%
%TO.N,D13*%
X207073101Y-102573100D03*
%TO.P,U1,43,PA22*%
%TO.N,D12*%
X207573100Y-102573100D03*
%TO.P,U1,42,PA21*%
%TO.N,D11*%
X208073099Y-102573100D03*
%TO.P,U1,41,PA20*%
%TO.N,D10*%
X208573100Y-102573100D03*
%TO.P,U1,40,PB17*%
%TO.N,RX_D0*%
X209073100Y-102573100D03*
%TO.P,U1,39,PB16*%
%TO.N,TX_D1*%
X209573101Y-102573100D03*
%TO.P,U1,38,PA19*%
%TO.N,D9*%
X210073100Y-102573100D03*
%TO.P,U1,37,PA18*%
%TO.N,D6*%
X210573099Y-102573100D03*
%TO.P,U1,36,PA17*%
%TO.N,SCK*%
X211073101Y-102573100D03*
%TO.P,U1,35,PA16*%
%TO.N,D5*%
X211573100Y-102573100D03*
%TO.P,U1,34,VDDIO*%
%TO.N,3.3V*%
X212073101Y-102573100D03*
%TO.P,U1,33,GND*%
%TO.N,GND*%
X212573100Y-102573100D03*
D11*
%TO.P,U1,32,PA15*%
%TO.N,unconnected-(U1-PA15-Pad32)*%
X214500000Y-104500000D03*
%TO.P,U1,31,PA14*%
%TO.N,D4*%
X214500000Y-104999999D03*
%TO.P,U1,30,PA13*%
%TO.N,SCL*%
X214500000Y-105500000D03*
%TO.P,U1,29,PA12*%
%TO.N,SDA*%
X214500000Y-105999999D03*
%TO.P,U1,28,PB15*%
%TO.N,unconnected-(U1-PB15-Pad28)*%
X214500000Y-106500001D03*
%TO.P,U1,27,PB14*%
%TO.N,unconnected-(U1-PB14-Pad27)*%
X214500000Y-107000000D03*
%TO.P,U1,26,PB13*%
%TO.N,unconnected-(U1-PB13-Pad26)*%
X214500000Y-107499999D03*
%TO.P,U1,25,PB12*%
%TO.N,unconnected-(U1-PB12-Pad25)*%
X214500000Y-108000000D03*
%TO.P,U1,24,PB11*%
%TO.N,unconnected-(U1-PB11-Pad24)*%
X214500000Y-108500000D03*
%TO.P,U1,23,PB10*%
%TO.N,unconnected-(U1-PB10-Pad23)*%
X214500000Y-109000001D03*
%TO.P,U1,22,GND*%
%TO.N,GND*%
X214500000Y-109500000D03*
%TO.P,U1,21,VDDIOB*%
%TO.N,3.3V*%
X214500000Y-109999999D03*
%TO.P,U1,20,PA11*%
%TO.N,unconnected-(U1-PA11-Pad20)*%
X214500000Y-110500001D03*
%TO.P,U1,19,PA10*%
%TO.N,unconnected-(U1-PA10-Pad19)*%
X214500000Y-111000000D03*
%TO.P,U1,18,PA09*%
%TO.N,unconnected-(U1-PA09-Pad18)*%
X214500000Y-111500001D03*
%TO.P,U1,17,PA08*%
%TO.N,unconnected-(U1-PA08-Pad17)*%
X214500000Y-112000000D03*
D12*
%TO.P,U1,16,PA07*%
%TO.N,3.3V*%
X212573100Y-113926900D03*
%TO.P,U1,15,PA06*%
%TO.N,A5*%
X212073101Y-113926900D03*
%TO.P,U1,14,PA05*%
%TO.N,A1*%
X211573100Y-113926900D03*
%TO.P,U1,13,PA04*%
%TO.N,A4*%
X211073101Y-113926900D03*
%TO.P,U1,12,PB09*%
%TO.N,unconnected-(U1-PB09-Pad12)*%
X210573099Y-113926900D03*
%TO.P,U1,11,PB08*%
%TO.N,unconnected-(U1-PB08-Pad11)*%
X210073100Y-113926900D03*
%TO.P,U1,10,PB07*%
%TO.N,unconnected-(U1-PB07-Pad10)*%
X209573101Y-113926900D03*
%TO.P,U1,9,PB06*%
%TO.N,unconnected-(U1-PB06-Pad9)*%
X209073100Y-113926900D03*
%TO.P,U1,8,VDDANA*%
%TO.N,3.3V*%
X208573100Y-113926900D03*
%TO.P,U1,7,GNDANA*%
%TO.N,GND*%
X208073099Y-113926900D03*
%TO.P,U1,6,PB05*%
%TO.N,unconnected-(U1-PB05-Pad6)*%
X207573100Y-113926900D03*
%TO.P,U1,5,PB04*%
%TO.N,unconnected-(U1-PB04-Pad5)*%
X207073101Y-113926900D03*
%TO.P,U1,4,PA03*%
%TO.N,AREF*%
X206573099Y-113926900D03*
%TO.P,U1,3,PA02*%
%TO.N,A0*%
X206073100Y-113926900D03*
%TO.P,U1,2,PA01*%
%TO.N,Net-(U1-PA01)*%
X205573099Y-113926900D03*
%TO.P,U1,1,PA00*%
%TO.N,Net-(U1-PA00)*%
X205073100Y-113926900D03*
%TD*%
D13*
%TO.P,R3,1,1*%
%TO.N,~{RESET}*%
X197250000Y-95000000D03*
%TO.P,R3,2,2*%
%TO.N,3.3V*%
X197250000Y-93000000D03*
%TD*%
D14*
%TO.P,C6,1*%
%TO.N,~{RESET}*%
X199500000Y-94862500D03*
%TO.P,C6,2*%
%TO.N,GND*%
X199500000Y-93137500D03*
%TD*%
D15*
%TO.P,S1,1*%
%TO.N,~{RESET}*%
X198200000Y-98000000D03*
%TO.P,S1,2*%
%TO.N,GND*%
X194800000Y-98000000D03*
%TD*%
D16*
%TO.P,J16,1,Pin_1*%
%TO.N,GND*%
X219750000Y-116790000D03*
D17*
%TO.P,J16,2,Pin_2*%
%TO.N,3.3V*%
X219750000Y-114250000D03*
%TO.P,J16,3,Pin_3*%
%TO.N,unconnected-(J16-Pin_3-Pad3)*%
X219750000Y-111710000D03*
%TO.P,J16,4,Pin_4*%
%TO.N,D5*%
X219750000Y-109170000D03*
%TO.P,J16,5,Pin_5*%
%TO.N,D9*%
X219750000Y-106630000D03*
%TO.P,J16,6,Pin_6*%
%TO.N,D6*%
X219750000Y-104090000D03*
%TO.P,J16,7,Pin_7*%
%TO.N,SCK*%
X219750000Y-101550000D03*
%TO.P,J16,8,Pin_8*%
%TO.N,MOSI*%
X219750000Y-99010000D03*
%TD*%
D18*
%TO.P,X1,1,1*%
%TO.N,Net-(U1-PA00)*%
X204000000Y-117250000D03*
%TO.P,X1,2,2*%
%TO.N,Net-(U1-PA01)*%
X206500000Y-117250000D03*
%TD*%
D19*
%TO.P,D2,1,1*%
%TO.N,Net-(Q1-S)*%
X232000000Y-113500000D03*
%TO.P,D2,2,2*%
%TO.N,V_USB*%
X229200000Y-113500000D03*
%TD*%
D20*
%TO.P,U6,8,VDD*%
%TO.N,3.3V*%
X182312500Y-99300000D03*
%TO.P,U6,7,GND*%
%TO.N,GND*%
X182312500Y-100100000D03*
%TO.P,U6,6,VDDIO*%
%TO.N,3.3V*%
X182312500Y-100900000D03*
%TO.P,U6,5,SDO*%
%TO.N,BME_SDO*%
X182312500Y-101700000D03*
%TO.P,U6,4,SCK*%
%TO.N,BME_SCK*%
X184687500Y-101700000D03*
%TO.P,U6,3,SDI*%
%TO.N,BME_SDI*%
X184687500Y-100900000D03*
%TO.P,U6,2,CSB*%
%TO.N,BME_CSB*%
X184687500Y-100100000D03*
%TO.P,U6,1,GND*%
%TO.N,GND*%
X184687500Y-99300000D03*
%TD*%
D21*
%TO.P,U4,4,SCL*%
%TO.N,SCL*%
X182750000Y-112050002D03*
%TO.P,U4,3,SDA*%
%TO.N,SDA*%
X182750000Y-113250000D03*
%TO.P,U4,2,GND*%
%TO.N,GND*%
X181556200Y-113250000D03*
%TO.P,U4,1,VDD*%
%TO.N,3.3V*%
X181556200Y-112050002D03*
%TD*%
D22*
%TO.P,U3,5,OUT*%
%TO.N,3.3V*%
X238862500Y-110100000D03*
%TO.P,U3,4,BP*%
%TO.N,unconnected-(U3-BP-Pad4)*%
X238862500Y-112000000D03*
%TO.P,U3,3,EN*%
%TO.N,Net-(U3-EN)*%
X236587500Y-112000000D03*
%TO.P,U3,2,GND*%
%TO.N,GND*%
X236587500Y-111050000D03*
%TO.P,U3,1,IN*%
%TO.N,Net-(Q1-S)*%
X236587500Y-110100000D03*
%TD*%
D23*
%TO.P,U2,5,PROG*%
%TO.N,Net-(U2-PROG)*%
X235612500Y-95700000D03*
%TO.P,U2,4,VIN*%
%TO.N,V_USB*%
X235612500Y-93800000D03*
%TO.P,U2,3,VBAT*%
%TO.N,V_BATT*%
X237887500Y-93800000D03*
%TO.P,U2,2,VSS*%
%TO.N,GND*%
X237887500Y-94750000D03*
%TO.P,U2,1,STAT*%
%TO.N,Net-(D3-K)*%
X237887500Y-95700000D03*
%TD*%
D24*
%TO.P,TP1,1,1*%
%TO.N,Net-(Q1-S)*%
X234862500Y-104250000D03*
%TD*%
D13*
%TO.P,R22,2*%
%TO.N,SDA*%
X185000000Y-113750000D03*
%TO.P,R22,1*%
%TO.N,3.3V*%
X185000000Y-115750000D03*
%TD*%
D25*
%TO.P,R21,2*%
%TO.N,SCL*%
X185000000Y-111750000D03*
%TO.P,R21,1*%
%TO.N,3.3V*%
X185000000Y-109750000D03*
%TD*%
D13*
%TO.P,R18,2*%
%TO.N,Net-(J14-DATA_OUT)*%
X170900000Y-116500000D03*
%TO.P,R18,1*%
%TO.N,SD_MISO*%
X170900000Y-118500000D03*
%TD*%
%TO.P,R17,2*%
%TO.N,Net-(J14-SCLK)*%
X167950000Y-116500000D03*
%TO.P,R17,1*%
%TO.N,SCK*%
X167950000Y-118500000D03*
%TD*%
%TO.P,R16,2*%
%TO.N,Net-(J14-DATA_IN)*%
X165000000Y-116500000D03*
%TO.P,R16,1*%
%TO.N,MOSI*%
X165000000Y-118500000D03*
%TD*%
%TO.P,R15,2*%
%TO.N,Net-(J14-CS)*%
X159550000Y-116500000D03*
%TO.P,R15,1*%
%TO.N,D13*%
X159550000Y-118500000D03*
%TD*%
D26*
%TO.P,R14,2*%
%TO.N,BME_CSB*%
X186750000Y-99250000D03*
%TO.P,R14,1*%
%TO.N,D12*%
X188750000Y-99250000D03*
%TD*%
%TO.P,R13,2*%
%TO.N,BME_SDI*%
X186750000Y-101500000D03*
%TO.P,R13,1*%
%TO.N,MOSI*%
X188750000Y-101500000D03*
%TD*%
%TO.P,R12,2*%
%TO.N,BME_SCK*%
X186750000Y-103750000D03*
%TO.P,R12,1*%
%TO.N,SCK*%
X188750000Y-103750000D03*
%TD*%
D27*
%TO.P,R11,2*%
%TO.N,BME_SDO*%
X184250000Y-104750000D03*
%TO.P,R11,1*%
%TO.N,BME_MISO*%
X182250000Y-104750000D03*
%TD*%
D25*
%TO.P,R10,2*%
%TO.N,D13*%
X165500000Y-99000000D03*
%TO.P,R10,1*%
%TO.N,3.3V*%
X165500000Y-97000000D03*
%TD*%
D27*
%TO.P,R9,2*%
%TO.N,D12*%
X188750000Y-97000000D03*
%TO.P,R9,1*%
%TO.N,3.3V*%
X186750000Y-97000000D03*
%TD*%
D26*
%TO.P,R8,2,2*%
%TO.N,Net-(U2-PROG)*%
X235750000Y-98250000D03*
%TO.P,R8,1,1*%
%TO.N,GND*%
X237750000Y-98250000D03*
%TD*%
D13*
%TO.P,R7,2,2*%
%TO.N,Net-(Q1-S)*%
X234112500Y-110000000D03*
%TO.P,R7,1,1*%
%TO.N,Net-(U3-EN)*%
X234112500Y-112000000D03*
%TD*%
D25*
%TO.P,R6,2,2*%
%TO.N,Net-(D3-A)*%
X242750000Y-93975000D03*
%TO.P,R6,1,1*%
%TO.N,V_USB*%
X242750000Y-91975000D03*
%TD*%
D26*
%TO.P,R5,2,2*%
%TO.N,V_USB*%
X229612500Y-111000000D03*
%TO.P,R5,1,1*%
%TO.N,GND*%
X231612500Y-111000000D03*
%TD*%
%TO.P,R4,2,2*%
%TO.N,3.3V*%
X177600000Y-120900000D03*
%TO.P,R4,1,1*%
%TO.N,SWCLK*%
X179600000Y-120900000D03*
%TD*%
D27*
%TO.P,R2,2,2*%
%TO.N,V_DIV*%
X218650000Y-120800000D03*
%TO.P,R2,1,1*%
%TO.N,GND*%
X216650000Y-120800000D03*
%TD*%
%TO.P,R1,2,2*%
%TO.N,V_BATT*%
X222900000Y-120800000D03*
%TO.P,R1,1,1*%
%TO.N,V_DIV*%
X220900000Y-120800000D03*
%TD*%
D28*
%TO.P,Q1,3,D*%
%TO.N,V_BATT*%
X230612500Y-106500000D03*
%TO.P,Q1,2,S*%
%TO.N,Net-(Q1-S)*%
X231562500Y-108775000D03*
%TO.P,Q1,1,G*%
%TO.N,V_USB*%
X229662500Y-108775000D03*
%TD*%
D29*
%TO.P,L1,2,2*%
%TO.N,Net-(U1-VSW)*%
X199750000Y-108150000D03*
%TO.P,L1,1,1*%
%TO.N,Net-(U1-VDDCORE)*%
X199750000Y-105850000D03*
%TD*%
D17*
%TO.P,J15,4,Pin_4*%
%TO.N,BME_CSB*%
X184250000Y-89250000D03*
%TO.P,J15,3,Pin_3*%
%TO.N,BME_SDI*%
X181710000Y-89250000D03*
%TO.P,J15,2,Pin_2*%
%TO.N,BME_SCK*%
X179170000Y-89250000D03*
D16*
%TO.P,J15,1,Pin_1*%
%TO.N,BME_SDO*%
X176630000Y-89250000D03*
%TD*%
D30*
%TO.P,J14,9,SHLD*%
%TO.N,Net-(J14-SHLD)*%
X156500000Y-114500000D03*
X157500000Y-100990000D03*
D31*
X170650000Y-102950000D03*
X170650000Y-108650000D03*
D32*
%TO.P,J14,8,DAT1*%
%TO.N,unconnected-(J14-DAT1-Pad8)*%
X160350000Y-102140000D03*
%TO.P,J14,7,DATA_OUT*%
%TO.N,Net-(J14-DATA_OUT)*%
X160350000Y-103240000D03*
%TO.P,J14,6,GND*%
%TO.N,GND*%
X160150000Y-104340000D03*
%TO.P,J14,5,SCLK*%
%TO.N,Net-(J14-SCLK)*%
X160350000Y-105440000D03*
%TO.P,J14,4,VDD*%
%TO.N,3.3V*%
X160150000Y-106540000D03*
%TO.P,J14,3,DATA_IN*%
%TO.N,Net-(J14-DATA_IN)*%
X160350000Y-107640000D03*
%TO.P,J14,2,CS*%
%TO.N,Net-(J14-CS)*%
X160750000Y-108740000D03*
%TO.P,J14,1,DAT2*%
%TO.N,unconnected-(J14-DAT2-Pad1)*%
X160350000Y-109840000D03*
%TD*%
D33*
%TO.P,J13,2*%
%TO.N,V_BATT*%
X251200000Y-96200000D03*
D34*
%TO.P,J13,1*%
%TO.N,GND*%
X251200000Y-101200000D03*
%TD*%
D17*
%TO.P,J12,4,Pin_4*%
%TO.N,ID*%
X244330000Y-126250000D03*
%TO.P,J12,3,Pin_3*%
%TO.N,D-*%
X241790000Y-126250000D03*
%TO.P,J12,2,Pin_2*%
%TO.N,D+*%
X239250000Y-126250000D03*
D16*
%TO.P,J12,1,Pin_1*%
%TO.N,V_USB*%
X236710000Y-126250000D03*
%TD*%
D17*
%TO.P,J11,4,Pin_4*%
%TO.N,GND*%
X231580000Y-126250000D03*
%TO.P,J11,3,Pin_3*%
%TO.N,V_USB*%
X229040000Y-126250000D03*
%TO.P,J11,2,Pin_2*%
%TO.N,V_BATT*%
X226500000Y-126250000D03*
D16*
%TO.P,J11,1,Pin_1*%
%TO.N,3.3V*%
X223960000Y-126250000D03*
%TD*%
D35*
%TO.P,J10,SH*%
%TO.N,Net-(JP2-A)*%
X250500000Y-117500000D03*
X250500000Y-109900000D03*
D36*
X250500000Y-114900000D03*
X250500000Y-112500000D03*
D37*
X247950000Y-116800000D03*
X247950000Y-110600000D03*
D38*
%TO.P,J10,1*%
%TO.N,V_USB*%
X247825000Y-115000000D03*
%TO.P,J10,4*%
%TO.N,ID*%
X247825000Y-113050000D03*
%TO.P,J10,5*%
%TO.N,GND*%
X247825000Y-112400000D03*
%TO.P,J10,2*%
%TO.N,D+*%
X247825000Y-114350000D03*
%TO.P,J10,3*%
%TO.N,D-*%
X247825000Y-113700000D03*
%TD*%
D17*
%TO.P,J8,4,Pin_4*%
%TO.N,GND*%
X182870000Y-126250000D03*
%TO.P,J8,3,Pin_3*%
%TO.N,SWCLK*%
X180330000Y-126250000D03*
%TO.P,J8,2,Pin_2*%
%TO.N,SWDIO*%
X177790000Y-126250000D03*
D16*
%TO.P,J8,1,Pin_1*%
%TO.N,3.3V*%
X175250000Y-126250000D03*
%TD*%
D17*
%TO.P,J7,6,Pin_6*%
%TO.N,D13*%
X201800000Y-89250000D03*
%TO.P,J7,5,Pin_5*%
%TO.N,D12*%
X204340000Y-89250000D03*
%TO.P,J7,4,Pin_4*%
%TO.N,D11*%
X206880000Y-89250000D03*
%TO.P,J7,3,Pin_3*%
%TO.N,D10*%
X209420000Y-89250000D03*
%TO.P,J7,2,Pin_2*%
%TO.N,D8_Pix*%
X211960000Y-89250000D03*
D16*
%TO.P,J7,1,Pin_1*%
%TO.N,D4*%
X214500000Y-89250000D03*
%TD*%
D17*
%TO.P,J6,2,Pin_2*%
%TO.N,V_DIV*%
X201210000Y-126250000D03*
D16*
%TO.P,J6,1,Pin_1*%
%TO.N,AREF*%
X203750000Y-126250000D03*
%TD*%
D17*
%TO.P,J5,4,Pin_4*%
%TO.N,A5*%
X216000000Y-126250000D03*
%TO.P,J5,3,Pin_3*%
%TO.N,A4*%
X213460000Y-126250000D03*
%TO.P,J5,2,Pin_2*%
%TO.N,A1*%
X210920000Y-126250000D03*
D16*
%TO.P,J5,1,Pin_1*%
%TO.N,A0*%
X208380000Y-126250000D03*
%TD*%
%TO.P,J3,1,Pin_1*%
%TO.N,RX_D0*%
X225250000Y-89250000D03*
D17*
%TO.P,J3,2,Pin_2*%
%TO.N,TX_D1*%
X222710000Y-89250000D03*
%TO.P,J3,3,Pin_3*%
%TO.N,GND*%
X220170000Y-89250000D03*
%TD*%
%TO.P,J2,3,Pin_3*%
%TO.N,SCK*%
X190195000Y-89250000D03*
%TO.P,J2,2,Pin_2*%
%TO.N,MISO*%
X192735000Y-89250000D03*
D16*
%TO.P,J2,1,Pin_1*%
%TO.N,MOSI*%
X195275000Y-89250000D03*
%TD*%
D17*
%TO.P,J1,2,Pin_2*%
%TO.N,SCL*%
X165500000Y-126250000D03*
D16*
%TO.P,J1,1,Pin_1*%
%TO.N,SDA*%
X168040000Y-126250000D03*
%TD*%
D39*
%TO.P,D3,2,A*%
%TO.N,Net-(D3-A)*%
X242750000Y-95950000D03*
%TO.P,D3,1,K*%
%TO.N,Net-(D3-K)*%
X242750000Y-98000000D03*
%TD*%
D40*
%TO.P,D1,4,DIN*%
%TO.N,D8_Pix*%
X213000000Y-93200000D03*
%TO.P,D1,3,VSS*%
%TO.N,GND*%
X213000000Y-92100000D03*
%TO.P,D1,2,DOUT*%
%TO.N,unconnected-(D1-DOUT-Pad2)*%
X214830000Y-92100000D03*
%TO.P,D1,1,VDD*%
%TO.N,3.3V*%
X214830000Y-93200000D03*
%TD*%
D41*
%TO.P,C22,2*%
%TO.N,GND*%
X180500000Y-101362500D03*
%TO.P,C22,1*%
%TO.N,3.3V*%
X180500000Y-99637500D03*
%TD*%
D42*
%TO.P,C21,2*%
%TO.N,GND*%
X162000000Y-99000000D03*
%TO.P,C21,1*%
%TO.N,3.3V*%
X160275000Y-99000000D03*
%TD*%
D41*
%TO.P,C20,2*%
%TO.N,GND*%
X179000000Y-113500000D03*
%TO.P,C20,1*%
%TO.N,3.3V*%
X179000000Y-111775000D03*
%TD*%
D42*
%TO.P,C19,2*%
%TO.N,GND*%
X242612500Y-111750000D03*
%TO.P,C19,1*%
%TO.N,3.3V*%
X240887500Y-111750000D03*
%TD*%
%TO.P,C18,2*%
%TO.N,GND*%
X242612500Y-109990000D03*
%TO.P,C18,1*%
%TO.N,3.3V*%
X240887500Y-109990000D03*
%TD*%
D41*
%TO.P,C17,2*%
%TO.N,GND*%
X240250000Y-94362500D03*
%TO.P,C17,1*%
%TO.N,V_BATT*%
X240250000Y-92637500D03*
%TD*%
D42*
%TO.P,C16,2*%
%TO.N,GND*%
X232862500Y-121100000D03*
%TO.P,C16,1*%
%TO.N,3.3V*%
X231137500Y-121100000D03*
%TD*%
%TO.P,C15,2*%
%TO.N,GND*%
X232862500Y-119300000D03*
%TO.P,C15,1*%
%TO.N,3.3V*%
X231137500Y-119300000D03*
%TD*%
D43*
%TO.P,C14,2*%
%TO.N,GND*%
X234112500Y-108000000D03*
%TO.P,C14,1*%
%TO.N,Net-(Q1-S)*%
X235837500Y-108000000D03*
%TD*%
D42*
%TO.P,C13,2*%
%TO.N,GND*%
X232825000Y-117600000D03*
%TO.P,C13,1*%
%TO.N,3.3V*%
X231100000Y-117600000D03*
%TD*%
D41*
%TO.P,C12,2*%
%TO.N,GND*%
X206500000Y-123112500D03*
%TO.P,C12,1*%
%TO.N,AREF*%
X206500000Y-121387500D03*
%TD*%
D42*
%TO.P,C11,2*%
%TO.N,GND*%
X237612500Y-91250000D03*
%TO.P,C11,1*%
%TO.N,V_USB*%
X235887500Y-91250000D03*
%TD*%
D43*
%TO.P,C10,2*%
%TO.N,GND*%
X195637500Y-106000000D03*
%TO.P,C10,1*%
%TO.N,Net-(U1-VDDCORE)*%
X197362500Y-106000000D03*
%TD*%
%TO.P,C9,2*%
%TO.N,GND*%
X195637500Y-104000000D03*
%TO.P,C9,1*%
%TO.N,Net-(U1-VDDCORE)*%
X197362500Y-104000000D03*
%TD*%
D42*
%TO.P,C8,2*%
%TO.N,GND*%
X214862500Y-98750000D03*
%TO.P,C8,1*%
%TO.N,3.3V*%
X213137500Y-98750000D03*
%TD*%
%TO.P,C7,2*%
%TO.N,GND*%
X214862500Y-100500000D03*
%TO.P,C7,1*%
%TO.N,3.3V*%
X213137500Y-100500000D03*
%TD*%
%TO.P,C5,2*%
%TO.N,GND*%
X214875000Y-97050000D03*
%TO.P,C5,1*%
%TO.N,3.3V*%
X213150000Y-97050000D03*
%TD*%
%TO.P,C4,2*%
%TO.N,GND*%
X214825000Y-95250000D03*
%TO.P,C4,1*%
%TO.N,3.3V*%
X213100000Y-95250000D03*
%TD*%
D41*
%TO.P,C3,2*%
%TO.N,GND*%
X222500000Y-116475000D03*
%TO.P,C3,1*%
%TO.N,3.3V*%
X222500000Y-114750000D03*
%TD*%
D43*
%TO.P,C2,2*%
%TO.N,Net-(U1-PA01)*%
X208500000Y-117250000D03*
%TO.P,C2,1*%
%TO.N,GND*%
X210225000Y-117250000D03*
%TD*%
D42*
%TO.P,C1,2*%
%TO.N,Net-(U1-PA00)*%
X201862500Y-117250000D03*
%TO.P,C1,1*%
%TO.N,GND*%
X200137500Y-117250000D03*
%TD*%
D44*
%TO.N,SDA*%
X171400000Y-121600000D03*
X176700000Y-116300000D03*
%TO.N,GND*%
X237700000Y-113500000D03*
%TO.N,V_BATT*%
X230600000Y-94800000D03*
X232100000Y-94800000D03*
%TO.N,GND*%
X239500000Y-98700000D03*
X240300000Y-95700000D03*
X238800000Y-92300000D03*
%TO.N,3.3V*%
X211600000Y-97800000D03*
X204700000Y-108100000D03*
%TO.N,GND*%
X204700000Y-106700000D03*
%TO.N,D8_Pix*%
X206200000Y-100500000D03*
X205600000Y-105300000D03*
X206200000Y-95400000D03*
X210800000Y-93400000D03*
%TO.N,MOSI*%
X174100000Y-120600000D03*
X193500000Y-101500000D03*
%TO.N,SCK*%
X187800000Y-119400000D03*
X176600000Y-119400000D03*
X179900000Y-119400000D03*
%TO.N,SD_MISO*%
X172800000Y-113900000D03*
%TO.N,Net-(J14-SCLK)*%
X167900000Y-114800000D03*
X161900000Y-114500000D03*
%TO.N,3.3V*%
X158600000Y-102900000D03*
%TO.N,Net-(J14-DATA_IN)*%
X162600000Y-116500000D03*
X158300000Y-112900000D03*
%TO.N,Net-(J14-SHLD)*%
X156100000Y-104500000D03*
%TO.N,3.3V*%
X162275000Y-97000000D03*
%TO.N,GND*%
X163600000Y-99000000D03*
X158100000Y-104600000D03*
%TO.N,Net-(J14-SHLD)*%
X157300000Y-110900000D03*
%TO.N,D13*%
X166000000Y-105600000D03*
%TO.N,Net-(JP7-B)*%
X167900000Y-111200000D03*
X163600000Y-110200000D03*
%TO.N,D13*%
X165900000Y-101500000D03*
%TO.N,GND*%
X162300000Y-105300000D03*
%TO.N,3.3V*%
X164000000Y-114000000D03*
X187900000Y-125900000D03*
%TO.N,SCL*%
X197900000Y-109300000D03*
X207300000Y-108900000D03*
X186700000Y-114500000D03*
%TO.N,GND*%
X181500000Y-114800000D03*
%TO.N,3.3V*%
X181500000Y-110100000D03*
X185100000Y-117400000D03*
%TO.N,MISO*%
X194200000Y-102500000D03*
X191800000Y-102500000D03*
%TO.N,BME_SDI*%
X192700000Y-106000000D03*
X192525000Y-98975000D03*
%TO.N,BME_CSB*%
X189200000Y-93600000D03*
X186800000Y-91300000D03*
%TO.N,MISO*%
X191800000Y-96000000D03*
X191800000Y-94400000D03*
%TO.N,D12*%
X189200000Y-95200000D03*
%TO.N,SCK*%
X190300000Y-94500000D03*
X190300000Y-96000000D03*
%TO.N,BME_SCK*%
X179038032Y-93450500D03*
X186600000Y-105800000D03*
%TO.N,BME_MISO*%
X179100000Y-94900000D03*
%TO.N,SCK*%
X190400000Y-103500000D03*
%TO.N,MISO*%
X201000000Y-102400000D03*
%TO.N,BME_MISO*%
X181200000Y-106400000D03*
%TO.N,GND*%
X180500000Y-102800000D03*
X183500000Y-101400000D03*
%TO.N,3.3V*%
X184800000Y-98000000D03*
%TO.N,D12*%
X186200000Y-95400000D03*
%TO.N,MOSI*%
X201400000Y-104000000D03*
X199100000Y-104100000D03*
%TO.N,SCK*%
X206224001Y-106397117D03*
X194100000Y-104700000D03*
%TO.N,3.3V*%
X197600000Y-91500000D03*
%TO.N,GND*%
X199400000Y-91600000D03*
X196400000Y-98000000D03*
X194200000Y-106000000D03*
%TO.N,RX_D0*%
X225300000Y-94900000D03*
X211500000Y-94900000D03*
%TO.N,TX_D1*%
X211500000Y-96100000D03*
X222600000Y-96100000D03*
%TO.N,GND*%
X195900000Y-126500000D03*
X186400000Y-126100000D03*
%TO.N,SWDIO*%
X177800000Y-124200000D03*
X181300000Y-122500000D03*
%TO.N,SWCLK*%
X190800000Y-119900000D03*
X200100000Y-110000000D03*
%TO.N,SWDIO*%
X200400000Y-111000000D03*
X193000000Y-118300000D03*
%TO.N,V_DIV*%
X201500000Y-111000000D03*
X201300000Y-123800000D03*
X218600000Y-124800000D03*
%TO.N,GND*%
X205000000Y-123100000D03*
%TO.N,A1*%
X209800000Y-112300000D03*
X209100000Y-119300000D03*
%TO.N,3.3V*%
X208600000Y-112300000D03*
%TO.N,GND*%
X200200000Y-115700000D03*
X208100000Y-115700000D03*
%TO.N,AREF*%
X206900000Y-119800000D03*
X206900000Y-112000000D03*
%TO.N,A0*%
X206673502Y-110400000D03*
X208400000Y-123800000D03*
%TO.N,3.3V*%
X221300000Y-126200000D03*
X233600000Y-115100000D03*
%TO.N,GND*%
X230600000Y-113500000D03*
X233000000Y-106600000D03*
%TO.N,3.3V*%
X239800000Y-108600000D03*
%TO.N,V_USB*%
X245700000Y-116400000D03*
%TO.N,Net-(JP2-A)*%
X251500000Y-107300000D03*
%TO.N,GND*%
X244600000Y-111800000D03*
%TO.N,ID*%
X244400000Y-115300000D03*
%TO.N,D+*%
X245700000Y-114600000D03*
X242600000Y-114500000D03*
X241000000Y-114400000D03*
%TO.N,D-*%
X245700000Y-113500000D03*
X206948501Y-107300000D03*
X238500000Y-119300000D03*
X240100000Y-119300000D03*
%TO.N,3.3V*%
X212500000Y-115900000D03*
%TO.N,GND*%
X224100000Y-115800000D03*
%TO.N,3.3V*%
X224100000Y-114300000D03*
%TO.N,D5*%
X211500000Y-105800000D03*
X216900000Y-105800000D03*
%TO.N,D9*%
X210100000Y-104200000D03*
X217000000Y-104200000D03*
%TO.N,MOSI*%
X204451789Y-104983930D03*
X216500000Y-97000000D03*
%TO.N,D6*%
X210600000Y-98700000D03*
X216500000Y-98700000D03*
%TO.N,SCK*%
X217300000Y-101600000D03*
X211100000Y-100500000D03*
%TO.N,GND*%
X211700000Y-92100000D03*
X216400000Y-108900000D03*
%TO.N,3.3V*%
X216400000Y-110000000D03*
%TO.N,D+*%
X206323719Y-104080062D03*
%TO.N,GND*%
X202700000Y-101800000D03*
%TO.N,3.3V*%
X202700000Y-103100000D03*
%TO.N,GND*%
X214900000Y-102200000D03*
%TD*%
D45*
%TO.N,SDA*%
X168040000Y-124960000D02*
X171400000Y-121600000D01*
X182700000Y-116300000D02*
X182750000Y-116250000D01*
X182750000Y-116250000D02*
X182750000Y-113250000D01*
X168040000Y-126250000D02*
X168040000Y-124960000D01*
X176700000Y-116300000D02*
X182700000Y-116300000D01*
%TO.N,3.3V*%
X175250000Y-126250000D02*
X175250000Y-123250000D01*
X175250000Y-123250000D02*
X177600000Y-120900000D01*
%TO.N,SWCLK*%
X180330000Y-126250000D02*
X180330000Y-121630000D01*
X180330000Y-121630000D02*
X179600000Y-120900000D01*
%TO.N,GND*%
X216650000Y-120800000D02*
X216650000Y-119890000D01*
X216650000Y-119890000D02*
X219750000Y-116790000D01*
%TO.N,V_BATT*%
X226500000Y-126250000D02*
X226500000Y-120700000D01*
X222900000Y-120800000D02*
X226400000Y-120800000D01*
X226500000Y-120700000D02*
X226500000Y-110603249D01*
X226400000Y-120800000D02*
X226500000Y-120700000D01*
%TO.N,V_DIV*%
X218650000Y-120800000D02*
X218650000Y-124750000D01*
X218650000Y-124750000D02*
X218600000Y-124800000D01*
%TO.N,GND*%
X232862500Y-121100000D02*
X232862500Y-124967500D01*
X232862500Y-124967500D02*
X231580000Y-126250000D01*
%TO.N,Net-(J14-SHLD)*%
X170650000Y-108650000D02*
X170650000Y-102950000D01*
%TO.N,GND*%
X236971751Y-111050000D02*
X237700000Y-111778249D01*
X237700000Y-111778249D02*
X237700000Y-113500000D01*
%TO.N,Net-(D3-A)*%
X242750000Y-93975000D02*
X242750000Y-95950000D01*
%TO.N,V_BATT*%
X240250000Y-92637500D02*
X240662500Y-93050000D01*
X240662500Y-93050000D02*
X248050000Y-93050000D01*
X248050000Y-93050000D02*
X251200000Y-96200000D01*
%TO.N,V_USB*%
X242750000Y-91975000D02*
X241225000Y-90450000D01*
X241225000Y-90450000D02*
X236687500Y-90450000D01*
X236687500Y-90450000D02*
X235887500Y-91250000D01*
%TO.N,V_BATT*%
X230600000Y-94800000D02*
X230600000Y-106487500D01*
%TO.N,V_USB*%
X231400000Y-93800000D02*
X235612500Y-93800000D01*
X231375500Y-93824500D02*
X231400000Y-93800000D01*
X231375500Y-107071251D02*
X231375500Y-93824500D01*
X229671751Y-108775000D02*
X231375500Y-107071251D01*
%TO.N,V_BATT*%
X237887500Y-93800000D02*
X236946751Y-93800000D01*
X235946751Y-94800000D02*
X232100000Y-94800000D01*
X236946751Y-93800000D02*
X235946751Y-94800000D01*
%TO.N,Net-(U2-PROG)*%
X235750000Y-98250000D02*
X235750000Y-95837500D01*
%TO.N,GND*%
X237750000Y-98250000D02*
X239050000Y-98250000D01*
X239050000Y-98250000D02*
X239500000Y-98700000D01*
%TO.N,Net-(D3-K)*%
X238100000Y-95700000D02*
X240600000Y-98200000D01*
X240600000Y-98200000D02*
X242550000Y-98200000D01*
%TO.N,GND*%
X240250000Y-94362500D02*
X240250000Y-95650000D01*
X240250000Y-95650000D02*
X240300000Y-95700000D01*
X240250000Y-94362500D02*
X239862500Y-94750000D01*
X239862500Y-94750000D02*
X237887500Y-94750000D01*
%TO.N,V_BATT*%
X237887500Y-93800000D02*
X239087500Y-93800000D01*
X239087500Y-93800000D02*
X240250000Y-92637500D01*
%TO.N,GND*%
X237750000Y-91250000D02*
X238800000Y-92300000D01*
%TO.N,V_USB*%
X235612500Y-93800000D02*
X235612500Y-91525000D01*
%TO.N,V_BATT*%
X226500000Y-110603249D02*
X230603249Y-106500000D01*
%TO.N,3.3V*%
X213137500Y-97800000D02*
X213137500Y-97062500D01*
X213137500Y-98750000D02*
X213137500Y-97800000D01*
X213137500Y-97800000D02*
X211600000Y-97800000D01*
%TO.N,D4*%
X216824500Y-91574500D02*
X214500000Y-89250000D01*
X216824500Y-93100098D02*
X216824500Y-91574500D01*
X215462801Y-104999999D02*
X215749501Y-104713299D01*
X214500000Y-104999999D02*
X215462801Y-104999999D01*
X215749501Y-94175097D02*
X216824500Y-93100098D01*
X215749501Y-104713299D02*
X215749501Y-94175097D01*
%TO.N,3.3V*%
X203146200Y-108000000D02*
X204600000Y-108000000D01*
X204600000Y-108000000D02*
X204700000Y-108100000D01*
%TO.N,GND*%
X203146200Y-107000000D02*
X204400000Y-107000000D01*
X204400000Y-107000000D02*
X204700000Y-106700000D01*
D46*
%TO.N,D+*%
X206073100Y-103829443D02*
X206323719Y-104080062D01*
%TO.N,D-*%
X206573099Y-102573100D02*
X206573099Y-103340199D01*
D45*
%TO.N,A0*%
X206073100Y-113926900D02*
X206073100Y-111307281D01*
%TO.N,D8_Pix*%
X205499501Y-110609500D02*
X205499501Y-105400499D01*
X210800000Y-93400000D02*
X212800000Y-93400000D01*
X205499501Y-105400499D02*
X205600000Y-105300000D01*
%TO.N,SDA*%
X209862200Y-109675000D02*
X213537202Y-105999999D01*
%TO.N,D8_Pix*%
X204109001Y-112000000D02*
X205499501Y-110609500D01*
%TO.N,SDA*%
X186474695Y-115300000D02*
X185000000Y-113825305D01*
X199574695Y-115300000D02*
X186474695Y-115300000D01*
X205949002Y-109675000D02*
X205949002Y-110795689D01*
D46*
%TO.N,D-*%
X207023219Y-107225282D02*
X206948501Y-107300000D01*
X207023219Y-103790319D02*
X207023219Y-107225282D01*
D45*
%TO.N,D8_Pix*%
X203146200Y-112000000D02*
X204109001Y-112000000D01*
%TO.N,A0*%
X206673502Y-110706879D02*
X206673502Y-110400000D01*
%TO.N,MOSI*%
X204435720Y-104999999D02*
X204451789Y-104983930D01*
%TO.N,SCK*%
X207300305Y-108025000D02*
X206599695Y-108025000D01*
X211073101Y-102573100D02*
X211073101Y-104252204D01*
%TO.N,SDA*%
X209862200Y-109675000D02*
X205949002Y-109675000D01*
D46*
%TO.N,D+*%
X206073100Y-102573100D02*
X206073100Y-103829443D01*
%TO.N,D-*%
X206573099Y-103340199D02*
X207023219Y-103790319D01*
D45*
%TO.N,SCK*%
X211073101Y-104252204D02*
X207300305Y-108025000D01*
X206599695Y-108025000D02*
X206224001Y-107649306D01*
%TO.N,A0*%
X206073100Y-111307281D02*
X206673502Y-110706879D01*
%TO.N,SDA*%
X204044691Y-112700000D02*
X202174695Y-112700000D01*
%TO.N,MOSI*%
X203146200Y-104999999D02*
X204435720Y-104999999D01*
%TO.N,SCK*%
X206224001Y-107649306D02*
X206224001Y-106397117D01*
%TO.N,D8_Pix*%
X206200000Y-100500000D02*
X206200000Y-95400000D01*
%TO.N,SDA*%
X202174695Y-112700000D02*
X199574695Y-115300000D01*
X205949002Y-110795689D02*
X204044691Y-112700000D01*
%TO.N,D13*%
X165500000Y-99000000D02*
X175455000Y-89045000D01*
X175455000Y-88075000D02*
X175530000Y-88000000D01*
X175530000Y-88000000D02*
X200550000Y-88000000D01*
X175455000Y-89045000D02*
X175455000Y-88075000D01*
X200550000Y-88000000D02*
X201800000Y-89250000D01*
%TO.N,MOSI*%
X167100000Y-120600000D02*
X174100000Y-120600000D01*
X165000000Y-118500000D02*
X167100000Y-120600000D01*
%TO.N,SCK*%
X176575000Y-119425000D02*
X176600000Y-119400000D01*
X168875000Y-119425000D02*
X176575000Y-119425000D01*
X179900000Y-119400000D02*
X187800000Y-119400000D01*
X167950000Y-118500000D02*
X168875000Y-119425000D01*
%TO.N,SD_MISO*%
X172800000Y-116600000D02*
X172800000Y-113900000D01*
X170900000Y-118500000D02*
X172800000Y-116600000D01*
%TO.N,Net-(J14-SCLK)*%
X160850000Y-105440000D02*
X161900000Y-106490000D01*
X161900000Y-106490000D02*
X161900000Y-114500000D01*
X167900000Y-114800000D02*
X167900000Y-116450000D01*
%TO.N,Net-(J14-DATA_OUT)*%
X160350000Y-103240000D02*
X161350000Y-103240000D01*
X161350000Y-103240000D02*
X162985000Y-104875000D01*
X162985000Y-104875000D02*
X166375000Y-104875000D01*
X166375000Y-104875000D02*
X169625000Y-108125000D01*
X169625000Y-108125000D02*
X169625000Y-115225000D01*
X169625000Y-115225000D02*
X170900000Y-116500000D01*
%TO.N,3.3V*%
X157300000Y-104200000D02*
X158600000Y-102900000D01*
X159014695Y-106540000D02*
X157300000Y-104825305D01*
X157300000Y-104825305D02*
X157300000Y-104200000D01*
X160150000Y-106540000D02*
X159014695Y-106540000D01*
%TO.N,Net-(J14-DATA_IN)*%
X160000000Y-107640000D02*
X158300000Y-109340000D01*
X158300000Y-109340000D02*
X158300000Y-112900000D01*
X162600000Y-116500000D02*
X165000000Y-116500000D01*
%TO.N,Net-(J14-SHLD)*%
X157500000Y-103100000D02*
X156100000Y-104500000D01*
X157500000Y-100990000D02*
X157500000Y-103100000D01*
X157500000Y-100990000D02*
X161000000Y-100990000D01*
X162960000Y-102950000D02*
X170650000Y-102950000D01*
X161000000Y-100990000D02*
X162960000Y-102950000D01*
%TO.N,3.3V*%
X160275000Y-99000000D02*
X162275000Y-97000000D01*
X162275000Y-97000000D02*
X165500000Y-97000000D01*
%TO.N,GND*%
X162000000Y-99000000D02*
X163600000Y-99000000D01*
X158100000Y-104600000D02*
X159890000Y-104600000D01*
%TO.N,Net-(J14-SHLD)*%
X156500000Y-111700000D02*
X157300000Y-110900000D01*
X156500000Y-114500000D02*
X156500000Y-111700000D01*
%TO.N,Net-(J14-CS)*%
X159275000Y-116225000D02*
X159275000Y-109115000D01*
X159650000Y-108740000D02*
X160750000Y-108740000D01*
X159275000Y-109115000D02*
X159650000Y-108740000D01*
%TO.N,D13*%
X162875000Y-108725000D02*
X166000000Y-105600000D01*
X162875000Y-115175000D02*
X162875000Y-108725000D01*
X159550000Y-118500000D02*
X162875000Y-115175000D01*
%TO.N,Net-(JP7-B)*%
X166900000Y-110200000D02*
X167900000Y-111200000D01*
X163600000Y-110200000D02*
X166900000Y-110200000D01*
%TO.N,D13*%
X165900000Y-101500000D02*
X165900000Y-99400000D01*
%TO.N,3.3V*%
X188500000Y-126500000D02*
X187900000Y-125900000D01*
X189420000Y-126500000D02*
X188500000Y-126500000D01*
%TO.N,SCL*%
X186700000Y-113600000D02*
X186700000Y-114500000D01*
X186700000Y-113450000D02*
X186700000Y-113600000D01*
X186700000Y-113600000D02*
X191025000Y-109275000D01*
X191025000Y-109275000D02*
X197875000Y-109275000D01*
X197875000Y-109275000D02*
X197900000Y-109300000D01*
X207300000Y-108900000D02*
X209425305Y-108900000D01*
X209425305Y-108900000D02*
X212825305Y-105500000D01*
X212825305Y-105500000D02*
X214500000Y-105500000D01*
%TO.N,SDA*%
X213537202Y-105999999D02*
X214500000Y-105999999D01*
%TO.N,SCL*%
X185000000Y-111750000D02*
X186700000Y-113450000D01*
%TO.N,GND*%
X181556200Y-114743800D02*
X181500000Y-114800000D01*
X181556200Y-113250000D02*
X181556200Y-114743800D01*
X181556200Y-113250000D02*
X179250000Y-113250000D01*
%TO.N,SDA*%
X182750000Y-113250000D02*
X184500000Y-113250000D01*
X184500000Y-113250000D02*
X185000000Y-113750000D01*
%TO.N,SCL*%
X182750000Y-112050002D02*
X184699998Y-112050002D01*
%TO.N,3.3V*%
X181556200Y-110156200D02*
X181500000Y-110100000D01*
X181556200Y-112050002D02*
X181556200Y-110156200D01*
X179275002Y-112050002D02*
X181556200Y-112050002D01*
X185000000Y-109750000D02*
X183276002Y-109750000D01*
X183276002Y-109750000D02*
X181556200Y-111469802D01*
X181556200Y-111469802D02*
X181556200Y-112050002D01*
X185000000Y-117300000D02*
X185100000Y-117400000D01*
X185000000Y-115750000D02*
X185000000Y-117300000D01*
%TO.N,MISO*%
X194200000Y-102500000D02*
X191800000Y-102500000D01*
%TO.N,MOSI*%
X188750000Y-101500000D02*
X193500000Y-101500000D01*
%TO.N,BME_SDI*%
X192700000Y-106000000D02*
X189386827Y-106000000D01*
X189386827Y-106000000D02*
X187700000Y-104313173D01*
X187700000Y-104313173D02*
X187700000Y-102450000D01*
X187700000Y-102450000D02*
X186750000Y-101500000D01*
%TO.N,MOSI*%
X195275000Y-89250000D02*
X195275000Y-90425000D01*
X196500000Y-101500000D02*
X199100000Y-104100000D01*
X195275000Y-90425000D02*
X193500000Y-92200000D01*
X193500000Y-92200000D02*
X193500000Y-101500000D01*
X193500000Y-101500000D02*
X196500000Y-101500000D01*
%TO.N,BME_SDI*%
X192525000Y-94025000D02*
X192525000Y-98975000D01*
X191375000Y-92875000D02*
X192525000Y-94025000D01*
X185335000Y-92875000D02*
X191375000Y-92875000D01*
X181710000Y-89250000D02*
X185335000Y-92875000D01*
%TO.N,BME_CSB*%
X184250000Y-89250000D02*
X186300000Y-91300000D01*
X186300000Y-91300000D02*
X186800000Y-91300000D01*
X189338173Y-100275000D02*
X187775000Y-100275000D01*
X189200000Y-93600000D02*
X190575305Y-93600000D01*
X190575305Y-93600000D02*
X191075000Y-94099695D01*
X191075000Y-94099695D02*
X191075000Y-98538173D01*
X191075000Y-98538173D02*
X189338173Y-100275000D01*
X187775000Y-100275000D02*
X186750000Y-99250000D01*
%TO.N,MISO*%
X191800000Y-94400000D02*
X191800000Y-96000000D01*
%TO.N,D12*%
X189000000Y-95200000D02*
X189200000Y-95200000D01*
X188750000Y-95450000D02*
X189000000Y-95200000D01*
%TO.N,SCK*%
X190300000Y-94500000D02*
X190300000Y-96000000D01*
%TO.N,BME_SCK*%
X179170000Y-89250000D02*
X179170000Y-93318532D01*
X179170000Y-93318532D02*
X179038032Y-93450500D01*
%TO.N,D12*%
X186200000Y-95400000D02*
X188750000Y-95450000D01*
X188750000Y-95450000D02*
X188750000Y-97000000D01*
%TO.N,BME_SCK*%
X186750000Y-105650000D02*
X186600000Y-105800000D01*
X186750000Y-103750000D02*
X186750000Y-105650000D01*
%TO.N,BME_SDO*%
X184250000Y-104750000D02*
X181875000Y-107125000D01*
X180899695Y-107125000D02*
X176630000Y-102855305D01*
X181875000Y-107125000D02*
X180899695Y-107125000D01*
X176630000Y-102855305D02*
X176630000Y-89250000D01*
%TO.N,BME_MISO*%
X179100000Y-94900000D02*
X179100000Y-104300000D01*
X179100000Y-104300000D02*
X181200000Y-106400000D01*
%TO.N,SCK*%
X190400000Y-103500000D02*
X189000000Y-103500000D01*
%TO.N,MISO*%
X201000000Y-102400000D02*
X201000000Y-102425305D01*
X201000000Y-102425305D02*
X203074695Y-104500000D01*
%TO.N,BME_MISO*%
X182250000Y-105350000D02*
X181200000Y-106400000D01*
X182250000Y-104750000D02*
X182250000Y-105350000D01*
%TO.N,BME_SDO*%
X182312500Y-101700000D02*
X184250000Y-103637500D01*
X184250000Y-103637500D02*
X184250000Y-104750000D01*
%TO.N,GND*%
X180500000Y-101362500D02*
X180500000Y-102800000D01*
X183500000Y-100100000D02*
X183500000Y-101400000D01*
X182312500Y-100100000D02*
X183500000Y-100100000D01*
X183500000Y-100100000D02*
X184300000Y-99300000D01*
X184300000Y-99300000D02*
X184687500Y-99300000D01*
%TO.N,BME_SCK*%
X184700000Y-101700000D02*
X186750000Y-103750000D01*
%TO.N,BME_SDI*%
X184687500Y-100900000D02*
X186150000Y-100900000D01*
X186150000Y-100900000D02*
X186750000Y-101500000D01*
%TO.N,BME_CSB*%
X184687500Y-100100000D02*
X185900000Y-100100000D01*
X185900000Y-100100000D02*
X186750000Y-99250000D01*
%TO.N,3.3V*%
X180500000Y-99637500D02*
X182137500Y-98000000D01*
X182137500Y-98000000D02*
X184800000Y-98000000D01*
X180500000Y-99637500D02*
X181762500Y-100900000D01*
X181762500Y-100900000D02*
X182312500Y-100900000D01*
X180837500Y-99300000D02*
X182312500Y-99300000D01*
X185800000Y-97000000D02*
X184800000Y-98000000D01*
X186750000Y-97000000D02*
X185800000Y-97000000D01*
%TO.N,D12*%
X188750000Y-99250000D02*
X188750000Y-97000000D01*
%TO.N,MOSI*%
X201400000Y-104000000D02*
X201400000Y-104216600D01*
X202183399Y-104999999D02*
X203146200Y-104999999D01*
X201400000Y-104216600D02*
X202183399Y-104999999D01*
%TO.N,SCK*%
X188750000Y-103750000D02*
X189700000Y-104700000D01*
X189700000Y-104700000D02*
X194100000Y-104700000D01*
%TO.N,3.3V*%
X197250000Y-91850000D02*
X197600000Y-91500000D01*
X197250000Y-93000000D02*
X197250000Y-91850000D01*
%TO.N,GND*%
X199500000Y-91700000D02*
X199400000Y-91600000D01*
X199500000Y-93137500D02*
X199500000Y-91700000D01*
X194800000Y-98000000D02*
X196400000Y-98000000D01*
%TO.N,~{RESET}*%
X197250000Y-95000000D02*
X199362500Y-95000000D01*
X198200000Y-98000000D02*
X198200000Y-95950000D01*
X198200000Y-95950000D02*
X197250000Y-95000000D01*
X198200000Y-98000000D02*
X198200000Y-102016600D01*
X198200000Y-102016600D02*
X202183399Y-105999999D01*
X202183399Y-105999999D02*
X203146200Y-105999999D01*
%TO.N,GND*%
X195637500Y-106000000D02*
X194200000Y-106000000D01*
X195637500Y-104000000D02*
X195637500Y-106000000D01*
%TO.N,Net-(U1-VDDCORE)*%
X197362500Y-104000000D02*
X197362500Y-106000000D01*
X197362500Y-106000000D02*
X199600000Y-106000000D01*
%TO.N,Net-(U1-VSW)*%
X199750000Y-108150000D02*
X200400001Y-107499999D01*
X200400001Y-107499999D02*
X203146200Y-107499999D01*
%TO.N,Net-(U1-VDDCORE)*%
X203146200Y-106500001D02*
X200400001Y-106500001D01*
X200400001Y-106500001D02*
X199750000Y-105850000D01*
%TO.N,D13*%
X207073101Y-102573100D02*
X207073101Y-94523101D01*
X207073101Y-94523101D02*
X201800000Y-89250000D01*
%TO.N,D12*%
X207573100Y-102573100D02*
X207573100Y-92483100D01*
X207573100Y-92483100D02*
X204340000Y-89250000D01*
%TO.N,D11*%
X208073099Y-102573100D02*
X208073099Y-90443099D01*
X208073099Y-90443099D02*
X206880000Y-89250000D01*
%TO.N,D10*%
X208573100Y-102573100D02*
X208573100Y-90096900D01*
X208573100Y-90096900D02*
X209420000Y-89250000D01*
%TO.N,RX_D0*%
X225300000Y-94900000D02*
X225250000Y-94850000D01*
X225250000Y-94850000D02*
X225250000Y-89250000D01*
X209073100Y-102573100D02*
X209073100Y-97326900D01*
X209073100Y-97326900D02*
X211500000Y-94900000D01*
%TO.N,TX_D1*%
X222600000Y-96100000D02*
X222710000Y-95990000D01*
X222710000Y-95990000D02*
X222710000Y-89250000D01*
X209573101Y-102573100D02*
X209573101Y-98026899D01*
X209573101Y-98026899D02*
X211500000Y-96100000D01*
%TO.N,GND*%
X192574800Y-124790700D02*
X194090700Y-124790700D01*
X191960000Y-125405500D02*
X192574800Y-124790700D01*
X194090700Y-124790700D02*
X194500000Y-125200000D01*
X194500000Y-125200000D02*
X194500000Y-126500000D01*
X194500000Y-126500000D02*
X195900000Y-126500000D01*
X190690000Y-126500000D02*
X191960000Y-126500000D01*
X186250000Y-126250000D02*
X186400000Y-126100000D01*
X182870000Y-126250000D02*
X186250000Y-126250000D01*
%TO.N,SWCLK*%
X182080000Y-124500000D02*
X189704104Y-124500000D01*
X190690000Y-123514104D02*
X189704104Y-124500000D01*
X182080000Y-124500000D02*
X180330000Y-126250000D01*
%TO.N,SWDIO*%
X177800000Y-124200000D02*
X177800000Y-126240000D01*
X189420000Y-122460004D02*
X181339996Y-122460004D01*
X181339996Y-122460004D02*
X181300000Y-122500000D01*
%TO.N,SWCLK*%
X190690000Y-120010000D02*
X190690000Y-122460004D01*
X201600000Y-108500000D02*
X200100000Y-110000000D01*
X203146200Y-108500000D02*
X201600000Y-108500000D01*
X190800000Y-119900000D02*
X190690000Y-120010000D01*
%TO.N,SWDIO*%
X202183399Y-109000001D02*
X200400000Y-110783400D01*
X200400000Y-110783400D02*
X200400000Y-111000000D01*
X193000000Y-118300000D02*
X189500000Y-118300000D01*
X189500000Y-118300000D02*
X189420000Y-118380000D01*
X189420000Y-118380000D02*
X189420000Y-122460004D01*
X203146200Y-109000001D02*
X202183399Y-109000001D01*
%TO.N,V_DIV*%
X201210000Y-126250000D02*
X201210000Y-123890000D01*
X201210000Y-123890000D02*
X201300000Y-123800000D01*
X201500000Y-111000000D02*
X203146200Y-111000000D01*
%TO.N,AREF*%
X203750000Y-126250000D02*
X203750000Y-123324695D01*
X205687195Y-121387500D02*
X206500000Y-121387500D01*
X203750000Y-123324695D02*
X205687195Y-121387500D01*
%TO.N,GND*%
X205012500Y-123112500D02*
X205000000Y-123100000D01*
X206500000Y-123112500D02*
X205012500Y-123112500D01*
%TO.N,A5*%
X212073101Y-113926900D02*
X212073101Y-115301594D01*
X212073101Y-115301594D02*
X211775000Y-115599695D01*
X211775000Y-122025000D02*
X216000000Y-126250000D01*
X211775000Y-115599695D02*
X211775000Y-122025000D01*
%TO.N,A4*%
X211087500Y-113941299D02*
X211087500Y-123877500D01*
X211087500Y-123877500D02*
X213460000Y-126250000D01*
%TO.N,A1*%
X209800000Y-112300000D02*
X210909001Y-112300000D01*
X209125000Y-124455000D02*
X209125000Y-119325000D01*
X209125000Y-119325000D02*
X209100000Y-119300000D01*
X210909001Y-112300000D02*
X211573100Y-112964099D01*
X211573100Y-112964099D02*
X211573100Y-113926900D01*
X210920000Y-126250000D02*
X209125000Y-124455000D01*
%TO.N,3.3V*%
X208573100Y-112326900D02*
X208600000Y-112300000D01*
X208573100Y-113926900D02*
X208573100Y-112326900D01*
%TO.N,GND*%
X200137500Y-115762500D02*
X200200000Y-115700000D01*
X200137500Y-117250000D02*
X200137500Y-115762500D01*
X210225000Y-117250000D02*
X208675000Y-115700000D01*
X208675000Y-115700000D02*
X208100000Y-115700000D01*
X208073099Y-115673099D02*
X208100000Y-115700000D01*
X208073099Y-113926900D02*
X208073099Y-115673099D01*
%TO.N,Net-(U1-PA00)*%
X201862500Y-117250000D02*
X204000000Y-117250000D01*
X205073100Y-113926900D02*
X205073100Y-116176900D01*
X205073100Y-116176900D02*
X204000000Y-117250000D01*
%TO.N,Net-(U1-PA01)*%
X206500000Y-117250000D02*
X205573099Y-116323099D01*
X205573099Y-116323099D02*
X205573099Y-113926900D01*
X206500000Y-117250000D02*
X208500000Y-117250000D01*
%TO.N,AREF*%
X206573099Y-113926900D02*
X206573099Y-112326901D01*
X206573099Y-112326901D02*
X206900000Y-112000000D01*
X206900000Y-119800000D02*
X206900000Y-120987500D01*
X206900000Y-120987500D02*
X206500000Y-121387500D01*
%TO.N,A0*%
X208380000Y-123820000D02*
X208400000Y-123800000D01*
X208380000Y-126250000D02*
X208380000Y-123820000D01*
%TO.N,V_DIV*%
X218650000Y-120800000D02*
X220900000Y-120800000D01*
%TO.N,3.3V*%
X231137500Y-119300000D02*
X231137500Y-121100000D01*
X231100000Y-117600000D02*
X231100000Y-119262500D01*
X231100000Y-117600000D02*
X233600000Y-115100000D01*
X221350000Y-126250000D02*
X221300000Y-126200000D01*
X223960000Y-126250000D02*
X221350000Y-126250000D01*
%TO.N,V_USB*%
X229040000Y-113660000D02*
X229040000Y-126250000D01*
%TO.N,GND*%
X232862500Y-119300000D02*
X232862500Y-121100000D01*
X232825000Y-117600000D02*
X232825000Y-119262500D01*
%TO.N,V_USB*%
X229612500Y-111000000D02*
X229612500Y-108825000D01*
X229200000Y-113500000D02*
X229612500Y-113087500D01*
X229612500Y-113087500D02*
X229612500Y-111000000D01*
%TO.N,Net-(Q1-S)*%
X232000000Y-113500000D02*
X232787500Y-112712500D01*
X232787500Y-112712500D02*
X232787500Y-110000000D01*
%TO.N,GND*%
X230600000Y-112012500D02*
X230600000Y-113500000D01*
X231612500Y-111000000D02*
X230600000Y-112012500D01*
X234112500Y-107712500D02*
X233000000Y-106600000D01*
%TO.N,Net-(Q1-S)*%
X235837500Y-108000000D02*
X234862500Y-107025000D01*
X234862500Y-107025000D02*
X234862500Y-104250000D01*
X236587500Y-110100000D02*
X236587500Y-108750000D01*
X236587500Y-108750000D02*
X235837500Y-108000000D01*
X234112500Y-110000000D02*
X236487500Y-110000000D01*
X234112500Y-110000000D02*
X232787500Y-110000000D01*
X232787500Y-110000000D02*
X231562500Y-108775000D01*
%TO.N,Net-(U3-EN)*%
X236587500Y-112000000D02*
X234112500Y-112000000D01*
%TO.N,3.3V*%
X240887500Y-109687500D02*
X239800000Y-108600000D01*
X238862500Y-110100000D02*
X240777500Y-110100000D01*
X240887500Y-109990000D02*
X240887500Y-111750000D01*
%TO.N,V_USB*%
X245700000Y-116400000D02*
X247100000Y-115000000D01*
X247100000Y-115000000D02*
X247825000Y-115000000D01*
%TO.N,GND*%
X246750000Y-111800000D02*
X244600000Y-111800000D01*
X247350000Y-112400000D02*
X246750000Y-111800000D01*
%TO.N,Net-(JP2-A)*%
X251500000Y-107300000D02*
X250500000Y-108300000D01*
X250500000Y-108300000D02*
X250500000Y-109900000D01*
%TO.N,GND*%
X242612500Y-109990000D02*
X242612500Y-111750000D01*
X242612500Y-111750000D02*
X244550000Y-111750000D01*
X244550000Y-111750000D02*
X244600000Y-111800000D01*
%TO.N,Net-(JP2-A)*%
X247950000Y-110600000D02*
X249800000Y-110600000D01*
X250500000Y-112500000D02*
X250500000Y-109900000D01*
X250500000Y-114900000D02*
X250500000Y-112500000D01*
X250500000Y-114900000D02*
X250500000Y-117500000D01*
X247950000Y-116800000D02*
X249800000Y-116800000D01*
%TO.N,ID*%
X244400000Y-112700000D02*
X244400000Y-115300000D01*
D46*
%TO.N,D+*%
X241000000Y-114400000D02*
X242600000Y-114500000D01*
X245950000Y-114350000D02*
X247825000Y-114350000D01*
X245700000Y-114600000D02*
X245950000Y-114350000D01*
D45*
%TO.N,ID*%
X246900000Y-113050000D02*
X246550000Y-112700000D01*
X246550000Y-112700000D02*
X244400000Y-112700000D01*
X247825000Y-113050000D02*
X246900000Y-113050000D01*
D46*
%TO.N,D-*%
X245900000Y-113700000D02*
X247825000Y-113700000D01*
X245700000Y-113500000D02*
X245900000Y-113700000D01*
X238500000Y-119300000D02*
X240100000Y-119300000D01*
D45*
%TO.N,3.3V*%
X212573100Y-115826900D02*
X212500000Y-115900000D01*
X212573100Y-113926900D02*
X212573100Y-115826900D01*
%TO.N,GND*%
X223425000Y-116475000D02*
X224100000Y-115800000D01*
X222500000Y-116475000D02*
X223425000Y-116475000D01*
%TO.N,3.3V*%
X223650000Y-114750000D02*
X224100000Y-114300000D01*
X222500000Y-114750000D02*
X223650000Y-114750000D01*
%TO.N,GND*%
X219750000Y-116790000D02*
X222185000Y-116790000D01*
%TO.N,3.3V*%
X219750000Y-114250000D02*
X222000000Y-114250000D01*
X222000000Y-114250000D02*
X222500000Y-114750000D01*
%TO.N,D5*%
X211573100Y-105726900D02*
X211573100Y-102573100D01*
X219750000Y-109170000D02*
X216900000Y-106320000D01*
X216900000Y-106320000D02*
X216900000Y-105800000D01*
X211500000Y-105800000D02*
X211573100Y-105726900D01*
%TO.N,D9*%
X219750000Y-106630000D02*
X217320000Y-104200000D01*
X217320000Y-104200000D02*
X217000000Y-104200000D01*
X210100000Y-104200000D02*
X210100000Y-102600000D01*
X210100000Y-102600000D02*
X210073100Y-102573100D01*
%TO.N,MOSI*%
X217740000Y-97000000D02*
X216500000Y-97000000D01*
X219750000Y-99010000D02*
X217740000Y-97000000D01*
%TO.N,D6*%
X210600000Y-98700000D02*
X210375000Y-98925000D01*
X210375000Y-98925000D02*
X210375000Y-101451901D01*
X210375000Y-101451901D02*
X210573099Y-101650000D01*
X210573099Y-101650000D02*
X210573099Y-102573100D01*
X216500000Y-102200000D02*
X216500000Y-98700000D01*
X218390000Y-104090000D02*
X216500000Y-102200000D01*
X219750000Y-104090000D02*
X218390000Y-104090000D01*
%TO.N,SCK*%
X211100000Y-100500000D02*
X211100000Y-102546201D01*
X211100000Y-102546201D02*
X211073101Y-102573100D01*
X217350000Y-101550000D02*
X217300000Y-101600000D01*
X219750000Y-101550000D02*
X217350000Y-101550000D01*
%TO.N,GND*%
X213000000Y-92100000D02*
X211700000Y-92100000D01*
%TO.N,3.3V*%
X213100000Y-94930000D02*
X214830000Y-93200000D01*
%TO.N,GND*%
X215800000Y-109500000D02*
X216400000Y-108900000D01*
X214500000Y-109500000D02*
X215800000Y-109500000D01*
%TO.N,3.3V*%
X214500000Y-109999999D02*
X216400000Y-110000000D01*
%TO.N,GND*%
X205537800Y-101575000D02*
X202925000Y-101575000D01*
X205573099Y-101610299D02*
X205537800Y-101575000D01*
X202925000Y-101575000D02*
X202700000Y-101800000D01*
X205573099Y-102573100D02*
X205573099Y-101610299D01*
%TO.N,3.3V*%
X203226900Y-102573100D02*
X202700000Y-103100000D01*
X205073100Y-102573100D02*
X203226900Y-102573100D01*
X213150000Y-97050000D02*
X213150000Y-95300000D01*
X213137500Y-100500000D02*
X213137500Y-98750000D01*
X212073101Y-102573100D02*
X212073101Y-101564399D01*
X212073101Y-101564399D02*
X213137500Y-100500000D01*
%TO.N,GND*%
X214875000Y-97050000D02*
X214875000Y-95300000D01*
X214862500Y-98750000D02*
X214862500Y-97062500D01*
X214862500Y-100500000D02*
X214862500Y-98750000D01*
X214900000Y-102200000D02*
X214900000Y-100537500D01*
X214526900Y-102573100D02*
X214900000Y-102200000D01*
X212573100Y-102573100D02*
X214526900Y-102573100D01*
%TD*%
M02*
